M48
; DRILL file {KiCad 9.0.3} date 2026-08-11T13:17:51-0500
; FORMAT={-:-/ absolute / metric / decimal}
; #@! TF.CreationDate,2026-08-11T13:17:51-05:00
; #@! TF.GenerationSoftware,Kicad,Pcbnew,9.0.3
; #@! TF.FileFunction,Plated,1,2,PTH
FMAT,2
METRIC
; #@! TA.AperFunction,Plated,PTH,ComponentDrill
T1C0.800
; #@! TA.AperFunction,Plated,PTH,ComponentDrill
T2C1.000
; #@! TA.AperFunction,Plated,PTH,ComponentDrill
T3C1.100
%
G90
G05
T1
X129.465Y-76.45
X137.085Y-76.45
X139.945Y-73.96
X139.945Y-76.5
X139.945Y-79.04
X142.94Y-91.0
X143.715Y-69.275
X147.565Y-73.96
X147.565Y-76.5
X147.565Y-79.04
X150.56Y-91.0
X151.335Y-69.275
X151.75Y-74.425
X151.75Y-79.425
X155.69Y-78.975
X159.565Y-65.15
X162.175Y-71.85
X163.31Y-78.975
X165.675Y-71.85
X167.185Y-65.15
X170.95Y-67.025
X174.45Y-67.025
T2
X126.375Y-63.775
X126.375Y-67.8
X126.375Y-71.5
X126.375Y-79.2
X126.4Y-75.275
X147.75Y-63.75
X151.65Y-63.7
X155.36Y-91.175
X157.9Y-91.175
T3
X125.62Y-83.18
X125.62Y-98.42
X128.16Y-83.18
X128.16Y-98.42
X130.7Y-83.18
X130.7Y-98.42
X133.24Y-83.18
X133.24Y-98.42
X135.78Y-83.18
X135.78Y-98.42
X138.32Y-83.18
X138.32Y-98.42
X140.86Y-83.18
X140.86Y-98.42
X143.4Y-83.18
X143.4Y-98.42
X145.94Y-83.18
X145.94Y-98.42
X148.48Y-83.18
X148.48Y-98.42
X151.02Y-83.18
X151.02Y-98.42
X153.56Y-83.18
X153.56Y-98.42
X155.935Y-66.424
X155.935Y-68.964
X155.935Y-71.504
X156.1Y-83.18
X156.1Y-98.42
X158.64Y-83.18
X158.64Y-98.42
X161.18Y-83.18
X161.18Y-98.42
X163.72Y-83.18
X163.72Y-98.42
X166.26Y-83.18
X166.26Y-98.42
X168.8Y-83.18
X168.8Y-98.42
X171.34Y-83.18
X171.34Y-98.42
X173.88Y-83.18
X173.88Y-98.42
M30
