%TF.GenerationSoftware,KiCad,Pcbnew,9.0.3*%
%TF.CreationDate,2026-08-11T13:17:36-05:00*%
%TF.ProjectId,daisylab_v1,64616973-796c-4616-925f-76312e6b6963,rev?*%
%TF.SameCoordinates,Original*%
%TF.FileFunction,Copper,L1,Top*%
%TF.FilePolarity,Positive*%
%FSLAX46Y46*%
G04 Gerber Fmt 4.6, Leading zero omitted, Abs format (unit mm)*
G04 Created by KiCad (PCBNEW 9.0.3) date 2026-08-11 13:17:36*
%MOMM*%
%LPD*%
G01*
G04 APERTURE LIST*
G04 Aperture macros list*
%AMRoundRect*
0 Rectangle with rounded corners*
0 $1 Rounding radius*
0 $2 $3 $4 $5 $6 $7 $8 $9 X,Y pos of 4 corners*
0 Add a 4 corners polygon primitive as box body*
4,1,4,$2,$3,$4,$5,$6,$7,$8,$9,$2,$3,0*
0 Add four circle primitives for the rounded corners*
1,1,$1+$1,$2,$3*
1,1,$1+$1,$4,$5*
1,1,$1+$1,$6,$7*
1,1,$1+$1,$8,$9*
0 Add four rect primitives between the rounded corners*
20,1,$1+$1,$2,$3,$4,$5,0*
20,1,$1+$1,$4,$5,$6,$7,0*
20,1,$1+$1,$6,$7,$8,$9,0*
20,1,$1+$1,$8,$9,$2,$3,0*%
G04 Aperture macros list end*
%TA.AperFunction,ComponentPad*%
%ADD10C,2.000000*%
%TD*%
%TA.AperFunction,ComponentPad*%
%ADD11RoundRect,0.250000X-0.550000X-0.550000X0.550000X-0.550000X0.550000X0.550000X-0.550000X0.550000X0*%
%TD*%
%TA.AperFunction,ComponentPad*%
%ADD12C,1.600000*%
%TD*%
%TA.AperFunction,WasherPad*%
%ADD13C,3.500000*%
%TD*%
%TA.AperFunction,ComponentPad*%
%ADD14R,1.700000X1.700000*%
%TD*%
%TA.AperFunction,ComponentPad*%
%ADD15C,1.700000*%
%TD*%
%TA.AperFunction,Conductor*%
%ADD16C,0.250000*%
%TD*%
%TA.AperFunction,Conductor*%
%ADD17C,0.500000*%
%TD*%
G04 APERTURE END LIST*
D10*
%TO.P,MIDI_PIN4,1,Pin_1*%
%TO.N,MIDI_IN_JACK_PIN4*%
X147750000Y-63750000D03*
%TD*%
D11*
%TO.P,D1,1,K*%
%TO.N,Net-(D1-K)*%
X129465000Y-76450000D03*
D12*
%TO.P,D1,2,A*%
%TO.N,MIDI_IN_JACK_PIN5*%
X137085000Y-76450000D03*
%TD*%
%TO.P,R4,1*%
%TO.N,3V3_A*%
X163310000Y-78975000D03*
%TO.P,R4,2*%
%TO.N,MIDI_IN*%
X155690000Y-78975000D03*
%TD*%
D10*
%TO.P,GND,1,Pin_1*%
%TO.N,GND*%
X126375000Y-67800000D03*
%TD*%
%TO.P,5v_Pwr,1,Pin_1*%
%TO.N,Net-(5v_Pwr1-Pin_1)*%
X126375000Y-63775000D03*
%TD*%
D13*
%TO.P,REF\u002A\u002A,*%
%TO.N,*%
X135625000Y-68148501D03*
%TD*%
D10*
%TO.P,Left,1,Pin_1*%
%TO.N,AUDIO_OUT_BUFFER_LEFT*%
X126400000Y-75275000D03*
%TD*%
D14*
%TO.P,A2,1,USB_ID*%
%TO.N,unconnected-(A2-USB_ID-Pad1)*%
X173880000Y-83180000D03*
D15*
%TO.P,A2,2,SD_DATA_3*%
%TO.N,unconnected-(A2-SD_DATA_3-Pad2)*%
X171340000Y-83180000D03*
%TO.P,A2,3,SD_DATA_2*%
%TO.N,unconnected-(A2-SD_DATA_2-Pad3)*%
X168800000Y-83180000D03*
%TO.P,A2,4,SD_DATA_1*%
%TO.N,unconnected-(A2-SD_DATA_1-Pad4)*%
X166260000Y-83180000D03*
%TO.P,A2,5,SD_DATA_0*%
%TO.N,unconnected-(A2-SD_DATA_0-Pad5)*%
X163720000Y-83180000D03*
%TO.P,A2,6,SD_CMD*%
%TO.N,unconnected-(A2-SD_CMD-Pad6)*%
X161180000Y-83180000D03*
%TO.P,A2,7,SD_CLK*%
%TO.N,unconnected-(A2-SD_CLK-Pad7)*%
X158640000Y-83180000D03*
%TO.P,A2,8,SPI1_CS*%
%TO.N,unconnected-(A2-SPI1_CS-Pad8)*%
X156100000Y-83180000D03*
%TO.P,A2,9,SPI1_SCK*%
%TO.N,unconnected-(A2-SPI1_SCK-Pad9)*%
X153560000Y-83180000D03*
%TO.P,A2,10,SPI1_POCI*%
%TO.N,unconnected-(A2-SPI1_POCI-Pad10)*%
X151020000Y-83180000D03*
%TO.P,A2,11,SPI1_PICO*%
%TO.N,unconnected-(A2-SPI1_PICO-Pad11)*%
X148480000Y-83180000D03*
%TO.P,A2,12,I2C1_SCL*%
%TO.N,unconnected-(A2-I2C1_SCL-Pad12)*%
X145940000Y-83180000D03*
%TO.P,A2,13,I2C1_SDA*%
%TO.N,unconnected-(A2-I2C1_SDA-Pad13)*%
X143400000Y-83180000D03*
%TO.P,A2,14,USART1_TX*%
%TO.N,unconnected-(A2-USART1_TX-Pad14)*%
X140860000Y-83180000D03*
%TO.P,A2,15,USART1_RX*%
%TO.N,unconnected-(A2-USART1_RX-Pad15)*%
X138320000Y-83180000D03*
%TO.P,A2,16,AUDIO_IN_1*%
%TO.N,AUDIO_IN_LEFT_DAISY*%
X135780000Y-83180000D03*
%TO.P,A2,17,AUDIO_IN_2*%
%TO.N,unconnected-(A2-AUDIO_IN_2-Pad17)*%
X133240000Y-83180000D03*
%TO.P,A2,18,AUDIO_OUT_1*%
%TO.N,AUDIO_OUT_BUFFER_LEFT*%
X130700000Y-83180000D03*
%TO.P,A2,19,AUDIO_OUT_2*%
%TO.N,AUDIO_OUT_BUFFER_RIGHT*%
X128160000Y-83180000D03*
%TO.P,A2,20,AGND*%
%TO.N,GND*%
X125620000Y-83180000D03*
%TO.P,A2,21,3V3_A*%
%TO.N,3V3_A*%
X125620000Y-98420000D03*
%TO.P,A2,22,ADC_0*%
%TO.N,unconnected-(A2-ADC_0-Pad22)*%
X128160000Y-98420000D03*
%TO.P,A2,23,ADC_1*%
%TO.N,unconnected-(A2-ADC_1-Pad23)*%
X130700000Y-98420000D03*
%TO.P,A2,24,ADC_2*%
%TO.N,unconnected-(A2-ADC_2-Pad24)*%
X133240000Y-98420000D03*
%TO.P,A2,25,ADC_3*%
%TO.N,unconnected-(A2-ADC_3-Pad25)*%
X135780000Y-98420000D03*
%TO.P,A2,26,ADC_4*%
%TO.N,unconnected-(A2-ADC_4-Pad26)*%
X138320000Y-98420000D03*
%TO.P,A2,27,ADC_5*%
%TO.N,unconnected-(A2-ADC_5-Pad27)*%
X140860000Y-98420000D03*
%TO.P,A2,28,ADC_6*%
%TO.N,unconnected-(A2-ADC_6-Pad28)*%
X143400000Y-98420000D03*
%TO.P,A2,29,DAC_OUT2*%
%TO.N,LED_1*%
X145940000Y-98420000D03*
%TO.P,A2,30,DAC_OUT1*%
%TO.N,unconnected-(A2-DAC_OUT1-Pad30)*%
X148480000Y-98420000D03*
%TO.P,A2,31,SAI2_MCLK*%
%TO.N,unconnected-(A2-SAI2_MCLK-Pad31)*%
X151020000Y-98420000D03*
%TO.P,A2,32,SAI2_SD_B*%
%TO.N,unconnected-(A2-SAI2_SD_B-Pad32)*%
X153560000Y-98420000D03*
%TO.P,A2,33,SAI2_SD_A*%
%TO.N,unconnected-(A2-SAI2_SD_A-Pad33)*%
X156100000Y-98420000D03*
%TO.P,A2,34,SAI2_FS*%
%TO.N,unconnected-(A2-SAI2_FS-Pad34)*%
X158640000Y-98420000D03*
%TO.P,A2,35,SAI2_SCK*%
%TO.N,unconnected-(A2-SAI2_SCK-Pad35)*%
X161180000Y-98420000D03*
%TO.P,A2,36,USB_D_-*%
%TO.N,unconnected-(A2-USB_D_--Pad36)*%
X163720000Y-98420000D03*
%TO.P,A2,37,USB_D_+*%
%TO.N,MIDI_IN*%
X166260000Y-98420000D03*
%TO.P,A2,38,3V3_D*%
%TO.N,3V3_D*%
X168800000Y-98420000D03*
%TO.P,A2,39,VIN*%
%TO.N,Net-(5v_Pwr1-Pin_1)*%
X171340000Y-98420000D03*
%TO.P,A2,40,DGND*%
%TO.N,GND*%
X173880000Y-98420000D03*
%TD*%
D12*
%TO.P,R1,1*%
%TO.N,MIDI_IN_JACK_PIN4*%
X151335000Y-69275000D03*
%TO.P,R1,2*%
%TO.N,Net-(D1-K)*%
X143715000Y-69275000D03*
%TD*%
D10*
%TO.P,GND,1,Pin_1*%
%TO.N,GND*%
X126375000Y-71500000D03*
%TD*%
%TO.P,MIDI_PIN5,1,Pin_1*%
%TO.N,MIDI_IN_JACK_PIN5*%
X151650000Y-63700000D03*
%TD*%
D12*
%TO.P,C3,1*%
%TO.N,3V3_A*%
X151750000Y-74425000D03*
%TO.P,C3,2*%
%TO.N,GND*%
X151750000Y-79425000D03*
%TD*%
%TO.P,R2,1*%
%TO.N,Net-(LED1-A)*%
X150560000Y-91000000D03*
%TO.P,R2,2*%
%TO.N,LED_1*%
X142940000Y-91000000D03*
%TD*%
D11*
%TO.P,U1,1*%
%TO.N,Net-(D1-K)*%
X139945000Y-73960000D03*
D12*
%TO.P,U1,2*%
%TO.N,MIDI_IN_JACK_PIN5*%
X139945000Y-76500000D03*
%TO.P,U1,3*%
%TO.N,unconnected-(U1-Pad3)*%
X139945000Y-79040000D03*
%TO.P,U1,4*%
%TO.N,MIDI_IN*%
X147565000Y-79040000D03*
%TO.P,U1,5*%
%TO.N,GND*%
X147565000Y-76500000D03*
%TO.P,U1,6*%
%TO.N,3V3_A*%
X147565000Y-73960000D03*
%TD*%
D11*
%TO.P,C2,1*%
%TO.N,GND*%
X170950000Y-67025000D03*
D12*
%TO.P,C2,2*%
%TO.N,Net-(A1-VCC)*%
X174450000Y-67025000D03*
%TD*%
D13*
%TO.P,Mount,*%
%TO.N,*%
X169350000Y-90875000D03*
%TD*%
D11*
%TO.P,C1,1*%
%TO.N,AUDIO_IN_LEFT_DAISY*%
X162175000Y-71850000D03*
D12*
%TO.P,C1,2*%
%TO.N,Net-(A1-OUT)*%
X165675000Y-71850000D03*
%TD*%
%TO.P,R3,1*%
%TO.N,3V3_A*%
X167185000Y-65150000D03*
%TO.P,R3,2*%
%TO.N,Net-(A1-VCC)*%
X159565000Y-65150000D03*
%TD*%
D13*
%TO.P,REF\u002A\u002A,*%
%TO.N,*%
X135625000Y-114150000D03*
%TD*%
D10*
%TO.P,Right,1,Pin_1*%
%TO.N,AUDIO_OUT_BUFFER_RIGHT*%
X126375000Y-79200000D03*
%TD*%
D14*
%TO.P,A1,1,OUT*%
%TO.N,Net-(A1-OUT)*%
X155934808Y-71504163D03*
D15*
%TO.P,A1,2,GND*%
%TO.N,GND*%
X155934808Y-68964163D03*
%TO.P,A1,3,VCC*%
%TO.N,Net-(A1-VCC)*%
X155934808Y-66424163D03*
%TD*%
D14*
%TO.P,LED1,1,K*%
%TO.N,GND*%
X157900000Y-91175000D03*
D15*
%TO.P,LED1,2,A*%
%TO.N,Net-(LED1-A)*%
X155360000Y-91175000D03*
%TD*%
D16*
%TO.N,AUDIO_OUT_BUFFER_LEFT*%
X130700000Y-80425000D02*
X126400000Y-76125000D01*
X130700000Y-83180000D02*
X130700000Y-80425000D01*
X126400000Y-76125000D02*
X126400000Y-75275000D01*
%TO.N,AUDIO_OUT_BUFFER_RIGHT*%
X126375000Y-79200000D02*
X128160000Y-80985000D01*
X128160000Y-80985000D02*
X128160000Y-83180000D01*
%TO.N,LED_1*%
X142940000Y-91000000D02*
X142940000Y-95420000D01*
X142940000Y-95420000D02*
X145940000Y-98420000D01*
%TO.N,AUDIO_IN_LEFT_DAISY*%
X167575000Y-84350000D02*
X167575000Y-77450000D01*
X167575000Y-77450000D02*
X162175000Y-72050000D01*
X138950000Y-86350000D02*
X165575000Y-86350000D01*
X162175000Y-72050000D02*
X162175000Y-71850000D01*
X135780000Y-83180000D02*
X138950000Y-86350000D01*
X165575000Y-86350000D02*
X167575000Y-84350000D01*
%TO.N,MIDI_IN*%
X154465000Y-77750000D02*
X148855000Y-77750000D01*
X148855000Y-77750000D02*
X147565000Y-79040000D01*
X155690000Y-78975000D02*
X154465000Y-77750000D01*
%TO.N,Net-(LED1-A)*%
X150560000Y-91000000D02*
X155185000Y-91000000D01*
X155185000Y-91000000D02*
X155360000Y-91175000D01*
D17*
%TO.N,Net-(5v_Pwr1-Pin_1)*%
X126375000Y-63775000D02*
X123875000Y-66275000D01*
X125150000Y-88175000D02*
X160850000Y-88175000D01*
X123875000Y-66275000D02*
X123875000Y-86900000D01*
X123875000Y-86900000D02*
X125150000Y-88175000D01*
X171095000Y-98420000D02*
X171340000Y-98420000D01*
X160850000Y-88175000D02*
X171095000Y-98420000D01*
D16*
%TO.N,Net-(A1-VCC)*%
X155934808Y-66424163D02*
X157208971Y-65150000D01*
X161490000Y-63225000D02*
X159565000Y-65150000D01*
X174450000Y-67025000D02*
X170650000Y-63225000D01*
X170650000Y-63225000D02*
X161490000Y-63225000D01*
X157208971Y-65150000D02*
X159565000Y-65150000D01*
%TO.N,Net-(A1-OUT)*%
X156714971Y-70724000D02*
X164549000Y-70724000D01*
X164549000Y-70724000D02*
X165675000Y-71850000D01*
X155934808Y-71504163D02*
X156714971Y-70724000D01*
D17*
%TO.N,3V3_A*%
X158760000Y-74425000D02*
X163310000Y-78975000D01*
X151750000Y-74425000D02*
X158760000Y-74425000D01*
X151750000Y-74425000D02*
X148030000Y-74425000D01*
X148030000Y-74425000D02*
X147565000Y-73960000D01*
D16*
%TO.N,MIDI_IN_JACK_PIN5*%
X137085000Y-76450000D02*
X139895000Y-76450000D01*
X151525000Y-71800000D02*
X145525000Y-71800000D01*
X151650000Y-63700000D02*
X153075000Y-65125000D01*
X145525000Y-71800000D02*
X140825000Y-76500000D01*
X153075000Y-70250000D02*
X151525000Y-71800000D01*
X140825000Y-76500000D02*
X139945000Y-76500000D01*
X139895000Y-76450000D02*
X139945000Y-76500000D01*
X153075000Y-65125000D02*
X153075000Y-70250000D01*
%TO.N,MIDI_IN_JACK_PIN4*%
X151335000Y-69275000D02*
X151335000Y-67335000D01*
X151335000Y-67335000D02*
X147750000Y-63750000D01*
%TO.N,Net-(D1-K)*%
X139945000Y-73045000D02*
X143715000Y-69275000D01*
X131955000Y-73960000D02*
X139945000Y-73960000D01*
X129465000Y-76450000D02*
X131955000Y-73960000D01*
X139945000Y-73960000D02*
X139945000Y-73045000D01*
%TD*%
%TA.AperFunction,Conductor*%
%TO.N,GND*%
G36*
X177446931Y-61404018D02*
G01*
X177513963Y-61423718D01*
X177559706Y-61476532D01*
X177570900Y-61528018D01*
X177570900Y-76171909D01*
X177551215Y-76238948D01*
X177498411Y-76284703D01*
X177446900Y-76295909D01*
X169845571Y-76295900D01*
X169754429Y-76295900D01*
X169754428Y-76295900D01*
X169670222Y-76330780D01*
X169670222Y-76330781D01*
X169605781Y-76395222D01*
X169605780Y-76395222D01*
X169570900Y-76479428D01*
X169570900Y-79900571D01*
X169605780Y-79984777D01*
X169670222Y-80049219D01*
X169670223Y-80049219D01*
X169670225Y-80049221D01*
X169754429Y-80084100D01*
X177471476Y-80084100D01*
X177538515Y-80103785D01*
X177584270Y-80156589D01*
X177595476Y-80208248D01*
X177570790Y-100834175D01*
X177551025Y-100901191D01*
X177498166Y-100946883D01*
X177446649Y-100958027D01*
X145583826Y-100921915D01*
X145583826Y-100921914D01*
X145571574Y-100921900D01*
X145571457Y-100921852D01*
X145526465Y-100921851D01*
X145526464Y-100921850D01*
X145526463Y-100921851D01*
X145480568Y-100921798D01*
X145480481Y-100921816D01*
X145480322Y-100921847D01*
X145438480Y-100939178D01*
X145438354Y-100939230D01*
X145396325Y-100956583D01*
X145396111Y-100956725D01*
X145364069Y-100988766D01*
X145363975Y-100988860D01*
X145331805Y-101020958D01*
X145331665Y-101021166D01*
X145314361Y-101062938D01*
X145314310Y-101063062D01*
X145299551Y-101098581D01*
X145255649Y-101152935D01*
X145189330Y-101174926D01*
X145185043Y-101175000D01*
X123453100Y-101175000D01*
X123386061Y-101155315D01*
X123340306Y-101102511D01*
X123329100Y-101051000D01*
X123329100Y-87714829D01*
X123348785Y-87647790D01*
X123401589Y-87602035D01*
X123470747Y-87592091D01*
X123534303Y-87621116D01*
X123540781Y-87627148D01*
X124671580Y-88757948D01*
X124671584Y-88757951D01*
X124794498Y-88840080D01*
X124794511Y-88840087D01*
X124931082Y-88896656D01*
X124931087Y-88896658D01*
X124931091Y-88896658D01*
X124931092Y-88896659D01*
X125076079Y-88925500D01*
X125076082Y-88925500D01*
X125223917Y-88925500D01*
X160487770Y-88925500D01*
X160554809Y-88945185D01*
X160575451Y-88961819D01*
X168516254Y-96902622D01*
X168549739Y-96963945D01*
X168544755Y-97033637D01*
X168502883Y-97089570D01*
X168466893Y-97108233D01*
X168462023Y-97109816D01*
X168281583Y-97168444D01*
X168092179Y-97264951D01*
X167920213Y-97389890D01*
X167769890Y-97540213D01*
X167644949Y-97712182D01*
X167640484Y-97720946D01*
X167592509Y-97771742D01*
X167524688Y-97788536D01*
X167458553Y-97765998D01*
X167419516Y-97720946D01*
X167415050Y-97712182D01*
X167290109Y-97540213D01*
X167139786Y-97389890D01*
X166967820Y-97264951D01*
X166778414Y-97168444D01*
X166778413Y-97168443D01*
X166778412Y-97168443D01*
X166576243Y-97102754D01*
X166576241Y-97102753D01*
X166576240Y-97102753D01*
X166414957Y-97077208D01*
X166366287Y-97069500D01*
X166153713Y-97069500D01*
X166105042Y-97077208D01*
X165943760Y-97102753D01*
X165741585Y-97168444D01*
X165552179Y-97264951D01*
X165380213Y-97389890D01*
X165229890Y-97540213D01*
X165104949Y-97712182D01*
X165100484Y-97720946D01*
X165052509Y-97771742D01*
X164984688Y-97788536D01*
X164918553Y-97765998D01*
X164879516Y-97720946D01*
X164875050Y-97712182D01*
X164750109Y-97540213D01*
X164599786Y-97389890D01*
X164427820Y-97264951D01*
X164238414Y-97168444D01*
X164238413Y-97168443D01*
X164238412Y-97168443D01*
X164036243Y-97102754D01*
X164036241Y-97102753D01*
X164036240Y-97102753D01*
X163874957Y-97077208D01*
X163826287Y-97069500D01*
X163613713Y-97069500D01*
X163565042Y-97077208D01*
X163403760Y-97102753D01*
X163201585Y-97168444D01*
X163012179Y-97264951D01*
X162840213Y-97389890D01*
X162689890Y-97540213D01*
X162564949Y-97712182D01*
X162560484Y-97720946D01*
X162512509Y-97771742D01*
X162444688Y-97788536D01*
X162378553Y-97765998D01*
X162339516Y-97720946D01*
X162335050Y-97712182D01*
X162210109Y-97540213D01*
X162059786Y-97389890D01*
X161887820Y-97264951D01*
X161698414Y-97168444D01*
X161698413Y-97168443D01*
X161698412Y-97168443D01*
X161496243Y-97102754D01*
X161496241Y-97102753D01*
X161496240Y-97102753D01*
X161334957Y-97077208D01*
X161286287Y-97069500D01*
X161073713Y-97069500D01*
X161025042Y-97077208D01*
X160863760Y-97102753D01*
X160661585Y-97168444D01*
X160472179Y-97264951D01*
X160300213Y-97389890D01*
X160149890Y-97540213D01*
X160024949Y-97712182D01*
X160020484Y-97720946D01*
X159972509Y-97771742D01*
X159904688Y-97788536D01*
X159838553Y-97765998D01*
X159799516Y-97720946D01*
X159795050Y-97712182D01*
X159670109Y-97540213D01*
X159519786Y-97389890D01*
X159347820Y-97264951D01*
X159158414Y-97168444D01*
X159158413Y-97168443D01*
X159158412Y-97168443D01*
X158956243Y-97102754D01*
X158956241Y-97102753D01*
X158956240Y-97102753D01*
X158794957Y-97077208D01*
X158746287Y-97069500D01*
X158533713Y-97069500D01*
X158485042Y-97077208D01*
X158323760Y-97102753D01*
X158121585Y-97168444D01*
X157932179Y-97264951D01*
X157760213Y-97389890D01*
X157609890Y-97540213D01*
X157484949Y-97712182D01*
X157480484Y-97720946D01*
X157432509Y-97771742D01*
X157364688Y-97788536D01*
X157298553Y-97765998D01*
X157259516Y-97720946D01*
X157255050Y-97712182D01*
X157130109Y-97540213D01*
X156979786Y-97389890D01*
X156807820Y-97264951D01*
X156618414Y-97168444D01*
X156618413Y-97168443D01*
X156618412Y-97168443D01*
X156416243Y-97102754D01*
X156416241Y-97102753D01*
X156416240Y-97102753D01*
X156254957Y-97077208D01*
X156206287Y-97069500D01*
X155993713Y-97069500D01*
X155945042Y-97077208D01*
X155783760Y-97102753D01*
X155581585Y-97168444D01*
X155392179Y-97264951D01*
X155220213Y-97389890D01*
X155069890Y-97540213D01*
X154944949Y-97712182D01*
X154940484Y-97720946D01*
X154892509Y-97771742D01*
X154824688Y-97788536D01*
X154758553Y-97765998D01*
X154719516Y-97720946D01*
X154715050Y-97712182D01*
X154590109Y-97540213D01*
X154439786Y-97389890D01*
X154267820Y-97264951D01*
X154078414Y-97168444D01*
X154078413Y-97168443D01*
X154078412Y-97168443D01*
X153876243Y-97102754D01*
X153876241Y-97102753D01*
X153876240Y-97102753D01*
X153714957Y-97077208D01*
X153666287Y-97069500D01*
X153453713Y-97069500D01*
X153405042Y-97077208D01*
X153243760Y-97102753D01*
X153041585Y-97168444D01*
X152852179Y-97264951D01*
X152680213Y-97389890D01*
X152529890Y-97540213D01*
X152404949Y-97712182D01*
X152400484Y-97720946D01*
X152352509Y-97771742D01*
X152284688Y-97788536D01*
X152218553Y-97765998D01*
X152179516Y-97720946D01*
X152175050Y-97712182D01*
X152050109Y-97540213D01*
X151899786Y-97389890D01*
X151727820Y-97264951D01*
X151538414Y-97168444D01*
X151538413Y-97168443D01*
X151538412Y-97168443D01*
X151336243Y-97102754D01*
X151336241Y-97102753D01*
X151336240Y-97102753D01*
X151174957Y-97077208D01*
X151126287Y-97069500D01*
X150913713Y-97069500D01*
X150865042Y-97077208D01*
X150703760Y-97102753D01*
X150501585Y-97168444D01*
X150312179Y-97264951D01*
X150140213Y-97389890D01*
X149989890Y-97540213D01*
X149864949Y-97712182D01*
X149860484Y-97720946D01*
X149812509Y-97771742D01*
X149744688Y-97788536D01*
X149678553Y-97765998D01*
X149639516Y-97720946D01*
X149635050Y-97712182D01*
X149510109Y-97540213D01*
X149359786Y-97389890D01*
X149187820Y-97264951D01*
X148998414Y-97168444D01*
X148998413Y-97168443D01*
X148998412Y-97168443D01*
X148796243Y-97102754D01*
X148796241Y-97102753D01*
X148796240Y-97102753D01*
X148634957Y-97077208D01*
X148586287Y-97069500D01*
X148373713Y-97069500D01*
X148325042Y-97077208D01*
X148163760Y-97102753D01*
X147961585Y-97168444D01*
X147772179Y-97264951D01*
X147600213Y-97389890D01*
X147449890Y-97540213D01*
X147324949Y-97712182D01*
X147320484Y-97720946D01*
X147272509Y-97771742D01*
X147204688Y-97788536D01*
X147138553Y-97765998D01*
X147099516Y-97720946D01*
X147095050Y-97712182D01*
X146970109Y-97540213D01*
X146819786Y-97389890D01*
X146647820Y-97264951D01*
X146458414Y-97168444D01*
X146458413Y-97168443D01*
X146458412Y-97168443D01*
X146256243Y-97102754D01*
X146256241Y-97102753D01*
X146256240Y-97102753D01*
X146094957Y-97077208D01*
X146046287Y-97069500D01*
X145833713Y-97069500D01*
X145791721Y-97076150D01*
X145623753Y-97102754D01*
X145608160Y-97107821D01*
X145538319Y-97109816D01*
X145482162Y-97077571D01*
X143601819Y-95197228D01*
X143568334Y-95135905D01*
X143565500Y-95109547D01*
X143565500Y-92216114D01*
X143585185Y-92149075D01*
X143618575Y-92116398D01*
X143617668Y-92115150D01*
X143621605Y-92112289D01*
X143621610Y-92112287D01*
X143787219Y-91991966D01*
X143931966Y-91847219D01*
X143931968Y-91847215D01*
X143931971Y-91847213D01*
X144043712Y-91693412D01*
X144052287Y-91681610D01*
X144145220Y-91499219D01*
X144208477Y-91304534D01*
X144240500Y-91102352D01*
X144240500Y-90897648D01*
X149259500Y-90897648D01*
X149259500Y-91102351D01*
X149291522Y-91304534D01*
X149354781Y-91499223D01*
X149418691Y-91624653D01*
X149425406Y-91637831D01*
X149447715Y-91681613D01*
X149568028Y-91847213D01*
X149712786Y-91991971D01*
X149849340Y-92091181D01*
X149878390Y-92112287D01*
X149994607Y-92171503D01*
X150060776Y-92205218D01*
X150060778Y-92205218D01*
X150060781Y-92205220D01*
X150165137Y-92239127D01*
X150255465Y-92268477D01*
X150356557Y-92284488D01*
X150457648Y-92300500D01*
X150457649Y-92300500D01*
X150662351Y-92300500D01*
X150662352Y-92300500D01*
X150864534Y-92268477D01*
X151059219Y-92205220D01*
X151241610Y-92112287D01*
X151334590Y-92044732D01*
X151407213Y-91991971D01*
X151407215Y-91991968D01*
X151407219Y-91991966D01*
X151551966Y-91847219D01*
X151551968Y-91847215D01*
X151551971Y-91847213D01*
X151675151Y-91677669D01*
X151676823Y-91678884D01*
X151722208Y-91637831D01*
X151776115Y-91625500D01*
X153997852Y-91625500D01*
X154064891Y-91645185D01*
X154108337Y-91693205D01*
X154159396Y-91793414D01*
X154199696Y-91872507D01*
X154204951Y-91882819D01*
X154329890Y-92054786D01*
X154480213Y-92205109D01*
X154652179Y-92330048D01*
X154652181Y-92330049D01*
X154652184Y-92330051D01*
X154841588Y-92426557D01*
X155043757Y-92492246D01*
X155253713Y-92525500D01*
X155253714Y-92525500D01*
X155466286Y-92525500D01*
X155466287Y-92525500D01*
X155676243Y-92492246D01*
X155878412Y-92426557D01*
X156067816Y-92330051D01*
X156154478Y-92267088D01*
X156239784Y-92205110D01*
X156239784Y-92205109D01*
X156239792Y-92205104D01*
X156353717Y-92091178D01*
X156415036Y-92057696D01*
X156484728Y-92062680D01*
X156540662Y-92104551D01*
X156557577Y-92135528D01*
X156606646Y-92267088D01*
X156606649Y-92267093D01*
X156692809Y-92382187D01*
X156692812Y-92382190D01*
X156807906Y-92468350D01*
X156807913Y-92468354D01*
X156942620Y-92518596D01*
X156942627Y-92518598D01*
X157002155Y-92524999D01*
X157002172Y-92525000D01*
X157650000Y-92525000D01*
X157650000Y-91608012D01*
X157707007Y-91640925D01*
X157834174Y-91675000D01*
X157965826Y-91675000D01*
X158092993Y-91640925D01*
X158150000Y-91608012D01*
X158150000Y-92525000D01*
X158797828Y-92525000D01*
X158797844Y-92524999D01*
X158857372Y-92518598D01*
X158857379Y-92518596D01*
X158992086Y-92468354D01*
X158992093Y-92468350D01*
X159107187Y-92382190D01*
X159107190Y-92382187D01*
X159193350Y-92267093D01*
X159193354Y-92267086D01*
X159243596Y-92132379D01*
X159243598Y-92132372D01*
X159249999Y-92072844D01*
X159250000Y-92072827D01*
X159250000Y-91425000D01*
X158333012Y-91425000D01*
X158365925Y-91367993D01*
X158400000Y-91240826D01*
X158400000Y-91109174D01*
X158365925Y-90982007D01*
X158333012Y-90925000D01*
X159250000Y-90925000D01*
X159250000Y-90277172D01*
X159249999Y-90277155D01*
X159243598Y-90217627D01*
X159243596Y-90217620D01*
X159193354Y-90082913D01*
X159193350Y-90082906D01*
X159107190Y-89967812D01*
X159107187Y-89967809D01*
X158992093Y-89881649D01*
X158992086Y-89881645D01*
X158857379Y-89831403D01*
X158857372Y-89831401D01*
X158797844Y-89825000D01*
X158150000Y-89825000D01*
X158150000Y-90741988D01*
X158092993Y-90709075D01*
X157965826Y-90675000D01*
X157834174Y-90675000D01*
X157707007Y-90709075D01*
X157650000Y-90741988D01*
X157650000Y-89825000D01*
X157002155Y-89825000D01*
X156942627Y-89831401D01*
X156942620Y-89831403D01*
X156807913Y-89881645D01*
X156807906Y-89881649D01*
X156692812Y-89967809D01*
X156692809Y-89967812D01*
X156606649Y-90082906D01*
X156606646Y-90082912D01*
X156557577Y-90214471D01*
X156515705Y-90270404D01*
X156450241Y-90294821D01*
X156381968Y-90279969D01*
X156353714Y-90258818D01*
X156239786Y-90144890D01*
X156067820Y-90019951D01*
X155878414Y-89923444D01*
X155878413Y-89923443D01*
X155878412Y-89923443D01*
X155676243Y-89857754D01*
X155676241Y-89857753D01*
X155676240Y-89857753D01*
X155514957Y-89832208D01*
X155466287Y-89824500D01*
X155253713Y-89824500D01*
X155205042Y-89832208D01*
X155043760Y-89857753D01*
X154841585Y-89923444D01*
X154652179Y-90019951D01*
X154480213Y-90144890D01*
X154329898Y-90295205D01*
X154329898Y-90295206D01*
X154329896Y-90295208D01*
X154309422Y-90323386D01*
X154254094Y-90366051D01*
X154209106Y-90374500D01*
X151776115Y-90374500D01*
X151709076Y-90354815D01*
X151676393Y-90321428D01*
X151675151Y-90322331D01*
X151551971Y-90152786D01*
X151407213Y-90008028D01*
X151241613Y-89887715D01*
X151241612Y-89887714D01*
X151241610Y-89887713D01*
X151131096Y-89831403D01*
X151059223Y-89794781D01*
X150864534Y-89731522D01*
X150689995Y-89703878D01*
X150662352Y-89699500D01*
X150457648Y-89699500D01*
X150433329Y-89703351D01*
X150255465Y-89731522D01*
X150060776Y-89794781D01*
X149878386Y-89887715D01*
X149712786Y-90008028D01*
X149568028Y-90152786D01*
X149447715Y-90318386D01*
X149354781Y-90500776D01*
X149291522Y-90695465D01*
X149259500Y-90897648D01*
X144240500Y-90897648D01*
X144234340Y-90858757D01*
X144208477Y-90695465D01*
X144145218Y-90500776D01*
X144111503Y-90434607D01*
X144052287Y-90318390D01*
X144044556Y-90307749D01*
X143931971Y-90152786D01*
X143787213Y-90008028D01*
X143621613Y-89887715D01*
X143621612Y-89887714D01*
X143621610Y-89887713D01*
X143511096Y-89831403D01*
X143439223Y-89794781D01*
X143244534Y-89731522D01*
X143069995Y-89703878D01*
X143042352Y-89699500D01*
X142837648Y-89699500D01*
X142813329Y-89703351D01*
X142635465Y-89731522D01*
X142440776Y-89794781D01*
X142258386Y-89887715D01*
X142092786Y-90008028D01*
X141948028Y-90152786D01*
X141827715Y-90318386D01*
X141734781Y-90500776D01*
X141671522Y-90695465D01*
X141639500Y-90897648D01*
X141639500Y-91102351D01*
X141671522Y-91304534D01*
X141734781Y-91499223D01*
X141798691Y-91624653D01*
X141805406Y-91637831D01*
X141827715Y-91681613D01*
X141948028Y-91847213D01*
X141948034Y-91847219D01*
X142092781Y-91991966D01*
X142258390Y-92112287D01*
X142258394Y-92112289D01*
X142262332Y-92115150D01*
X142261111Y-92116829D01*
X142302155Y-92162177D01*
X142314500Y-92216114D01*
X142314500Y-95481611D01*
X142338535Y-95602444D01*
X142338540Y-95602461D01*
X142385685Y-95716280D01*
X142385687Y-95716283D01*
X142385688Y-95716286D01*
X142419915Y-95767509D01*
X142454142Y-95818733D01*
X142541267Y-95905858D01*
X142541269Y-95905859D01*
X142551232Y-95915822D01*
X143493229Y-96857819D01*
X143526714Y-96919142D01*
X143521730Y-96988834D01*
X143479858Y-97044767D01*
X143414394Y-97069184D01*
X143405548Y-97069500D01*
X143293713Y-97069500D01*
X143245042Y-97077208D01*
X143083760Y-97102753D01*
X142881585Y-97168444D01*
X142692179Y-97264951D01*
X142520213Y-97389890D01*
X142369890Y-97540213D01*
X142244949Y-97712182D01*
X142240484Y-97720946D01*
X142192509Y-97771742D01*
X142124688Y-97788536D01*
X142058553Y-97765998D01*
X142019516Y-97720946D01*
X142015050Y-97712182D01*
X141890109Y-97540213D01*
X141739786Y-97389890D01*
X141567820Y-97264951D01*
X141378414Y-97168444D01*
X141378413Y-97168443D01*
X141378412Y-97168443D01*
X141176243Y-97102754D01*
X141176241Y-97102753D01*
X141176240Y-97102753D01*
X141014957Y-97077208D01*
X140966287Y-97069500D01*
X140753713Y-97069500D01*
X140705042Y-97077208D01*
X140543760Y-97102753D01*
X140341585Y-97168444D01*
X140152179Y-97264951D01*
X139980213Y-97389890D01*
X139829890Y-97540213D01*
X139704949Y-97712182D01*
X139700484Y-97720946D01*
X139652509Y-97771742D01*
X139584688Y-97788536D01*
X139518553Y-97765998D01*
X139479516Y-97720946D01*
X139475050Y-97712182D01*
X139350109Y-97540213D01*
X139199786Y-97389890D01*
X139027820Y-97264951D01*
X138838414Y-97168444D01*
X138838413Y-97168443D01*
X138838412Y-97168443D01*
X138636243Y-97102754D01*
X138636241Y-97102753D01*
X138636240Y-97102753D01*
X138474957Y-97077208D01*
X138426287Y-97069500D01*
X138213713Y-97069500D01*
X138165042Y-97077208D01*
X138003760Y-97102753D01*
X137801585Y-97168444D01*
X137612179Y-97264951D01*
X137440213Y-97389890D01*
X137289890Y-97540213D01*
X137164949Y-97712182D01*
X137160484Y-97720946D01*
X137112509Y-97771742D01*
X137044688Y-97788536D01*
X136978553Y-97765998D01*
X136939516Y-97720946D01*
X136935050Y-97712182D01*
X136810109Y-97540213D01*
X136659786Y-97389890D01*
X136487820Y-97264951D01*
X136298414Y-97168444D01*
X136298413Y-97168443D01*
X136298412Y-97168443D01*
X136096243Y-97102754D01*
X136096241Y-97102753D01*
X136096240Y-97102753D01*
X135934957Y-97077208D01*
X135886287Y-97069500D01*
X135673713Y-97069500D01*
X135625042Y-97077208D01*
X135463760Y-97102753D01*
X135261585Y-97168444D01*
X135072179Y-97264951D01*
X134900213Y-97389890D01*
X134749890Y-97540213D01*
X134624949Y-97712182D01*
X134620484Y-97720946D01*
X134572509Y-97771742D01*
X134504688Y-97788536D01*
X134438553Y-97765998D01*
X134399516Y-97720946D01*
X134395050Y-97712182D01*
X134270109Y-97540213D01*
X134119786Y-97389890D01*
X133947820Y-97264951D01*
X133758414Y-97168444D01*
X133758413Y-97168443D01*
X133758412Y-97168443D01*
X133556243Y-97102754D01*
X133556241Y-97102753D01*
X133556240Y-97102753D01*
X133394957Y-97077208D01*
X133346287Y-97069500D01*
X133133713Y-97069500D01*
X133085042Y-97077208D01*
X132923760Y-97102753D01*
X132721585Y-97168444D01*
X132532179Y-97264951D01*
X132360213Y-97389890D01*
X132209890Y-97540213D01*
X132084949Y-97712182D01*
X132080484Y-97720946D01*
X132032509Y-97771742D01*
X131964688Y-97788536D01*
X131898553Y-97765998D01*
X131859516Y-97720946D01*
X131855050Y-97712182D01*
X131730109Y-97540213D01*
X131579786Y-97389890D01*
X131407820Y-97264951D01*
X131218414Y-97168444D01*
X131218413Y-97168443D01*
X131218412Y-97168443D01*
X131016243Y-97102754D01*
X131016241Y-97102753D01*
X131016240Y-97102753D01*
X130854957Y-97077208D01*
X130806287Y-97069500D01*
X130593713Y-97069500D01*
X130545042Y-97077208D01*
X130383760Y-97102753D01*
X130181585Y-97168444D01*
X129992179Y-97264951D01*
X129820213Y-97389890D01*
X129669890Y-97540213D01*
X129544949Y-97712182D01*
X129540484Y-97720946D01*
X129492509Y-97771742D01*
X129424688Y-97788536D01*
X129358553Y-97765998D01*
X129319516Y-97720946D01*
X129315050Y-97712182D01*
X129190109Y-97540213D01*
X129039786Y-97389890D01*
X128867820Y-97264951D01*
X128678414Y-97168444D01*
X128678413Y-97168443D01*
X128678412Y-97168443D01*
X128476243Y-97102754D01*
X128476241Y-97102753D01*
X128476240Y-97102753D01*
X128314957Y-97077208D01*
X128266287Y-97069500D01*
X128053713Y-97069500D01*
X128005042Y-97077208D01*
X127843760Y-97102753D01*
X127641585Y-97168444D01*
X127452179Y-97264951D01*
X127280213Y-97389890D01*
X127129890Y-97540213D01*
X127004949Y-97712182D01*
X127000484Y-97720946D01*
X126952509Y-97771742D01*
X126884688Y-97788536D01*
X126818553Y-97765998D01*
X126779516Y-97720946D01*
X126775050Y-97712182D01*
X126650109Y-97540213D01*
X126499786Y-97389890D01*
X126327820Y-97264951D01*
X126138414Y-97168444D01*
X126138413Y-97168443D01*
X126138412Y-97168443D01*
X125936243Y-97102754D01*
X125936241Y-97102753D01*
X125936240Y-97102753D01*
X125774957Y-97077208D01*
X125726287Y-97069500D01*
X125513713Y-97069500D01*
X125465042Y-97077208D01*
X125303760Y-97102753D01*
X125101585Y-97168444D01*
X124912179Y-97264951D01*
X124740213Y-97389890D01*
X124589890Y-97540213D01*
X124464951Y-97712179D01*
X124368444Y-97901585D01*
X124302753Y-98103760D01*
X124269500Y-98313713D01*
X124269500Y-98526286D01*
X124302735Y-98736127D01*
X124302754Y-98736243D01*
X124309728Y-98757708D01*
X124368444Y-98938414D01*
X124464951Y-99127820D01*
X124589890Y-99299786D01*
X124740213Y-99450109D01*
X124912179Y-99575048D01*
X124912181Y-99575049D01*
X124912184Y-99575051D01*
X125101588Y-99671557D01*
X125303757Y-99737246D01*
X125513713Y-99770500D01*
X125513714Y-99770500D01*
X125726286Y-99770500D01*
X125726287Y-99770500D01*
X125936243Y-99737246D01*
X126138412Y-99671557D01*
X126327816Y-99575051D01*
X126382572Y-99535269D01*
X126499786Y-99450109D01*
X126499788Y-99450106D01*
X126499792Y-99450104D01*
X126650104Y-99299792D01*
X126650106Y-99299788D01*
X126650109Y-99299786D01*
X126775048Y-99127820D01*
X126775047Y-99127820D01*
X126775051Y-99127816D01*
X126779514Y-99119054D01*
X126827488Y-99068259D01*
X126895308Y-99051463D01*
X126961444Y-99073999D01*
X127000486Y-99119056D01*
X127004951Y-99127820D01*
X127129890Y-99299786D01*
X127280213Y-99450109D01*
X127452179Y-99575048D01*
X127452181Y-99575049D01*
X127452184Y-99575051D01*
X127641588Y-99671557D01*
X127843757Y-99737246D01*
X128053713Y-99770500D01*
X128053714Y-99770500D01*
X128266286Y-99770500D01*
X128266287Y-99770500D01*
X128476243Y-99737246D01*
X128678412Y-99671557D01*
X128867816Y-99575051D01*
X128922572Y-99535269D01*
X129039786Y-99450109D01*
X129039788Y-99450106D01*
X129039792Y-99450104D01*
X129190104Y-99299792D01*
X129190106Y-99299788D01*
X129190109Y-99299786D01*
X129315048Y-99127820D01*
X129315047Y-99127820D01*
X129315051Y-99127816D01*
X129319514Y-99119054D01*
X129367488Y-99068259D01*
X129435308Y-99051463D01*
X129501444Y-99073999D01*
X129540486Y-99119056D01*
X129544951Y-99127820D01*
X129669890Y-99299786D01*
X129820213Y-99450109D01*
X129992179Y-99575048D01*
X129992181Y-99575049D01*
X129992184Y-99575051D01*
X130181588Y-99671557D01*
X130383757Y-99737246D01*
X130593713Y-99770500D01*
X130593714Y-99770500D01*
X130806286Y-99770500D01*
X130806287Y-99770500D01*
X131016243Y-99737246D01*
X131218412Y-99671557D01*
X131407816Y-99575051D01*
X131462572Y-99535269D01*
X131579786Y-99450109D01*
X131579788Y-99450106D01*
X131579792Y-99450104D01*
X131730104Y-99299792D01*
X131730106Y-99299788D01*
X131730109Y-99299786D01*
X131855048Y-99127820D01*
X131855047Y-99127820D01*
X131855051Y-99127816D01*
X131859514Y-99119054D01*
X131907488Y-99068259D01*
X131975308Y-99051463D01*
X132041444Y-99073999D01*
X132080486Y-99119056D01*
X132084951Y-99127820D01*
X132209890Y-99299786D01*
X132360213Y-99450109D01*
X132532179Y-99575048D01*
X132532181Y-99575049D01*
X132532184Y-99575051D01*
X132721588Y-99671557D01*
X132923757Y-99737246D01*
X133133713Y-99770500D01*
X133133714Y-99770500D01*
X133346286Y-99770500D01*
X133346287Y-99770500D01*
X133556243Y-99737246D01*
X133758412Y-99671557D01*
X133947816Y-99575051D01*
X134002572Y-99535269D01*
X134119786Y-99450109D01*
X134119788Y-99450106D01*
X134119792Y-99450104D01*
X134270104Y-99299792D01*
X134270106Y-99299788D01*
X134270109Y-99299786D01*
X134395048Y-99127820D01*
X134395047Y-99127820D01*
X134395051Y-99127816D01*
X134399514Y-99119054D01*
X134447488Y-99068259D01*
X134515308Y-99051463D01*
X134581444Y-99073999D01*
X134620486Y-99119056D01*
X134624951Y-99127820D01*
X134749890Y-99299786D01*
X134900213Y-99450109D01*
X135072179Y-99575048D01*
X135072181Y-99575049D01*
X135072184Y-99575051D01*
X135261588Y-99671557D01*
X135463757Y-99737246D01*
X135673713Y-99770500D01*
X135673714Y-99770500D01*
X135886286Y-99770500D01*
X135886287Y-99770500D01*
X136096243Y-99737246D01*
X136298412Y-99671557D01*
X136487816Y-99575051D01*
X136542572Y-99535269D01*
X136659786Y-99450109D01*
X136659788Y-99450106D01*
X136659792Y-99450104D01*
X136810104Y-99299792D01*
X136810106Y-99299788D01*
X136810109Y-99299786D01*
X136935048Y-99127820D01*
X136935047Y-99127820D01*
X136935051Y-99127816D01*
X136939514Y-99119054D01*
X136987488Y-99068259D01*
X137055308Y-99051463D01*
X137121444Y-99073999D01*
X137160486Y-99119056D01*
X137164951Y-99127820D01*
X137289890Y-99299786D01*
X137440213Y-99450109D01*
X137612179Y-99575048D01*
X137612181Y-99575049D01*
X137612184Y-99575051D01*
X137801588Y-99671557D01*
X138003757Y-99737246D01*
X138213713Y-99770500D01*
X138213714Y-99770500D01*
X138426286Y-99770500D01*
X138426287Y-99770500D01*
X138636243Y-99737246D01*
X138838412Y-99671557D01*
X139027816Y-99575051D01*
X139082572Y-99535269D01*
X139199786Y-99450109D01*
X139199788Y-99450106D01*
X139199792Y-99450104D01*
X139350104Y-99299792D01*
X139350106Y-99299788D01*
X139350109Y-99299786D01*
X139475048Y-99127820D01*
X139475047Y-99127820D01*
X139475051Y-99127816D01*
X139479514Y-99119054D01*
X139527488Y-99068259D01*
X139595308Y-99051463D01*
X139661444Y-99073999D01*
X139700486Y-99119056D01*
X139704951Y-99127820D01*
X139829890Y-99299786D01*
X139980213Y-99450109D01*
X140152179Y-99575048D01*
X140152181Y-99575049D01*
X140152184Y-99575051D01*
X140341588Y-99671557D01*
X140543757Y-99737246D01*
X140753713Y-99770500D01*
X140753714Y-99770500D01*
X140966286Y-99770500D01*
X140966287Y-99770500D01*
X141176243Y-99737246D01*
X141378412Y-99671557D01*
X141567816Y-99575051D01*
X141622572Y-99535269D01*
X141739786Y-99450109D01*
X141739788Y-99450106D01*
X141739792Y-99450104D01*
X141890104Y-99299792D01*
X141890106Y-99299788D01*
X141890109Y-99299786D01*
X142015048Y-99127820D01*
X142015047Y-99127820D01*
X142015051Y-99127816D01*
X142019514Y-99119054D01*
X142067488Y-99068259D01*
X142135308Y-99051463D01*
X142201444Y-99073999D01*
X142240486Y-99119056D01*
X142244951Y-99127820D01*
X142369890Y-99299786D01*
X142520213Y-99450109D01*
X142692179Y-99575048D01*
X142692181Y-99575049D01*
X142692184Y-99575051D01*
X142881588Y-99671557D01*
X143083757Y-99737246D01*
X143293713Y-99770500D01*
X143293714Y-99770500D01*
X143506286Y-99770500D01*
X143506287Y-99770500D01*
X143716243Y-99737246D01*
X143918412Y-99671557D01*
X144107816Y-99575051D01*
X144162572Y-99535269D01*
X144279786Y-99450109D01*
X144279788Y-99450106D01*
X144279792Y-99450104D01*
X144430104Y-99299792D01*
X144430106Y-99299788D01*
X144430109Y-99299786D01*
X144555048Y-99127820D01*
X144555047Y-99127820D01*
X144555051Y-99127816D01*
X144559514Y-99119054D01*
X144607488Y-99068259D01*
X144675308Y-99051463D01*
X144741444Y-99073999D01*
X144780486Y-99119056D01*
X144784951Y-99127820D01*
X144909890Y-99299786D01*
X145060213Y-99450109D01*
X145232179Y-99575048D01*
X145232181Y-99575049D01*
X145232184Y-99575051D01*
X145421588Y-99671557D01*
X145623757Y-99737246D01*
X145833713Y-99770500D01*
X145833714Y-99770500D01*
X146046286Y-99770500D01*
X146046287Y-99770500D01*
X146256243Y-99737246D01*
X146458412Y-99671557D01*
X146647816Y-99575051D01*
X146702572Y-99535269D01*
X146819786Y-99450109D01*
X146819788Y-99450106D01*
X146819792Y-99450104D01*
X146970104Y-99299792D01*
X146970106Y-99299788D01*
X146970109Y-99299786D01*
X147095048Y-99127820D01*
X147095047Y-99127820D01*
X147095051Y-99127816D01*
X147099514Y-99119054D01*
X147147488Y-99068259D01*
X147215308Y-99051463D01*
X147281444Y-99073999D01*
X147320486Y-99119056D01*
X147324951Y-99127820D01*
X147449890Y-99299786D01*
X147600213Y-99450109D01*
X147772179Y-99575048D01*
X147772181Y-99575049D01*
X147772184Y-99575051D01*
X147961588Y-99671557D01*
X148163757Y-99737246D01*
X148373713Y-99770500D01*
X148373714Y-99770500D01*
X148586286Y-99770500D01*
X148586287Y-99770500D01*
X148796243Y-99737246D01*
X148998412Y-99671557D01*
X149187816Y-99575051D01*
X149242572Y-99535269D01*
X149359786Y-99450109D01*
X149359788Y-99450106D01*
X149359792Y-99450104D01*
X149510104Y-99299792D01*
X149510106Y-99299788D01*
X149510109Y-99299786D01*
X149635048Y-99127820D01*
X149635047Y-99127820D01*
X149635051Y-99127816D01*
X149639514Y-99119054D01*
X149687488Y-99068259D01*
X149755308Y-99051463D01*
X149821444Y-99073999D01*
X149860486Y-99119056D01*
X149864951Y-99127820D01*
X149989890Y-99299786D01*
X150140213Y-99450109D01*
X150312179Y-99575048D01*
X150312181Y-99575049D01*
X150312184Y-99575051D01*
X150501588Y-99671557D01*
X150703757Y-99737246D01*
X150913713Y-99770500D01*
X150913714Y-99770500D01*
X151126286Y-99770500D01*
X151126287Y-99770500D01*
X151336243Y-99737246D01*
X151538412Y-99671557D01*
X151727816Y-99575051D01*
X151782572Y-99535269D01*
X151899786Y-99450109D01*
X151899788Y-99450106D01*
X151899792Y-99450104D01*
X152050104Y-99299792D01*
X152050106Y-99299788D01*
X152050109Y-99299786D01*
X152175048Y-99127820D01*
X152175047Y-99127820D01*
X152175051Y-99127816D01*
X152179514Y-99119054D01*
X152227488Y-99068259D01*
X152295308Y-99051463D01*
X152361444Y-99073999D01*
X152400486Y-99119056D01*
X152404951Y-99127820D01*
X152529890Y-99299786D01*
X152680213Y-99450109D01*
X152852179Y-99575048D01*
X152852181Y-99575049D01*
X152852184Y-99575051D01*
X153041588Y-99671557D01*
X153243757Y-99737246D01*
X153453713Y-99770500D01*
X153453714Y-99770500D01*
X153666286Y-99770500D01*
X153666287Y-99770500D01*
X153876243Y-99737246D01*
X154078412Y-99671557D01*
X154267816Y-99575051D01*
X154322572Y-99535269D01*
X154439786Y-99450109D01*
X154439788Y-99450106D01*
X154439792Y-99450104D01*
X154590104Y-99299792D01*
X154590106Y-99299788D01*
X154590109Y-99299786D01*
X154715048Y-99127820D01*
X154715047Y-99127820D01*
X154715051Y-99127816D01*
X154719514Y-99119054D01*
X154767488Y-99068259D01*
X154835308Y-99051463D01*
X154901444Y-99073999D01*
X154940486Y-99119056D01*
X154944951Y-99127820D01*
X155069890Y-99299786D01*
X155220213Y-99450109D01*
X155392179Y-99575048D01*
X155392181Y-99575049D01*
X155392184Y-99575051D01*
X155581588Y-99671557D01*
X155783757Y-99737246D01*
X155993713Y-99770500D01*
X155993714Y-99770500D01*
X156206286Y-99770500D01*
X156206287Y-99770500D01*
X156416243Y-99737246D01*
X156618412Y-99671557D01*
X156807816Y-99575051D01*
X156862572Y-99535269D01*
X156979786Y-99450109D01*
X156979788Y-99450106D01*
X156979792Y-99450104D01*
X157130104Y-99299792D01*
X157130106Y-99299788D01*
X157130109Y-99299786D01*
X157255048Y-99127820D01*
X157255047Y-99127820D01*
X157255051Y-99127816D01*
X157259514Y-99119054D01*
X157307488Y-99068259D01*
X157375308Y-99051463D01*
X157441444Y-99073999D01*
X157480486Y-99119056D01*
X157484951Y-99127820D01*
X157609890Y-99299786D01*
X157760213Y-99450109D01*
X157932179Y-99575048D01*
X157932181Y-99575049D01*
X157932184Y-99575051D01*
X158121588Y-99671557D01*
X158323757Y-99737246D01*
X158533713Y-99770500D01*
X158533714Y-99770500D01*
X158746286Y-99770500D01*
X158746287Y-99770500D01*
X158956243Y-99737246D01*
X159158412Y-99671557D01*
X159347816Y-99575051D01*
X159402572Y-99535269D01*
X159519786Y-99450109D01*
X159519788Y-99450106D01*
X159519792Y-99450104D01*
X159670104Y-99299792D01*
X159670106Y-99299788D01*
X159670109Y-99299786D01*
X159795048Y-99127820D01*
X159795047Y-99127820D01*
X159795051Y-99127816D01*
X159799514Y-99119054D01*
X159847488Y-99068259D01*
X159915308Y-99051463D01*
X159981444Y-99073999D01*
X160020486Y-99119056D01*
X160024951Y-99127820D01*
X160149890Y-99299786D01*
X160300213Y-99450109D01*
X160472179Y-99575048D01*
X160472181Y-99575049D01*
X160472184Y-99575051D01*
X160661588Y-99671557D01*
X160863757Y-99737246D01*
X161073713Y-99770500D01*
X161073714Y-99770500D01*
X161286286Y-99770500D01*
X161286287Y-99770500D01*
X161496243Y-99737246D01*
X161698412Y-99671557D01*
X161887816Y-99575051D01*
X161942572Y-99535269D01*
X162059786Y-99450109D01*
X162059788Y-99450106D01*
X162059792Y-99450104D01*
X162210104Y-99299792D01*
X162210106Y-99299788D01*
X162210109Y-99299786D01*
X162335048Y-99127820D01*
X162335047Y-99127820D01*
X162335051Y-99127816D01*
X162339514Y-99119054D01*
X162387488Y-99068259D01*
X162455308Y-99051463D01*
X162521444Y-99073999D01*
X162560486Y-99119056D01*
X162564951Y-99127820D01*
X162689890Y-99299786D01*
X162840213Y-99450109D01*
X163012179Y-99575048D01*
X163012181Y-99575049D01*
X163012184Y-99575051D01*
X163201588Y-99671557D01*
X163403757Y-99737246D01*
X163613713Y-99770500D01*
X163613714Y-99770500D01*
X163826286Y-99770500D01*
X163826287Y-99770500D01*
X164036243Y-99737246D01*
X164238412Y-99671557D01*
X164427816Y-99575051D01*
X164482572Y-99535269D01*
X164599786Y-99450109D01*
X164599788Y-99450106D01*
X164599792Y-99450104D01*
X164750104Y-99299792D01*
X164750106Y-99299788D01*
X164750109Y-99299786D01*
X164875048Y-99127820D01*
X164875047Y-99127820D01*
X164875051Y-99127816D01*
X164879514Y-99119054D01*
X164927488Y-99068259D01*
X164995308Y-99051463D01*
X165061444Y-99073999D01*
X165100486Y-99119056D01*
X165104951Y-99127820D01*
X165229890Y-99299786D01*
X165380213Y-99450109D01*
X165552179Y-99575048D01*
X165552181Y-99575049D01*
X165552184Y-99575051D01*
X165741588Y-99671557D01*
X165943757Y-99737246D01*
X166153713Y-99770500D01*
X166153714Y-99770500D01*
X166366286Y-99770500D01*
X166366287Y-99770500D01*
X166576243Y-99737246D01*
X166778412Y-99671557D01*
X166967816Y-99575051D01*
X167022572Y-99535269D01*
X167139786Y-99450109D01*
X167139788Y-99450106D01*
X167139792Y-99450104D01*
X167290104Y-99299792D01*
X167290106Y-99299788D01*
X167290109Y-99299786D01*
X167415048Y-99127820D01*
X167415047Y-99127820D01*
X167415051Y-99127816D01*
X167419514Y-99119054D01*
X167467488Y-99068259D01*
X167535308Y-99051463D01*
X167601444Y-99073999D01*
X167640486Y-99119056D01*
X167644951Y-99127820D01*
X167769890Y-99299786D01*
X167920213Y-99450109D01*
X168092179Y-99575048D01*
X168092181Y-99575049D01*
X168092184Y-99575051D01*
X168281588Y-99671557D01*
X168483757Y-99737246D01*
X168693713Y-99770500D01*
X168693714Y-99770500D01*
X168906286Y-99770500D01*
X168906287Y-99770500D01*
X169116243Y-99737246D01*
X169318412Y-99671557D01*
X169507816Y-99575051D01*
X169562572Y-99535269D01*
X169679786Y-99450109D01*
X169679788Y-99450106D01*
X169679792Y-99450104D01*
X169830104Y-99299792D01*
X169830106Y-99299788D01*
X169830109Y-99299786D01*
X169955048Y-99127820D01*
X169955047Y-99127820D01*
X169955051Y-99127816D01*
X169959514Y-99119054D01*
X170007488Y-99068259D01*
X170075308Y-99051463D01*
X170141444Y-99073999D01*
X170180486Y-99119056D01*
X170184951Y-99127820D01*
X170309890Y-99299786D01*
X170460213Y-99450109D01*
X170632179Y-99575048D01*
X170632181Y-99575049D01*
X170632184Y-99575051D01*
X170821588Y-99671557D01*
X171023757Y-99737246D01*
X171233713Y-99770500D01*
X171233714Y-99770500D01*
X171446286Y-99770500D01*
X171446287Y-99770500D01*
X171656243Y-99737246D01*
X171858412Y-99671557D01*
X172047816Y-99575051D01*
X172102572Y-99535269D01*
X172219786Y-99450109D01*
X172219788Y-99450106D01*
X172219792Y-99450104D01*
X172370104Y-99299792D01*
X172370106Y-99299788D01*
X172370109Y-99299786D01*
X172455890Y-99181717D01*
X172495051Y-99127816D01*
X172499793Y-99118508D01*
X172547763Y-99067711D01*
X172615583Y-99050911D01*
X172681719Y-99073445D01*
X172720763Y-99118500D01*
X172725373Y-99127547D01*
X172764728Y-99181716D01*
X173356212Y-98590233D01*
X173367482Y-98632292D01*
X173439890Y-98757708D01*
X173542292Y-98860110D01*
X173667708Y-98932518D01*
X173709765Y-98943787D01*
X173118282Y-99535269D01*
X173118282Y-99535270D01*
X173172449Y-99574624D01*
X173361782Y-99671095D01*
X173563870Y-99736757D01*
X173773754Y-99770000D01*
X173986246Y-99770000D01*
X174196127Y-99736757D01*
X174196130Y-99736757D01*
X174398217Y-99671095D01*
X174587554Y-99574622D01*
X174641716Y-99535270D01*
X174641717Y-99535270D01*
X174050233Y-98943787D01*
X174092292Y-98932518D01*
X174217708Y-98860110D01*
X174320110Y-98757708D01*
X174392518Y-98632292D01*
X174403787Y-98590234D01*
X174995270Y-99181717D01*
X174995270Y-99181716D01*
X175034622Y-99127554D01*
X175131095Y-98938217D01*
X175196757Y-98736130D01*
X175196757Y-98736127D01*
X175230000Y-98526246D01*
X175230000Y-98313753D01*
X175196757Y-98103872D01*
X175196757Y-98103869D01*
X175131095Y-97901782D01*
X175034624Y-97712449D01*
X174995270Y-97658282D01*
X174995269Y-97658282D01*
X174403787Y-98249765D01*
X174392518Y-98207708D01*
X174320110Y-98082292D01*
X174217708Y-97979890D01*
X174092292Y-97907482D01*
X174050233Y-97896212D01*
X174641716Y-97304728D01*
X174587550Y-97265375D01*
X174398217Y-97168904D01*
X174196129Y-97103242D01*
X173986246Y-97070000D01*
X173773754Y-97070000D01*
X173563872Y-97103242D01*
X173563869Y-97103242D01*
X173361782Y-97168904D01*
X173172439Y-97265380D01*
X173118282Y-97304727D01*
X173118282Y-97304728D01*
X173709766Y-97896212D01*
X173667708Y-97907482D01*
X173542292Y-97979890D01*
X173439890Y-98082292D01*
X173367482Y-98207708D01*
X173356212Y-98249766D01*
X172764728Y-97658282D01*
X172764727Y-97658282D01*
X172725380Y-97712440D01*
X172725376Y-97712446D01*
X172720760Y-97721505D01*
X172672781Y-97772297D01*
X172604959Y-97789087D01*
X172538826Y-97766543D01*
X172499794Y-97721493D01*
X172495051Y-97712184D01*
X172495049Y-97712181D01*
X172495048Y-97712179D01*
X172370109Y-97540213D01*
X172219786Y-97389890D01*
X172047820Y-97264951D01*
X171858414Y-97168444D01*
X171858413Y-97168443D01*
X171858412Y-97168443D01*
X171656243Y-97102754D01*
X171656241Y-97102753D01*
X171656240Y-97102753D01*
X171494957Y-97077208D01*
X171446287Y-97069500D01*
X171233713Y-97069500D01*
X171205006Y-97074046D01*
X171023757Y-97102753D01*
X170956666Y-97124552D01*
X170886825Y-97126546D01*
X170830669Y-97094301D01*
X164547485Y-90811116D01*
X164463855Y-90727486D01*
X167099500Y-90727486D01*
X167099500Y-91022513D01*
X167110910Y-91109174D01*
X167138007Y-91314993D01*
X167167483Y-91425000D01*
X167214361Y-91599951D01*
X167214364Y-91599961D01*
X167327254Y-91872500D01*
X167327258Y-91872510D01*
X167474761Y-92127993D01*
X167654352Y-92362040D01*
X167654358Y-92362047D01*
X167862952Y-92570641D01*
X167862959Y-92570647D01*
X168097006Y-92750238D01*
X168352489Y-92897741D01*
X168352490Y-92897741D01*
X168352493Y-92897743D01*
X168625048Y-93010639D01*
X168910007Y-93086993D01*
X169202494Y-93125500D01*
X169202501Y-93125500D01*
X169497499Y-93125500D01*
X169497506Y-93125500D01*
X169789993Y-93086993D01*
X170074952Y-93010639D01*
X170347507Y-92897743D01*
X170602994Y-92750238D01*
X170837042Y-92570646D01*
X171045646Y-92362042D01*
X171225238Y-92127994D01*
X171372743Y-91872507D01*
X171485639Y-91599952D01*
X171561993Y-91314993D01*
X171600500Y-91022506D01*
X171600500Y-90727494D01*
X171561993Y-90435007D01*
X171485639Y-90150048D01*
X171483502Y-90144890D01*
X171410153Y-89967809D01*
X171372743Y-89877493D01*
X171324989Y-89794781D01*
X171225238Y-89622006D01*
X171045647Y-89387959D01*
X171045641Y-89387952D01*
X170837047Y-89179358D01*
X170837040Y-89179352D01*
X170602993Y-88999761D01*
X170347510Y-88852258D01*
X170347500Y-88852254D01*
X170074961Y-88739364D01*
X170074954Y-88739362D01*
X170074952Y-88739361D01*
X169789993Y-88663007D01*
X169741113Y-88656571D01*
X169497513Y-88624500D01*
X169497506Y-88624500D01*
X169202494Y-88624500D01*
X169202486Y-88624500D01*
X168924085Y-88661153D01*
X168910007Y-88663007D01*
X168625048Y-88739361D01*
X168625038Y-88739364D01*
X168352499Y-88852254D01*
X168352489Y-88852258D01*
X168097006Y-88999761D01*
X167862959Y-89179352D01*
X167862952Y-89179358D01*
X167654358Y-89387952D01*
X167654352Y-89387959D01*
X167474761Y-89622006D01*
X167327258Y-89877489D01*
X167327254Y-89877499D01*
X167214364Y-90150038D01*
X167214361Y-90150048D01*
X167175570Y-90294821D01*
X167138008Y-90435004D01*
X167138006Y-90435015D01*
X167099500Y-90727486D01*
X164463855Y-90727486D01*
X161328421Y-87592052D01*
X161328414Y-87592046D01*
X161254729Y-87542812D01*
X161254729Y-87542813D01*
X161205491Y-87509913D01*
X161068917Y-87453343D01*
X161068907Y-87453340D01*
X160923920Y-87424500D01*
X160923918Y-87424500D01*
X125512229Y-87424500D01*
X125445190Y-87404815D01*
X125424548Y-87388181D01*
X124661819Y-86625451D01*
X124628334Y-86564128D01*
X124625500Y-86537770D01*
X124625500Y-84369508D01*
X124645185Y-84302469D01*
X124697989Y-84256714D01*
X124767147Y-84246770D01*
X124822386Y-84269190D01*
X124912445Y-84334622D01*
X125101782Y-84431095D01*
X125303870Y-84496757D01*
X125513754Y-84530000D01*
X125726246Y-84530000D01*
X125936127Y-84496757D01*
X125936130Y-84496757D01*
X126138217Y-84431095D01*
X126327554Y-84334622D01*
X126381716Y-84295270D01*
X126381717Y-84295270D01*
X125790234Y-83703787D01*
X125832292Y-83692518D01*
X125957708Y-83620110D01*
X126060110Y-83517708D01*
X126132518Y-83392292D01*
X126143787Y-83350233D01*
X126735270Y-83941717D01*
X126735270Y-83941716D01*
X126774622Y-83887555D01*
X126779232Y-83878507D01*
X126827205Y-83827709D01*
X126895025Y-83810912D01*
X126961161Y-83833447D01*
X127000204Y-83878504D01*
X127004949Y-83887817D01*
X127129890Y-84059786D01*
X127280213Y-84210109D01*
X127452179Y-84335048D01*
X127452181Y-84335049D01*
X127452184Y-84335051D01*
X127641588Y-84431557D01*
X127843757Y-84497246D01*
X128053713Y-84530500D01*
X128053714Y-84530500D01*
X128266286Y-84530500D01*
X128266287Y-84530500D01*
X128476243Y-84497246D01*
X128678412Y-84431557D01*
X128867816Y-84335051D01*
X128954138Y-84272335D01*
X129039786Y-84210109D01*
X129039788Y-84210106D01*
X129039792Y-84210104D01*
X129190104Y-84059792D01*
X129190106Y-84059788D01*
X129190109Y-84059786D01*
X129315048Y-83887820D01*
X129315050Y-83887817D01*
X129315051Y-83887816D01*
X129319514Y-83879054D01*
X129367488Y-83828259D01*
X129435308Y-83811463D01*
X129501444Y-83833999D01*
X129540486Y-83879056D01*
X129544951Y-83887820D01*
X129669890Y-84059786D01*
X129820213Y-84210109D01*
X129992179Y-84335048D01*
X129992181Y-84335049D01*
X129992184Y-84335051D01*
X130181588Y-84431557D01*
X130383757Y-84497246D01*
X130593713Y-84530500D01*
X130593714Y-84530500D01*
X130806286Y-84530500D01*
X130806287Y-84530500D01*
X131016243Y-84497246D01*
X131218412Y-84431557D01*
X131407816Y-84335051D01*
X131494138Y-84272335D01*
X131579786Y-84210109D01*
X131579788Y-84210106D01*
X131579792Y-84210104D01*
X131730104Y-84059792D01*
X131730106Y-84059788D01*
X131730109Y-84059786D01*
X131855048Y-83887820D01*
X131855050Y-83887817D01*
X131855051Y-83887816D01*
X131859514Y-83879054D01*
X131907488Y-83828259D01*
X131975308Y-83811463D01*
X132041444Y-83833999D01*
X132080486Y-83879056D01*
X132084951Y-83887820D01*
X132209890Y-84059786D01*
X132360213Y-84210109D01*
X132532179Y-84335048D01*
X132532181Y-84335049D01*
X132532184Y-84335051D01*
X132721588Y-84431557D01*
X132923757Y-84497246D01*
X133133713Y-84530500D01*
X133133714Y-84530500D01*
X133346286Y-84530500D01*
X133346287Y-84530500D01*
X133556243Y-84497246D01*
X133758412Y-84431557D01*
X133947816Y-84335051D01*
X134034138Y-84272335D01*
X134119786Y-84210109D01*
X134119788Y-84210106D01*
X134119792Y-84210104D01*
X134270104Y-84059792D01*
X134270106Y-84059788D01*
X134270109Y-84059786D01*
X134395048Y-83887820D01*
X134395050Y-83887817D01*
X134395051Y-83887816D01*
X134399514Y-83879054D01*
X134447488Y-83828259D01*
X134515308Y-83811463D01*
X134581444Y-83833999D01*
X134620486Y-83879056D01*
X134624951Y-83887820D01*
X134749890Y-84059786D01*
X134900213Y-84210109D01*
X135072179Y-84335048D01*
X135072181Y-84335049D01*
X135072184Y-84335051D01*
X135261588Y-84431557D01*
X135463757Y-84497246D01*
X135673713Y-84530500D01*
X135673714Y-84530500D01*
X135886286Y-84530500D01*
X135886287Y-84530500D01*
X136096243Y-84497246D01*
X136111840Y-84492177D01*
X136181679Y-84490183D01*
X136237838Y-84522428D01*
X138464139Y-86748729D01*
X138464142Y-86748733D01*
X138551267Y-86835858D01*
X138602490Y-86870084D01*
X138653714Y-86904312D01*
X138653715Y-86904312D01*
X138653716Y-86904313D01*
X138727390Y-86934829D01*
X138727394Y-86934830D01*
X138734207Y-86937652D01*
X138767548Y-86951463D01*
X138827971Y-86963481D01*
X138888393Y-86975500D01*
X165636607Y-86975500D01*
X165697029Y-86963481D01*
X165757452Y-86951463D01*
X165790792Y-86937652D01*
X165871286Y-86904312D01*
X165922509Y-86870084D01*
X165973733Y-86835858D01*
X166060858Y-86748733D01*
X166060859Y-86748731D01*
X166067925Y-86741665D01*
X166067928Y-86741661D01*
X167973729Y-84835860D01*
X167973733Y-84835858D01*
X168060858Y-84748733D01*
X168095084Y-84697509D01*
X168129312Y-84646286D01*
X168176463Y-84532451D01*
X168176465Y-84532438D01*
X168177041Y-84530543D01*
X168177620Y-84529658D01*
X168178795Y-84526823D01*
X168179332Y-84527045D01*
X168215332Y-84472100D01*
X168279141Y-84443636D01*
X168334021Y-84448593D01*
X168483757Y-84497246D01*
X168693713Y-84530500D01*
X168693714Y-84530500D01*
X168906286Y-84530500D01*
X168906287Y-84530500D01*
X169116243Y-84497246D01*
X169318412Y-84431557D01*
X169507816Y-84335051D01*
X169594138Y-84272335D01*
X169679786Y-84210109D01*
X169679788Y-84210106D01*
X169679792Y-84210104D01*
X169830104Y-84059792D01*
X169830106Y-84059788D01*
X169830109Y-84059786D01*
X169955048Y-83887820D01*
X169955050Y-83887817D01*
X169955051Y-83887816D01*
X169959514Y-83879054D01*
X170007488Y-83828259D01*
X170075308Y-83811463D01*
X170141444Y-83833999D01*
X170180486Y-83879056D01*
X170184951Y-83887820D01*
X170309890Y-84059786D01*
X170460213Y-84210109D01*
X170632179Y-84335048D01*
X170632181Y-84335049D01*
X170632184Y-84335051D01*
X170821588Y-84431557D01*
X171023757Y-84497246D01*
X171233713Y-84530500D01*
X171233714Y-84530500D01*
X171446286Y-84530500D01*
X171446287Y-84530500D01*
X171656243Y-84497246D01*
X171858412Y-84431557D01*
X172047816Y-84335051D01*
X172138467Y-84269190D01*
X172219784Y-84210110D01*
X172219784Y-84210109D01*
X172219792Y-84210104D01*
X172333329Y-84096566D01*
X172394648Y-84063084D01*
X172464340Y-84068068D01*
X172520274Y-84109939D01*
X172537189Y-84140917D01*
X172586202Y-84272328D01*
X172586206Y-84272335D01*
X172672452Y-84387544D01*
X172672455Y-84387547D01*
X172787664Y-84473793D01*
X172787671Y-84473797D01*
X172922517Y-84524091D01*
X172922516Y-84524091D01*
X172929444Y-84524835D01*
X172982127Y-84530500D01*
X174777872Y-84530499D01*
X174837483Y-84524091D01*
X174972331Y-84473796D01*
X175087546Y-84387546D01*
X175173796Y-84272331D01*
X175224091Y-84137483D01*
X175230500Y-84077873D01*
X175230499Y-82282128D01*
X175224091Y-82222517D01*
X175222810Y-82219083D01*
X175173797Y-82087671D01*
X175173793Y-82087664D01*
X175087547Y-81972455D01*
X175087544Y-81972452D01*
X174972335Y-81886206D01*
X174972328Y-81886202D01*
X174837482Y-81835908D01*
X174837483Y-81835908D01*
X174777883Y-81829501D01*
X174777881Y-81829500D01*
X174777873Y-81829500D01*
X174777864Y-81829500D01*
X172982129Y-81829500D01*
X172982123Y-81829501D01*
X172922516Y-81835908D01*
X172787671Y-81886202D01*
X172787664Y-81886206D01*
X172672455Y-81972452D01*
X172672452Y-81972455D01*
X172586206Y-82087664D01*
X172586203Y-82087669D01*
X172537189Y-82219083D01*
X172495317Y-82275016D01*
X172429853Y-82299433D01*
X172361580Y-82284581D01*
X172333326Y-82263430D01*
X172219786Y-82149890D01*
X172047820Y-82024951D01*
X171858414Y-81928444D01*
X171858413Y-81928443D01*
X171858412Y-81928443D01*
X171656243Y-81862754D01*
X171656241Y-81862753D01*
X171656240Y-81862753D01*
X171494957Y-81837208D01*
X171446287Y-81829500D01*
X171233713Y-81829500D01*
X171185042Y-81837208D01*
X171023760Y-81862753D01*
X170821585Y-81928444D01*
X170632179Y-82024951D01*
X170460213Y-82149890D01*
X170309890Y-82300213D01*
X170184949Y-82472182D01*
X170180484Y-82480946D01*
X170132509Y-82531742D01*
X170064688Y-82548536D01*
X169998553Y-82525998D01*
X169959516Y-82480946D01*
X169955050Y-82472182D01*
X169830109Y-82300213D01*
X169679786Y-82149890D01*
X169507820Y-82024951D01*
X169318414Y-81928444D01*
X169318413Y-81928443D01*
X169318412Y-81928443D01*
X169116243Y-81862754D01*
X169116241Y-81862753D01*
X169116240Y-81862753D01*
X168954957Y-81837208D01*
X168906287Y-81829500D01*
X168693713Y-81829500D01*
X168654202Y-81835757D01*
X168483759Y-81862753D01*
X168483755Y-81862754D01*
X168362817Y-81902049D01*
X168292976Y-81904044D01*
X168233144Y-81867963D01*
X168202316Y-81805262D01*
X168200500Y-81784118D01*
X168200500Y-77388393D01*
X168200499Y-77388389D01*
X168195097Y-77361232D01*
X168176463Y-77267548D01*
X168129311Y-77153714D01*
X168129310Y-77153713D01*
X168129307Y-77153707D01*
X168060858Y-77051267D01*
X168060855Y-77051263D01*
X167970637Y-76961045D01*
X167970606Y-76961016D01*
X163511818Y-72502228D01*
X163478333Y-72440905D01*
X163475499Y-72414556D01*
X163475499Y-71473499D01*
X163495184Y-71406461D01*
X163547988Y-71360706D01*
X163599499Y-71349500D01*
X164238548Y-71349500D01*
X164267988Y-71358144D01*
X164297975Y-71364668D01*
X164302990Y-71368422D01*
X164305587Y-71369185D01*
X164326229Y-71385819D01*
X164372781Y-71432371D01*
X164406266Y-71493694D01*
X164405785Y-71540416D01*
X164407285Y-71540654D01*
X164374500Y-71747648D01*
X164374500Y-71952351D01*
X164406522Y-72154534D01*
X164469781Y-72349223D01*
X164527153Y-72461819D01*
X164553164Y-72512870D01*
X164562715Y-72531613D01*
X164683028Y-72697213D01*
X164827786Y-72841971D01*
X164964561Y-72941342D01*
X164993390Y-72962287D01*
X165109607Y-73021503D01*
X165175776Y-73055218D01*
X165175778Y-73055218D01*
X165175781Y-73055220D01*
X165266856Y-73084812D01*
X165370465Y-73118477D01*
X165471557Y-73134488D01*
X165572648Y-73150500D01*
X165572649Y-73150500D01*
X165777351Y-73150500D01*
X165777352Y-73150500D01*
X165979534Y-73118477D01*
X166174219Y-73055220D01*
X166356610Y-72962287D01*
X166485482Y-72868657D01*
X166522213Y-72841971D01*
X166522215Y-72841968D01*
X166522219Y-72841966D01*
X166666966Y-72697219D01*
X166666968Y-72697215D01*
X166666971Y-72697213D01*
X166740146Y-72596494D01*
X166787287Y-72531610D01*
X166880220Y-72349219D01*
X166943477Y-72154534D01*
X166975500Y-71952352D01*
X166975500Y-71747648D01*
X166943477Y-71545466D01*
X166941913Y-71540654D01*
X166903357Y-71421989D01*
X166880220Y-71350781D01*
X166880218Y-71350778D01*
X166880218Y-71350776D01*
X166846503Y-71284607D01*
X166787287Y-71168390D01*
X166765339Y-71138181D01*
X166666971Y-71002786D01*
X166522213Y-70858028D01*
X166356613Y-70737715D01*
X166356612Y-70737714D01*
X166356610Y-70737713D01*
X166299653Y-70708691D01*
X166174223Y-70644781D01*
X165979534Y-70581522D01*
X165804995Y-70553878D01*
X165777352Y-70549500D01*
X165572648Y-70549500D01*
X165483051Y-70563691D01*
X165365654Y-70582285D01*
X165365333Y-70580262D01*
X165304120Y-70577149D01*
X165257371Y-70547781D01*
X165044822Y-70335232D01*
X165034859Y-70325269D01*
X165034858Y-70325267D01*
X164947733Y-70238142D01*
X164896509Y-70203915D01*
X164845286Y-70169688D01*
X164845283Y-70169686D01*
X164845280Y-70169685D01*
X164771603Y-70139168D01*
X164771601Y-70139167D01*
X164764792Y-70136347D01*
X164731452Y-70122537D01*
X164671029Y-70110518D01*
X164666306Y-70109578D01*
X164666304Y-70109578D01*
X164610610Y-70098500D01*
X164610607Y-70098500D01*
X164610606Y-70098500D01*
X156776578Y-70098500D01*
X156766954Y-70098500D01*
X156699915Y-70078815D01*
X156679273Y-70062181D01*
X156105041Y-69487950D01*
X156147100Y-69476681D01*
X156272516Y-69404273D01*
X156374918Y-69301871D01*
X156447326Y-69176455D01*
X156458595Y-69134396D01*
X157050078Y-69725880D01*
X157050078Y-69725879D01*
X157089430Y-69671717D01*
X157185903Y-69482380D01*
X157251565Y-69280293D01*
X157251565Y-69280290D01*
X157284808Y-69070409D01*
X157284808Y-68857916D01*
X157251565Y-68648035D01*
X157251565Y-68648032D01*
X157185903Y-68445945D01*
X157089432Y-68256612D01*
X157050078Y-68202445D01*
X157050077Y-68202445D01*
X156458595Y-68793928D01*
X156447326Y-68751871D01*
X156374918Y-68626455D01*
X156272516Y-68524053D01*
X156147100Y-68451645D01*
X156105041Y-68440375D01*
X156696524Y-67848891D01*
X156642355Y-67809536D01*
X156642355Y-67809535D01*
X156633308Y-67804926D01*
X156582514Y-67756951D01*
X156565720Y-67689129D01*
X156588259Y-67622995D01*
X156633316Y-67583956D01*
X156642624Y-67579214D01*
X156761298Y-67492993D01*
X156814594Y-67454272D01*
X156814596Y-67454269D01*
X156814600Y-67454267D01*
X156964912Y-67303955D01*
X156989141Y-67270606D01*
X157076220Y-67150753D01*
X157089856Y-67131983D01*
X157089859Y-67131979D01*
X157186365Y-66942575D01*
X157252054Y-66740406D01*
X157285308Y-66530450D01*
X157285308Y-66317876D01*
X157252054Y-66107920D01*
X157246986Y-66092322D01*
X157246551Y-66077110D01*
X157241233Y-66062850D01*
X157245574Y-66042894D01*
X157244991Y-66022481D01*
X157253079Y-66008394D01*
X157256085Y-65994577D01*
X157277229Y-65966331D01*
X157431744Y-65811816D01*
X157493067Y-65778334D01*
X157519424Y-65775500D01*
X158348885Y-65775500D01*
X158415924Y-65795185D01*
X158448606Y-65828571D01*
X158449849Y-65827669D01*
X158573028Y-65997213D01*
X158717786Y-66141971D01*
X158872749Y-66254556D01*
X158883390Y-66262287D01*
X158999607Y-66321503D01*
X159065776Y-66355218D01*
X159065778Y-66355218D01*
X159065781Y-66355220D01*
X159170137Y-66389127D01*
X159260465Y-66418477D01*
X159361557Y-66434488D01*
X159462648Y-66450500D01*
X159462649Y-66450500D01*
X159667351Y-66450500D01*
X159667352Y-66450500D01*
X159869534Y-66418477D01*
X160064219Y-66355220D01*
X160246610Y-66262287D01*
X160362917Y-66177786D01*
X160412213Y-66141971D01*
X160412215Y-66141968D01*
X160412219Y-66141966D01*
X160556966Y-65997219D01*
X160556968Y-65997215D01*
X160556971Y-65997213D01*
X160623423Y-65905748D01*
X160677287Y-65831610D01*
X160770220Y-65649219D01*
X160833477Y-65454534D01*
X160865500Y-65252352D01*
X160865500Y-65047648D01*
X160841246Y-64894514D01*
X160832715Y-64840654D01*
X160834777Y-64840327D01*
X160837784Y-64779304D01*
X160867215Y-64732373D01*
X161712771Y-63886819D01*
X161774094Y-63853334D01*
X161800452Y-63850500D01*
X166379433Y-63850500D01*
X166446472Y-63870185D01*
X166492227Y-63922989D01*
X166502171Y-63992147D01*
X166473146Y-64055703D01*
X166452318Y-64074819D01*
X166337780Y-64158034D01*
X166193028Y-64302786D01*
X166072715Y-64468386D01*
X165979781Y-64650776D01*
X165916522Y-64845465D01*
X165884500Y-65047648D01*
X165884500Y-65252351D01*
X165916522Y-65454534D01*
X165979781Y-65649223D01*
X166033812Y-65755262D01*
X166066685Y-65819780D01*
X166072715Y-65831613D01*
X166193028Y-65997213D01*
X166337786Y-66141971D01*
X166492749Y-66254556D01*
X166503390Y-66262287D01*
X166619607Y-66321503D01*
X166685776Y-66355218D01*
X166685778Y-66355218D01*
X166685781Y-66355220D01*
X166790137Y-66389127D01*
X166880465Y-66418477D01*
X166981557Y-66434488D01*
X167082648Y-66450500D01*
X167082649Y-66450500D01*
X167287351Y-66450500D01*
X167287352Y-66450500D01*
X167448268Y-66425013D01*
X169650000Y-66425013D01*
X169650000Y-66775000D01*
X170634314Y-66775000D01*
X170629920Y-66779394D01*
X170577259Y-66870606D01*
X170550000Y-66972339D01*
X170550000Y-67077661D01*
X170577259Y-67179394D01*
X170629920Y-67270606D01*
X170634314Y-67275000D01*
X169650001Y-67275000D01*
X169650001Y-67624986D01*
X169660494Y-67727697D01*
X169715641Y-67894119D01*
X169715643Y-67894124D01*
X169807684Y-68043345D01*
X169931654Y-68167315D01*
X170080875Y-68259356D01*
X170080880Y-68259358D01*
X170247302Y-68314505D01*
X170247309Y-68314506D01*
X170350019Y-68324999D01*
X170699999Y-68324999D01*
X170700000Y-68324998D01*
X170700000Y-67340686D01*
X170704394Y-67345080D01*
X170795606Y-67397741D01*
X170897339Y-67425000D01*
X171002661Y-67425000D01*
X171104394Y-67397741D01*
X171195606Y-67345080D01*
X171200000Y-67340686D01*
X171200000Y-68324999D01*
X171549972Y-68324999D01*
X171549986Y-68324998D01*
X171652697Y-68314505D01*
X171819119Y-68259358D01*
X171819124Y-68259356D01*
X171968345Y-68167315D01*
X172092315Y-68043345D01*
X172184356Y-67894124D01*
X172184358Y-67894119D01*
X172239505Y-67727697D01*
X172239506Y-67727690D01*
X172249999Y-67624986D01*
X172250000Y-67624973D01*
X172250000Y-67275000D01*
X171265686Y-67275000D01*
X171270080Y-67270606D01*
X171322741Y-67179394D01*
X171350000Y-67077661D01*
X171350000Y-66972339D01*
X171322741Y-66870606D01*
X171270080Y-66779394D01*
X171265686Y-66775000D01*
X172249999Y-66775000D01*
X172249999Y-66425028D01*
X172249998Y-66425013D01*
X172239505Y-66322302D01*
X172184358Y-66155880D01*
X172184356Y-66155875D01*
X172092315Y-66006654D01*
X171968345Y-65882684D01*
X171819124Y-65790643D01*
X171819119Y-65790641D01*
X171652697Y-65735494D01*
X171652690Y-65735493D01*
X171549986Y-65725000D01*
X171200000Y-65725000D01*
X171200000Y-66709314D01*
X171195606Y-66704920D01*
X171104394Y-66652259D01*
X171002661Y-66625000D01*
X170897339Y-66625000D01*
X170795606Y-66652259D01*
X170704394Y-66704920D01*
X170700000Y-66709314D01*
X170700000Y-65725000D01*
X170350028Y-65725000D01*
X170350012Y-65725001D01*
X170247302Y-65735494D01*
X170080880Y-65790641D01*
X170080875Y-65790643D01*
X169931654Y-65882684D01*
X169807684Y-66006654D01*
X169715643Y-66155875D01*
X169715641Y-66155880D01*
X169660494Y-66322302D01*
X169660493Y-66322309D01*
X169650000Y-66425013D01*
X167448268Y-66425013D01*
X167489534Y-66418477D01*
X167684219Y-66355220D01*
X167707437Y-66343390D01*
X167770262Y-66311379D01*
X167792594Y-66300000D01*
X167866610Y-66262287D01*
X167982917Y-66177786D01*
X168032213Y-66141971D01*
X168032215Y-66141968D01*
X168032219Y-66141966D01*
X168176966Y-65997219D01*
X168176968Y-65997215D01*
X168176971Y-65997213D01*
X168243423Y-65905748D01*
X168297287Y-65831610D01*
X168390220Y-65649219D01*
X168453477Y-65454534D01*
X168485500Y-65252352D01*
X168485500Y-65047648D01*
X168461246Y-64894514D01*
X168453477Y-64845465D01*
X168390218Y-64650776D01*
X168336091Y-64544548D01*
X168297287Y-64468390D01*
X168289556Y-64457749D01*
X168176971Y-64302786D01*
X168032219Y-64158034D01*
X168032211Y-64158028D01*
X167917681Y-64074818D01*
X167875016Y-64019489D01*
X167869037Y-63949875D01*
X167901642Y-63888080D01*
X167962481Y-63853723D01*
X167990567Y-63850500D01*
X170339548Y-63850500D01*
X170406587Y-63870185D01*
X170427229Y-63886819D01*
X173147781Y-66607371D01*
X173181266Y-66668694D01*
X173180785Y-66715416D01*
X173182285Y-66715654D01*
X173157743Y-66870606D01*
X173149500Y-66922648D01*
X173149500Y-67127352D01*
X173153206Y-67150753D01*
X173181522Y-67329534D01*
X173244781Y-67524223D01*
X173337715Y-67706613D01*
X173458028Y-67872213D01*
X173602786Y-68016971D01*
X173734675Y-68112792D01*
X173768390Y-68137287D01*
X173884607Y-68196503D01*
X173950776Y-68230218D01*
X173950778Y-68230218D01*
X173950781Y-68230220D01*
X174040459Y-68259358D01*
X174145465Y-68293477D01*
X174246557Y-68309488D01*
X174347648Y-68325500D01*
X174347649Y-68325500D01*
X174552351Y-68325500D01*
X174552352Y-68325500D01*
X174754534Y-68293477D01*
X174949219Y-68230220D01*
X175131610Y-68137287D01*
X175239522Y-68058885D01*
X175297213Y-68016971D01*
X175297215Y-68016968D01*
X175297219Y-68016966D01*
X175441966Y-67872219D01*
X175441968Y-67872215D01*
X175441971Y-67872213D01*
X175512844Y-67774663D01*
X175562287Y-67706610D01*
X175655220Y-67524219D01*
X175718477Y-67329534D01*
X175750500Y-67127352D01*
X175750500Y-66922648D01*
X175742257Y-66870606D01*
X175718477Y-66720465D01*
X175674743Y-66585868D01*
X175655220Y-66525781D01*
X175655218Y-66525778D01*
X175655218Y-66525776D01*
X175616862Y-66450500D01*
X175562287Y-66343390D01*
X175530763Y-66300000D01*
X175441971Y-66177786D01*
X175297213Y-66033028D01*
X175131613Y-65912715D01*
X175131612Y-65912714D01*
X175131610Y-65912713D01*
X175072675Y-65882684D01*
X174949223Y-65819781D01*
X174754534Y-65756522D01*
X174579995Y-65728878D01*
X174552352Y-65724500D01*
X174347648Y-65724500D01*
X174278242Y-65735493D01*
X174140654Y-65757285D01*
X174140333Y-65755262D01*
X174079120Y-65752149D01*
X174032371Y-65722781D01*
X171146073Y-62836483D01*
X171135859Y-62826269D01*
X171135858Y-62826267D01*
X171048733Y-62739142D01*
X170989405Y-62699500D01*
X170946286Y-62670688D01*
X170865792Y-62637347D01*
X170832452Y-62623537D01*
X170741686Y-62605483D01*
X170737931Y-62604736D01*
X170737927Y-62604735D01*
X170711607Y-62599500D01*
X170711606Y-62599500D01*
X161551607Y-62599500D01*
X161428393Y-62599500D01*
X161402072Y-62604735D01*
X161402064Y-62604737D01*
X161398314Y-62605483D01*
X161307548Y-62623537D01*
X161274207Y-62637347D01*
X161266497Y-62640540D01*
X161266491Y-62640542D01*
X161193718Y-62670685D01*
X161193709Y-62670690D01*
X161150596Y-62699499D01*
X161150595Y-62699500D01*
X161091268Y-62739140D01*
X161057922Y-62772487D01*
X161004142Y-62826267D01*
X161004139Y-62826270D01*
X159982627Y-63847781D01*
X159921304Y-63881266D01*
X159874584Y-63880776D01*
X159874346Y-63882285D01*
X159770898Y-63865900D01*
X159667352Y-63849500D01*
X159462648Y-63849500D01*
X159438441Y-63853334D01*
X159260465Y-63881522D01*
X159065776Y-63944781D01*
X158883386Y-64037715D01*
X158717786Y-64158028D01*
X158573028Y-64302786D01*
X158449849Y-64472331D01*
X158448176Y-64471115D01*
X158402792Y-64512169D01*
X158348885Y-64524500D01*
X157276712Y-64524500D01*
X157276692Y-64524499D01*
X157270578Y-64524499D01*
X157147365Y-64524499D01*
X157046568Y-64544548D01*
X157046563Y-64544548D01*
X157026524Y-64548535D01*
X157026521Y-64548536D01*
X156995383Y-64561434D01*
X156912682Y-64595689D01*
X156810238Y-64664141D01*
X156810234Y-64664144D01*
X156392645Y-65081733D01*
X156331322Y-65115218D01*
X156266650Y-65111984D01*
X156251054Y-65106917D01*
X156092047Y-65081733D01*
X156041095Y-65073663D01*
X155828521Y-65073663D01*
X155779850Y-65081371D01*
X155618568Y-65106916D01*
X155416393Y-65172607D01*
X155226987Y-65269114D01*
X155055021Y-65394053D01*
X154904698Y-65544376D01*
X154779759Y-65716342D01*
X154683252Y-65905748D01*
X154617561Y-66107923D01*
X154606497Y-66177781D01*
X154584308Y-66317876D01*
X154584308Y-66530450D01*
X154587333Y-66549548D01*
X154614403Y-66720466D01*
X154617562Y-66740406D01*
X154681201Y-66936267D01*
X154683252Y-66942577D01*
X154779759Y-67131983D01*
X154904698Y-67303949D01*
X155055021Y-67454272D01*
X155226987Y-67579211D01*
X155226989Y-67579212D01*
X155226992Y-67579214D01*
X155236301Y-67583957D01*
X155287098Y-67631929D01*
X155303895Y-67699750D01*
X155281360Y-67765885D01*
X155236313Y-67804923D01*
X155227254Y-67809539D01*
X155227248Y-67809543D01*
X155173090Y-67848890D01*
X155173090Y-67848891D01*
X155764574Y-68440375D01*
X155722516Y-68451645D01*
X155597100Y-68524053D01*
X155494698Y-68626455D01*
X155422290Y-68751871D01*
X155411020Y-68793929D01*
X154819536Y-68202445D01*
X154819535Y-68202445D01*
X154780188Y-68256602D01*
X154683712Y-68445945D01*
X154618050Y-68648032D01*
X154618050Y-68648035D01*
X154584808Y-68857916D01*
X154584808Y-69070409D01*
X154618050Y-69280290D01*
X154618050Y-69280293D01*
X154683712Y-69482380D01*
X154780183Y-69671713D01*
X154819536Y-69725879D01*
X155411020Y-69134396D01*
X155422290Y-69176455D01*
X155494698Y-69301871D01*
X155597100Y-69404273D01*
X155722516Y-69476681D01*
X155764573Y-69487950D01*
X155135178Y-70117344D01*
X155073855Y-70150829D01*
X155047506Y-70153663D01*
X155036942Y-70153663D01*
X155036931Y-70153664D01*
X154977324Y-70160071D01*
X154842479Y-70210365D01*
X154842472Y-70210369D01*
X154727263Y-70296615D01*
X154727260Y-70296618D01*
X154641014Y-70411827D01*
X154641010Y-70411834D01*
X154590716Y-70546680D01*
X154584309Y-70606279D01*
X154584308Y-70606298D01*
X154584308Y-72402033D01*
X154584309Y-72402039D01*
X154590716Y-72461646D01*
X154641010Y-72596491D01*
X154641014Y-72596498D01*
X154727260Y-72711707D01*
X154727263Y-72711710D01*
X154842472Y-72797956D01*
X154842479Y-72797960D01*
X154977325Y-72848254D01*
X154977324Y-72848254D01*
X154984252Y-72848998D01*
X155036935Y-72854663D01*
X156832680Y-72854662D01*
X156892291Y-72848254D01*
X157027139Y-72797959D01*
X157142354Y-72711709D01*
X157228604Y-72596494D01*
X157278899Y-72461646D01*
X157285308Y-72402036D01*
X157285307Y-71473499D01*
X157304991Y-71406461D01*
X157357795Y-71360706D01*
X157409307Y-71349500D01*
X160750500Y-71349500D01*
X160817539Y-71369185D01*
X160863294Y-71421989D01*
X160874500Y-71473500D01*
X160874500Y-72450001D01*
X160874501Y-72450019D01*
X160885000Y-72552796D01*
X160885001Y-72552799D01*
X160940185Y-72719331D01*
X160940187Y-72719336D01*
X160943796Y-72725187D01*
X161032288Y-72868656D01*
X161156344Y-72992712D01*
X161305666Y-73084814D01*
X161472203Y-73139999D01*
X161574991Y-73150500D01*
X162339547Y-73150499D01*
X162406586Y-73170183D01*
X162427228Y-73186818D01*
X166913181Y-77672771D01*
X166946666Y-77734094D01*
X166949500Y-77760452D01*
X166949500Y-81813730D01*
X166929815Y-81880769D01*
X166877011Y-81926524D01*
X166807853Y-81936468D01*
X166783130Y-81929689D01*
X166783046Y-81929949D01*
X166778413Y-81928443D01*
X166778412Y-81928443D01*
X166576243Y-81862754D01*
X166576241Y-81862753D01*
X166576240Y-81862753D01*
X166414957Y-81837208D01*
X166366287Y-81829500D01*
X166153713Y-81829500D01*
X166105042Y-81837208D01*
X165943760Y-81862753D01*
X165741585Y-81928444D01*
X165552179Y-82024951D01*
X165380213Y-82149890D01*
X165229890Y-82300213D01*
X165104949Y-82472182D01*
X165100484Y-82480946D01*
X165052509Y-82531742D01*
X164984688Y-82548536D01*
X164918553Y-82525998D01*
X164879516Y-82480946D01*
X164875050Y-82472182D01*
X164750109Y-82300213D01*
X164599786Y-82149890D01*
X164427820Y-82024951D01*
X164238414Y-81928444D01*
X164238413Y-81928443D01*
X164238412Y-81928443D01*
X164036243Y-81862754D01*
X164036241Y-81862753D01*
X164036240Y-81862753D01*
X163874957Y-81837208D01*
X163826287Y-81829500D01*
X163613713Y-81829500D01*
X163565042Y-81837208D01*
X163403760Y-81862753D01*
X163201585Y-81928444D01*
X163012179Y-82024951D01*
X162840213Y-82149890D01*
X162689890Y-82300213D01*
X162564949Y-82472182D01*
X162560484Y-82480946D01*
X162512509Y-82531742D01*
X162444688Y-82548536D01*
X162378553Y-82525998D01*
X162339516Y-82480946D01*
X162335050Y-82472182D01*
X162210109Y-82300213D01*
X162059786Y-82149890D01*
X161887820Y-82024951D01*
X161698414Y-81928444D01*
X161698413Y-81928443D01*
X161698412Y-81928443D01*
X161496243Y-81862754D01*
X161496241Y-81862753D01*
X161496240Y-81862753D01*
X161334957Y-81837208D01*
X161286287Y-81829500D01*
X161073713Y-81829500D01*
X161025042Y-81837208D01*
X160863760Y-81862753D01*
X160661585Y-81928444D01*
X160472179Y-82024951D01*
X160300213Y-82149890D01*
X160149890Y-82300213D01*
X160024949Y-82472182D01*
X160020484Y-82480946D01*
X159972509Y-82531742D01*
X159904688Y-82548536D01*
X159838553Y-82525998D01*
X159799516Y-82480946D01*
X159795050Y-82472182D01*
X159670109Y-82300213D01*
X159519786Y-82149890D01*
X159347820Y-82024951D01*
X159158414Y-81928444D01*
X159158413Y-81928443D01*
X159158412Y-81928443D01*
X158956243Y-81862754D01*
X158956241Y-81862753D01*
X158956240Y-81862753D01*
X158794957Y-81837208D01*
X158746287Y-81829500D01*
X158533713Y-81829500D01*
X158485042Y-81837208D01*
X158323760Y-81862753D01*
X158121585Y-81928444D01*
X157932179Y-82024951D01*
X157760213Y-82149890D01*
X157609890Y-82300213D01*
X157484949Y-82472182D01*
X157480484Y-82480946D01*
X157432509Y-82531742D01*
X157364688Y-82548536D01*
X157298553Y-82525998D01*
X157259516Y-82480946D01*
X157255050Y-82472182D01*
X157130109Y-82300213D01*
X156979786Y-82149890D01*
X156807820Y-82024951D01*
X156618414Y-81928444D01*
X156618413Y-81928443D01*
X156618412Y-81928443D01*
X156416243Y-81862754D01*
X156416241Y-81862753D01*
X156416240Y-81862753D01*
X156254957Y-81837208D01*
X156206287Y-81829500D01*
X155993713Y-81829500D01*
X155945042Y-81837208D01*
X155783760Y-81862753D01*
X155581585Y-81928444D01*
X155392179Y-82024951D01*
X155220213Y-82149890D01*
X155069890Y-82300213D01*
X154944949Y-82472182D01*
X154940484Y-82480946D01*
X154892509Y-82531742D01*
X154824688Y-82548536D01*
X154758553Y-82525998D01*
X154719516Y-82480946D01*
X154715050Y-82472182D01*
X154590109Y-82300213D01*
X154439786Y-82149890D01*
X154267820Y-82024951D01*
X154078414Y-81928444D01*
X154078413Y-81928443D01*
X154078412Y-81928443D01*
X153876243Y-81862754D01*
X153876241Y-81862753D01*
X153876240Y-81862753D01*
X153714957Y-81837208D01*
X153666287Y-81829500D01*
X153453713Y-81829500D01*
X153405042Y-81837208D01*
X153243760Y-81862753D01*
X153041585Y-81928444D01*
X152852179Y-82024951D01*
X152680213Y-82149890D01*
X152529890Y-82300213D01*
X152404949Y-82472182D01*
X152400484Y-82480946D01*
X152352509Y-82531742D01*
X152284688Y-82548536D01*
X152218553Y-82525998D01*
X152179516Y-82480946D01*
X152175050Y-82472182D01*
X152050109Y-82300213D01*
X151899786Y-82149890D01*
X151727820Y-82024951D01*
X151538414Y-81928444D01*
X151538413Y-81928443D01*
X151538412Y-81928443D01*
X151336243Y-81862754D01*
X151336241Y-81862753D01*
X151336240Y-81862753D01*
X151174957Y-81837208D01*
X151126287Y-81829500D01*
X150913713Y-81829500D01*
X150865042Y-81837208D01*
X150703760Y-81862753D01*
X150501585Y-81928444D01*
X150312179Y-82024951D01*
X150140213Y-82149890D01*
X149989890Y-82300213D01*
X149864949Y-82472182D01*
X149860484Y-82480946D01*
X149812509Y-82531742D01*
X149744688Y-82548536D01*
X149678553Y-82525998D01*
X149639516Y-82480946D01*
X149635050Y-82472182D01*
X149510109Y-82300213D01*
X149359786Y-82149890D01*
X149187820Y-82024951D01*
X148998414Y-81928444D01*
X148998413Y-81928443D01*
X148998412Y-81928443D01*
X148796243Y-81862754D01*
X148796241Y-81862753D01*
X148796240Y-81862753D01*
X148634957Y-81837208D01*
X148586287Y-81829500D01*
X148373713Y-81829500D01*
X148325042Y-81837208D01*
X148163760Y-81862753D01*
X147961585Y-81928444D01*
X147772179Y-82024951D01*
X147600213Y-82149890D01*
X147449890Y-82300213D01*
X147324949Y-82472182D01*
X147320484Y-82480946D01*
X147272509Y-82531742D01*
X147204688Y-82548536D01*
X147138553Y-82525998D01*
X147099516Y-82480946D01*
X147095050Y-82472182D01*
X146970109Y-82300213D01*
X146819786Y-82149890D01*
X146647820Y-82024951D01*
X146458414Y-81928444D01*
X146458413Y-81928443D01*
X146458412Y-81928443D01*
X146256243Y-81862754D01*
X146256241Y-81862753D01*
X146256240Y-81862753D01*
X146094957Y-81837208D01*
X146046287Y-81829500D01*
X145833713Y-81829500D01*
X145785042Y-81837208D01*
X145623760Y-81862753D01*
X145421585Y-81928444D01*
X145232179Y-82024951D01*
X145060213Y-82149890D01*
X144909890Y-82300213D01*
X144784949Y-82472182D01*
X144780484Y-82480946D01*
X144732509Y-82531742D01*
X144664688Y-82548536D01*
X144598553Y-82525998D01*
X144559516Y-82480946D01*
X144555050Y-82472182D01*
X144430109Y-82300213D01*
X144279786Y-82149890D01*
X144107820Y-82024951D01*
X143918414Y-81928444D01*
X143918413Y-81928443D01*
X143918412Y-81928443D01*
X143716243Y-81862754D01*
X143716241Y-81862753D01*
X143716240Y-81862753D01*
X143554957Y-81837208D01*
X143506287Y-81829500D01*
X143293713Y-81829500D01*
X143245042Y-81837208D01*
X143083760Y-81862753D01*
X142881585Y-81928444D01*
X142692179Y-82024951D01*
X142520213Y-82149890D01*
X142369890Y-82300213D01*
X142244949Y-82472182D01*
X142240484Y-82480946D01*
X142192509Y-82531742D01*
X142124688Y-82548536D01*
X142058553Y-82525998D01*
X142019516Y-82480946D01*
X142015050Y-82472182D01*
X141890109Y-82300213D01*
X141739786Y-82149890D01*
X141567820Y-82024951D01*
X141378414Y-81928444D01*
X141378413Y-81928443D01*
X141378412Y-81928443D01*
X141176243Y-81862754D01*
X141176241Y-81862753D01*
X141176240Y-81862753D01*
X141014957Y-81837208D01*
X140966287Y-81829500D01*
X140753713Y-81829500D01*
X140705042Y-81837208D01*
X140543760Y-81862753D01*
X140341585Y-81928444D01*
X140152179Y-82024951D01*
X139980213Y-82149890D01*
X139829890Y-82300213D01*
X139704949Y-82472182D01*
X139700484Y-82480946D01*
X139652509Y-82531742D01*
X139584688Y-82548536D01*
X139518553Y-82525998D01*
X139479516Y-82480946D01*
X139475050Y-82472182D01*
X139350109Y-82300213D01*
X139199786Y-82149890D01*
X139027820Y-82024951D01*
X138838414Y-81928444D01*
X138838413Y-81928443D01*
X138838412Y-81928443D01*
X138636243Y-81862754D01*
X138636241Y-81862753D01*
X138636240Y-81862753D01*
X138474957Y-81837208D01*
X138426287Y-81829500D01*
X138213713Y-81829500D01*
X138165042Y-81837208D01*
X138003760Y-81862753D01*
X137801585Y-81928444D01*
X137612179Y-82024951D01*
X137440213Y-82149890D01*
X137289890Y-82300213D01*
X137164949Y-82472182D01*
X137160484Y-82480946D01*
X137112509Y-82531742D01*
X137044688Y-82548536D01*
X136978553Y-82525998D01*
X136939516Y-82480946D01*
X136935050Y-82472182D01*
X136810109Y-82300213D01*
X136659786Y-82149890D01*
X136487820Y-82024951D01*
X136298414Y-81928444D01*
X136298413Y-81928443D01*
X136298412Y-81928443D01*
X136096243Y-81862754D01*
X136096241Y-81862753D01*
X136096240Y-81862753D01*
X135934957Y-81837208D01*
X135886287Y-81829500D01*
X135673713Y-81829500D01*
X135625042Y-81837208D01*
X135463760Y-81862753D01*
X135261585Y-81928444D01*
X135072179Y-82024951D01*
X134900213Y-82149890D01*
X134749890Y-82300213D01*
X134624949Y-82472182D01*
X134620484Y-82480946D01*
X134572509Y-82531742D01*
X134504688Y-82548536D01*
X134438553Y-82525998D01*
X134399516Y-82480946D01*
X134395050Y-82472182D01*
X134270109Y-82300213D01*
X134119786Y-82149890D01*
X133947820Y-82024951D01*
X133758414Y-81928444D01*
X133758413Y-81928443D01*
X133758412Y-81928443D01*
X133556243Y-81862754D01*
X133556241Y-81862753D01*
X133556240Y-81862753D01*
X133394957Y-81837208D01*
X133346287Y-81829500D01*
X133133713Y-81829500D01*
X133085042Y-81837208D01*
X132923760Y-81862753D01*
X132721585Y-81928444D01*
X132532179Y-82024951D01*
X132360213Y-82149890D01*
X132209890Y-82300213D01*
X132084949Y-82472182D01*
X132080484Y-82480946D01*
X132032509Y-82531742D01*
X131964688Y-82548536D01*
X131898553Y-82525998D01*
X131859516Y-82480946D01*
X131855050Y-82472182D01*
X131730109Y-82300213D01*
X131579786Y-82149890D01*
X131407819Y-82024950D01*
X131393203Y-82017503D01*
X131342408Y-81969527D01*
X131325500Y-81907019D01*
X131325500Y-80363563D01*
X131325500Y-80363394D01*
X131324725Y-80359500D01*
X131301463Y-80242549D01*
X131275645Y-80180220D01*
X131254311Y-80128714D01*
X131237654Y-80103785D01*
X131185858Y-80026266D01*
X131095637Y-79936045D01*
X131095606Y-79936016D01*
X129121770Y-77962180D01*
X129088285Y-77900857D01*
X129093269Y-77831165D01*
X129135141Y-77775232D01*
X129200605Y-77750815D01*
X129209451Y-77750499D01*
X130065002Y-77750499D01*
X130065008Y-77750499D01*
X130167797Y-77739999D01*
X130334334Y-77684814D01*
X130483656Y-77592712D01*
X130607712Y-77468656D01*
X130699814Y-77319334D01*
X130754999Y-77152797D01*
X130765500Y-77050009D01*
X130765499Y-76085450D01*
X130785183Y-76018412D01*
X130801813Y-75997775D01*
X132177771Y-74621819D01*
X132239094Y-74588334D01*
X132265452Y-74585500D01*
X138539846Y-74585500D01*
X138606885Y-74605185D01*
X138652640Y-74657989D01*
X138657552Y-74670496D01*
X138667000Y-74699008D01*
X138710186Y-74829334D01*
X138802288Y-74978656D01*
X138926344Y-75102712D01*
X139075666Y-75194814D01*
X139157570Y-75221954D01*
X139215015Y-75261727D01*
X139241838Y-75326243D01*
X139229523Y-75395018D01*
X139191451Y-75439978D01*
X139097787Y-75508028D01*
X139097782Y-75508032D01*
X138953030Y-75652784D01*
X138865412Y-75773384D01*
X138810082Y-75816051D01*
X138765093Y-75824500D01*
X138301115Y-75824500D01*
X138234076Y-75804815D01*
X138201393Y-75771428D01*
X138200151Y-75772331D01*
X138076971Y-75602786D01*
X137932213Y-75458028D01*
X137766613Y-75337715D01*
X137766612Y-75337714D01*
X137766610Y-75337713D01*
X137695980Y-75301725D01*
X137584223Y-75244781D01*
X137389534Y-75181522D01*
X137214995Y-75153878D01*
X137187352Y-75149500D01*
X136982648Y-75149500D01*
X136958329Y-75153351D01*
X136780465Y-75181522D01*
X136585776Y-75244781D01*
X136403386Y-75337715D01*
X136237786Y-75458028D01*
X136093028Y-75602786D01*
X135972715Y-75768386D01*
X135879781Y-75950776D01*
X135816522Y-76145465D01*
X135784500Y-76347648D01*
X135784500Y-76552351D01*
X135816522Y-76754534D01*
X135879781Y-76949223D01*
X135928125Y-77044102D01*
X135969600Y-77125501D01*
X135972715Y-77131613D01*
X136093028Y-77297213D01*
X136237786Y-77441971D01*
X136392749Y-77554556D01*
X136403390Y-77562287D01*
X136519607Y-77621503D01*
X136585776Y-77655218D01*
X136585778Y-77655218D01*
X136585781Y-77655220D01*
X136645119Y-77674500D01*
X136780465Y-77718477D01*
X136827856Y-77725983D01*
X136982648Y-77750500D01*
X136982649Y-77750500D01*
X137187351Y-77750500D01*
X137187352Y-77750500D01*
X137389534Y-77718477D01*
X137584219Y-77655220D01*
X137766610Y-77562287D01*
X137859590Y-77494732D01*
X137932213Y-77441971D01*
X137932215Y-77441968D01*
X137932219Y-77441966D01*
X138076966Y-77297219D01*
X138076968Y-77297215D01*
X138076971Y-77297213D01*
X138200151Y-77127669D01*
X138201823Y-77128884D01*
X138247208Y-77087831D01*
X138301115Y-77075500D01*
X138702660Y-77075500D01*
X138769699Y-77095185D01*
X138813145Y-77143206D01*
X138832713Y-77181611D01*
X138953028Y-77347213D01*
X139097786Y-77491971D01*
X139218226Y-77579474D01*
X139263390Y-77612287D01*
X139334513Y-77648526D01*
X139356080Y-77659515D01*
X139406876Y-77707490D01*
X139423671Y-77775311D01*
X139401134Y-77841446D01*
X139356080Y-77880485D01*
X139263386Y-77927715D01*
X139097786Y-78048028D01*
X138953028Y-78192786D01*
X138832715Y-78358386D01*
X138739781Y-78540776D01*
X138676522Y-78735465D01*
X138644500Y-78937648D01*
X138644500Y-79142351D01*
X138676522Y-79344534D01*
X138739781Y-79539223D01*
X138801770Y-79660881D01*
X138829628Y-79715556D01*
X138832715Y-79721613D01*
X138953028Y-79887213D01*
X139097786Y-80031971D01*
X139252749Y-80144556D01*
X139263390Y-80152287D01*
X139379607Y-80211503D01*
X139445776Y-80245218D01*
X139445778Y-80245218D01*
X139445781Y-80245220D01*
X139538973Y-80275500D01*
X139640465Y-80308477D01*
X139741557Y-80324488D01*
X139842648Y-80340500D01*
X139842649Y-80340500D01*
X140047351Y-80340500D01*
X140047352Y-80340500D01*
X140249534Y-80308477D01*
X140444219Y-80245220D01*
X140626610Y-80152287D01*
X140720462Y-80084100D01*
X140792213Y-80031971D01*
X140792215Y-80031968D01*
X140792219Y-80031966D01*
X140936966Y-79887219D01*
X140936968Y-79887215D01*
X140936971Y-79887213D01*
X141017132Y-79776879D01*
X141057287Y-79721610D01*
X141150220Y-79539219D01*
X141213477Y-79344534D01*
X141245500Y-79142352D01*
X141245500Y-78937648D01*
X141231401Y-78848631D01*
X141213477Y-78735465D01*
X141150218Y-78540776D01*
X141085401Y-78413567D01*
X141057287Y-78358390D01*
X141049556Y-78347749D01*
X140936971Y-78192786D01*
X140792213Y-78048028D01*
X140626614Y-77927715D01*
X140573902Y-77900857D01*
X140533917Y-77880483D01*
X140483123Y-77832511D01*
X140466328Y-77764690D01*
X140488865Y-77698555D01*
X140533917Y-77659516D01*
X140626610Y-77612287D01*
X140695434Y-77562284D01*
X140792213Y-77491971D01*
X140792215Y-77491968D01*
X140792219Y-77491966D01*
X140936966Y-77347219D01*
X141057287Y-77181610D01*
X141107903Y-77082267D01*
X141113164Y-77075608D01*
X141114697Y-77070561D01*
X141126779Y-77058374D01*
X141138055Y-77044102D01*
X141143521Y-77039452D01*
X141172509Y-77020084D01*
X141223733Y-76985858D01*
X141310858Y-76898733D01*
X141310860Y-76898729D01*
X145747771Y-72461819D01*
X145809094Y-72428334D01*
X145835452Y-72425500D01*
X147364500Y-72425500D01*
X147431539Y-72445185D01*
X147477294Y-72497989D01*
X147487238Y-72567147D01*
X147458213Y-72630703D01*
X147399435Y-72668477D01*
X147383898Y-72671973D01*
X147260465Y-72691522D01*
X147065776Y-72754781D01*
X146883386Y-72847715D01*
X146717786Y-72968028D01*
X146573028Y-73112786D01*
X146452715Y-73278386D01*
X146359781Y-73460776D01*
X146296522Y-73655465D01*
X146264500Y-73857648D01*
X146264500Y-74062351D01*
X146296522Y-74264534D01*
X146359781Y-74459223D01*
X146411135Y-74560009D01*
X146425567Y-74588334D01*
X146452715Y-74641613D01*
X146573028Y-74807213D01*
X146717786Y-74951971D01*
X146883385Y-75072284D01*
X146883387Y-75072285D01*
X146883390Y-75072287D01*
X146963649Y-75113181D01*
X146976630Y-75119795D01*
X147027426Y-75167770D01*
X147044221Y-75235591D01*
X147021684Y-75301725D01*
X146976630Y-75340765D01*
X146883644Y-75388143D01*
X146839077Y-75420523D01*
X146839077Y-75420524D01*
X147518554Y-76100000D01*
X147512339Y-76100000D01*
X147410606Y-76127259D01*
X147319394Y-76179920D01*
X147244920Y-76254394D01*
X147192259Y-76345606D01*
X147165000Y-76447339D01*
X147165000Y-76453553D01*
X146485524Y-75774077D01*
X146485523Y-75774077D01*
X146453143Y-75818644D01*
X146360244Y-76000968D01*
X146297009Y-76195582D01*
X146265000Y-76397682D01*
X146265000Y-76602317D01*
X146297009Y-76804417D01*
X146360244Y-76999031D01*
X146453141Y-77181350D01*
X146453147Y-77181359D01*
X146485523Y-77225921D01*
X146485524Y-77225922D01*
X147165000Y-76546446D01*
X147165000Y-76552661D01*
X147192259Y-76654394D01*
X147244920Y-76745606D01*
X147319394Y-76820080D01*
X147410606Y-76872741D01*
X147512339Y-76900000D01*
X147518553Y-76900000D01*
X146839076Y-77579474D01*
X146883652Y-77611861D01*
X146976628Y-77659234D01*
X147027425Y-77707208D01*
X147044220Y-77775029D01*
X147021683Y-77841164D01*
X146976630Y-77880203D01*
X146883388Y-77927713D01*
X146717786Y-78048028D01*
X146573028Y-78192786D01*
X146452715Y-78358386D01*
X146359781Y-78540776D01*
X146296522Y-78735465D01*
X146264500Y-78937648D01*
X146264500Y-79142351D01*
X146296522Y-79344534D01*
X146359781Y-79539223D01*
X146421770Y-79660881D01*
X146449628Y-79715556D01*
X146452715Y-79721613D01*
X146573028Y-79887213D01*
X146717786Y-80031971D01*
X146872749Y-80144556D01*
X146883390Y-80152287D01*
X146999607Y-80211503D01*
X147065776Y-80245218D01*
X147065778Y-80245218D01*
X147065781Y-80245220D01*
X147158973Y-80275500D01*
X147260465Y-80308477D01*
X147361557Y-80324488D01*
X147462648Y-80340500D01*
X147462649Y-80340500D01*
X147667351Y-80340500D01*
X147667352Y-80340500D01*
X147869534Y-80308477D01*
X148064219Y-80245220D01*
X148246610Y-80152287D01*
X148340462Y-80084100D01*
X148412213Y-80031971D01*
X148412215Y-80031968D01*
X148412219Y-80031966D01*
X148556966Y-79887219D01*
X148556968Y-79887215D01*
X148556971Y-79887213D01*
X148637132Y-79776879D01*
X148677287Y-79721610D01*
X148770220Y-79539219D01*
X148833477Y-79344534D01*
X148865500Y-79142352D01*
X148865500Y-78937648D01*
X148851401Y-78848631D01*
X148832715Y-78730654D01*
X148834762Y-78730329D01*
X148837810Y-78669235D01*
X148867218Y-78622371D01*
X148895526Y-78594064D01*
X149077773Y-78411818D01*
X149139096Y-78378334D01*
X149165454Y-78375500D01*
X151002691Y-78375500D01*
X151069730Y-78395185D01*
X151090372Y-78411819D01*
X151703554Y-79025000D01*
X151697339Y-79025000D01*
X151595606Y-79052259D01*
X151504394Y-79104920D01*
X151429920Y-79179394D01*
X151377259Y-79270606D01*
X151350000Y-79372339D01*
X151350000Y-79378553D01*
X150670524Y-78699077D01*
X150670523Y-78699077D01*
X150638143Y-78743644D01*
X150545244Y-78925968D01*
X150482009Y-79120582D01*
X150450000Y-79322682D01*
X150450000Y-79527317D01*
X150482009Y-79729417D01*
X150545244Y-79924031D01*
X150638141Y-80106350D01*
X150638147Y-80106359D01*
X150670523Y-80150921D01*
X150670524Y-80150922D01*
X151350000Y-79471446D01*
X151350000Y-79477661D01*
X151377259Y-79579394D01*
X151429920Y-79670606D01*
X151504394Y-79745080D01*
X151595606Y-79797741D01*
X151697339Y-79825000D01*
X151703553Y-79825000D01*
X151024076Y-80504474D01*
X151068650Y-80536859D01*
X151250968Y-80629755D01*
X151445582Y-80692990D01*
X151647683Y-80725000D01*
X151852317Y-80725000D01*
X152054417Y-80692990D01*
X152249031Y-80629755D01*
X152431349Y-80536859D01*
X152475921Y-80504474D01*
X151796447Y-79825000D01*
X151802661Y-79825000D01*
X151904394Y-79797741D01*
X151995606Y-79745080D01*
X152070080Y-79670606D01*
X152122741Y-79579394D01*
X152150000Y-79477661D01*
X152150000Y-79471447D01*
X152829474Y-80150921D01*
X152861859Y-80106349D01*
X152954755Y-79924031D01*
X153017990Y-79729417D01*
X153050000Y-79527317D01*
X153050000Y-79322682D01*
X153017990Y-79120582D01*
X152954755Y-78925968D01*
X152861859Y-78743650D01*
X152829474Y-78699077D01*
X152829474Y-78699076D01*
X152150000Y-79378551D01*
X152150000Y-79372339D01*
X152122741Y-79270606D01*
X152070080Y-79179394D01*
X151995606Y-79104920D01*
X151904394Y-79052259D01*
X151802661Y-79025000D01*
X151796446Y-79025000D01*
X152409628Y-78411819D01*
X152470951Y-78378334D01*
X152497309Y-78375500D01*
X154154548Y-78375500D01*
X154183988Y-78384144D01*
X154213975Y-78390668D01*
X154218990Y-78394422D01*
X154221587Y-78395185D01*
X154242228Y-78411818D01*
X154387781Y-78557371D01*
X154421266Y-78618694D01*
X154420785Y-78665416D01*
X154422285Y-78665654D01*
X154389500Y-78872648D01*
X154389500Y-79077351D01*
X154421522Y-79279534D01*
X154484781Y-79474223D01*
X154517899Y-79539219D01*
X154562093Y-79625955D01*
X154577715Y-79656613D01*
X154698028Y-79822213D01*
X154842786Y-79966971D01*
X154932253Y-80031971D01*
X155008390Y-80087287D01*
X155089697Y-80128715D01*
X155190776Y-80180218D01*
X155190778Y-80180218D01*
X155190781Y-80180220D01*
X155295137Y-80214127D01*
X155385465Y-80243477D01*
X155486557Y-80259488D01*
X155587648Y-80275500D01*
X155587649Y-80275500D01*
X155792351Y-80275500D01*
X155792352Y-80275500D01*
X155994534Y-80243477D01*
X156189219Y-80180220D01*
X156371610Y-80087287D01*
X156510425Y-79986433D01*
X156537213Y-79966971D01*
X156537215Y-79966968D01*
X156537219Y-79966966D01*
X156681966Y-79822219D01*
X156681968Y-79822215D01*
X156681971Y-79822213D01*
X156749390Y-79729417D01*
X156802287Y-79656610D01*
X156895220Y-79474219D01*
X156958477Y-79279534D01*
X156990500Y-79077352D01*
X156990500Y-78872648D01*
X156970068Y-78743650D01*
X156958477Y-78670465D01*
X156895218Y-78475776D01*
X156851853Y-78390668D01*
X156802287Y-78293390D01*
X156750776Y-78222490D01*
X156681971Y-78127786D01*
X156537213Y-77983028D01*
X156371613Y-77862715D01*
X156371612Y-77862714D01*
X156371610Y-77862713D01*
X156309694Y-77831165D01*
X156189223Y-77769781D01*
X155994534Y-77706522D01*
X155819995Y-77678878D01*
X155792352Y-77674500D01*
X155587648Y-77674500D01*
X155522542Y-77684812D01*
X155380654Y-77707285D01*
X155380333Y-77705262D01*
X155319120Y-77702149D01*
X155272371Y-77672781D01*
X154960822Y-77361232D01*
X154950859Y-77351269D01*
X154950858Y-77351267D01*
X154863733Y-77264142D01*
X154812509Y-77229915D01*
X154761286Y-77195688D01*
X154657736Y-77152797D01*
X154647452Y-77148537D01*
X154531639Y-77125501D01*
X154529842Y-77125143D01*
X154529818Y-77125138D01*
X154526609Y-77124500D01*
X154526607Y-77124500D01*
X154526606Y-77124500D01*
X148916606Y-77124500D01*
X148899660Y-77124500D01*
X148832621Y-77104815D01*
X148786866Y-77052011D01*
X148776922Y-76982853D01*
X148781729Y-76962181D01*
X148832990Y-76804417D01*
X148865000Y-76602317D01*
X148865000Y-76397682D01*
X148832990Y-76195582D01*
X148769755Y-76000968D01*
X148676859Y-75818650D01*
X148644474Y-75774077D01*
X148644474Y-75774076D01*
X147965000Y-76453553D01*
X147965000Y-76447339D01*
X147937741Y-76345606D01*
X147885080Y-76254394D01*
X147810606Y-76179920D01*
X147719394Y-76127259D01*
X147617661Y-76100000D01*
X147611446Y-76100000D01*
X148290922Y-75420524D01*
X148290921Y-75420522D01*
X148262424Y-75399818D01*
X148219758Y-75344488D01*
X148213779Y-75274875D01*
X148246385Y-75213080D01*
X148307223Y-75178723D01*
X148335309Y-75175500D01*
X150624582Y-75175500D01*
X150691621Y-75195185D01*
X150724900Y-75226615D01*
X150758028Y-75272212D01*
X150758032Y-75272217D01*
X150902786Y-75416971D01*
X151028126Y-75508034D01*
X151068390Y-75537287D01*
X151153526Y-75580666D01*
X151250776Y-75630218D01*
X151250778Y-75630218D01*
X151250781Y-75630220D01*
X151320217Y-75652781D01*
X151445465Y-75693477D01*
X151546557Y-75709488D01*
X151647648Y-75725500D01*
X151647649Y-75725500D01*
X151852351Y-75725500D01*
X151852352Y-75725500D01*
X152054534Y-75693477D01*
X152249219Y-75630220D01*
X152431610Y-75537287D01*
X152540702Y-75458028D01*
X152597213Y-75416971D01*
X152597215Y-75416968D01*
X152597219Y-75416966D01*
X152741966Y-75272219D01*
X152761901Y-75244781D01*
X152775100Y-75226615D01*
X152830429Y-75183949D01*
X152875418Y-75175500D01*
X158397770Y-75175500D01*
X158464809Y-75195185D01*
X158485451Y-75211819D01*
X161983526Y-78709894D01*
X162017011Y-78771217D01*
X162018318Y-78816972D01*
X162009500Y-78872647D01*
X162009500Y-79077351D01*
X162041522Y-79279534D01*
X162104781Y-79474223D01*
X162137899Y-79539219D01*
X162182093Y-79625955D01*
X162197715Y-79656613D01*
X162318028Y-79822213D01*
X162462786Y-79966971D01*
X162552253Y-80031971D01*
X162628390Y-80087287D01*
X162709697Y-80128715D01*
X162810776Y-80180218D01*
X162810778Y-80180218D01*
X162810781Y-80180220D01*
X162915137Y-80214127D01*
X163005465Y-80243477D01*
X163106557Y-80259488D01*
X163207648Y-80275500D01*
X163207649Y-80275500D01*
X163412351Y-80275500D01*
X163412352Y-80275500D01*
X163614534Y-80243477D01*
X163809219Y-80180220D01*
X163991610Y-80087287D01*
X164130425Y-79986433D01*
X164157213Y-79966971D01*
X164157215Y-79966968D01*
X164157219Y-79966966D01*
X164301966Y-79822219D01*
X164301968Y-79822215D01*
X164301971Y-79822213D01*
X164369390Y-79729417D01*
X164422287Y-79656610D01*
X164515220Y-79474219D01*
X164578477Y-79279534D01*
X164610500Y-79077352D01*
X164610500Y-78872648D01*
X164590068Y-78743650D01*
X164578477Y-78670465D01*
X164515218Y-78475776D01*
X164471853Y-78390668D01*
X164422287Y-78293390D01*
X164370776Y-78222490D01*
X164301971Y-78127786D01*
X164157213Y-77983028D01*
X163991613Y-77862715D01*
X163991612Y-77862714D01*
X163991610Y-77862713D01*
X163929694Y-77831165D01*
X163809223Y-77769781D01*
X163614534Y-77706522D01*
X163439995Y-77678878D01*
X163412352Y-77674500D01*
X163207648Y-77674500D01*
X163151972Y-77683318D01*
X163082679Y-77674363D01*
X163044894Y-77648526D01*
X159238421Y-73842052D01*
X159238414Y-73842046D01*
X159164729Y-73792812D01*
X159164729Y-73792813D01*
X159115491Y-73759913D01*
X158978917Y-73703343D01*
X158978907Y-73703340D01*
X158833920Y-73674500D01*
X158833918Y-73674500D01*
X152875418Y-73674500D01*
X152808379Y-73654815D01*
X152775100Y-73623385D01*
X152741971Y-73577787D01*
X152741967Y-73577782D01*
X152597213Y-73433028D01*
X152431613Y-73312715D01*
X152431612Y-73312714D01*
X152431610Y-73312713D01*
X152374653Y-73283691D01*
X152249223Y-73219781D01*
X152054534Y-73156522D01*
X151879995Y-73128878D01*
X151852352Y-73124500D01*
X151647648Y-73124500D01*
X151623329Y-73128351D01*
X151445465Y-73156522D01*
X151250776Y-73219781D01*
X151068386Y-73312715D01*
X150902786Y-73433028D01*
X150758032Y-73577782D01*
X150758028Y-73577787D01*
X150724900Y-73623385D01*
X150669571Y-73666051D01*
X150624582Y-73674500D01*
X148929752Y-73674500D01*
X148862713Y-73654815D01*
X148816958Y-73602011D01*
X148811825Y-73588829D01*
X148770220Y-73460781D01*
X148677287Y-73278390D01*
X148656300Y-73249504D01*
X148556971Y-73112786D01*
X148412213Y-72968028D01*
X148246613Y-72847715D01*
X148246612Y-72847714D01*
X148246610Y-72847713D01*
X148169097Y-72808218D01*
X148064223Y-72754781D01*
X147869534Y-72691522D01*
X147746102Y-72671973D01*
X147682967Y-72642044D01*
X147646036Y-72582732D01*
X147647034Y-72512870D01*
X147685644Y-72454637D01*
X147749608Y-72426523D01*
X147765500Y-72425500D01*
X151586607Y-72425500D01*
X151647029Y-72413481D01*
X151707452Y-72401463D01*
X151740792Y-72387652D01*
X151821286Y-72354312D01*
X151872509Y-72320084D01*
X151923733Y-72285858D01*
X152010858Y-72198733D01*
X152010859Y-72198731D01*
X152017925Y-72191665D01*
X152017928Y-72191661D01*
X153473729Y-70735860D01*
X153473733Y-70735858D01*
X153560858Y-70648733D01*
X153595084Y-70597509D01*
X153629312Y-70546286D01*
X153676463Y-70432451D01*
X153700500Y-70311607D01*
X153700500Y-70188393D01*
X153700500Y-65063394D01*
X153699495Y-65058343D01*
X153676463Y-64942549D01*
X153656567Y-64894517D01*
X153629311Y-64828714D01*
X153629308Y-64828709D01*
X153629307Y-64828707D01*
X153560859Y-64726268D01*
X153560858Y-64726267D01*
X153473733Y-64639142D01*
X153473732Y-64639141D01*
X153111469Y-64276878D01*
X153077984Y-64215555D01*
X153081218Y-64150881D01*
X153113553Y-64051368D01*
X153133886Y-63922989D01*
X153150500Y-63818097D01*
X153150500Y-63581902D01*
X153113553Y-63348631D01*
X153040566Y-63124003D01*
X152933342Y-62913566D01*
X152794517Y-62722490D01*
X152627510Y-62555483D01*
X152436433Y-62416657D01*
X152373188Y-62384432D01*
X152225996Y-62309433D01*
X152001368Y-62236446D01*
X151768097Y-62199500D01*
X151768092Y-62199500D01*
X151531908Y-62199500D01*
X151531903Y-62199500D01*
X151298631Y-62236446D01*
X151074003Y-62309433D01*
X150863566Y-62416657D01*
X150794748Y-62466657D01*
X150672490Y-62555483D01*
X150672488Y-62555485D01*
X150672487Y-62555485D01*
X150505485Y-62722487D01*
X150505485Y-62722488D01*
X150505483Y-62722490D01*
X150493386Y-62739140D01*
X150366657Y-62913566D01*
X150259433Y-63124003D01*
X150186446Y-63348631D01*
X150149500Y-63581902D01*
X150149500Y-63818097D01*
X150186446Y-64051368D01*
X150259433Y-64275996D01*
X150297646Y-64350992D01*
X150366657Y-64486433D01*
X150505483Y-64677510D01*
X150672490Y-64844517D01*
X150863567Y-64983343D01*
X150961696Y-65033342D01*
X151074003Y-65090566D01*
X151074005Y-65090566D01*
X151074008Y-65090568D01*
X151149873Y-65115218D01*
X151298631Y-65163553D01*
X151531903Y-65200500D01*
X151531908Y-65200500D01*
X151768097Y-65200500D01*
X151889828Y-65181219D01*
X152001368Y-65163553D01*
X152100880Y-65131218D01*
X152170719Y-65129224D01*
X152226878Y-65161469D01*
X152413181Y-65347771D01*
X152446666Y-65409094D01*
X152449500Y-65435452D01*
X152449500Y-68250953D01*
X152429815Y-68317992D01*
X152377011Y-68363747D01*
X152307853Y-68373691D01*
X152244297Y-68344666D01*
X152237819Y-68338634D01*
X152182213Y-68283028D01*
X152012669Y-68159849D01*
X152013884Y-68158176D01*
X151972831Y-68112792D01*
X151960500Y-68058885D01*
X151960500Y-67402741D01*
X151960501Y-67402720D01*
X151960501Y-67273391D01*
X151936464Y-67152555D01*
X151936463Y-67152549D01*
X151889312Y-67038715D01*
X151820858Y-66936267D01*
X151820855Y-66936263D01*
X149211469Y-64326878D01*
X149177984Y-64265555D01*
X149181218Y-64200881D01*
X149213553Y-64101368D01*
X149238354Y-63944780D01*
X149250500Y-63868097D01*
X149250500Y-63631902D01*
X149213553Y-63398631D01*
X149140566Y-63174003D01*
X149046081Y-62988567D01*
X149033343Y-62963567D01*
X148894517Y-62772490D01*
X148727510Y-62605483D01*
X148536433Y-62466657D01*
X148325996Y-62359433D01*
X148101368Y-62286446D01*
X147868097Y-62249500D01*
X147868092Y-62249500D01*
X147631908Y-62249500D01*
X147631903Y-62249500D01*
X147398631Y-62286446D01*
X147174003Y-62359433D01*
X146963566Y-62466657D01*
X146772487Y-62605485D01*
X146605485Y-62772487D01*
X146605485Y-62772488D01*
X146605483Y-62772490D01*
X146558989Y-62836483D01*
X146466657Y-62963566D01*
X146359433Y-63174003D01*
X146286446Y-63398631D01*
X146249500Y-63631902D01*
X146249500Y-63868097D01*
X146286446Y-64101368D01*
X146359433Y-64325996D01*
X146454294Y-64512169D01*
X146466657Y-64536433D01*
X146605483Y-64727510D01*
X146772490Y-64894517D01*
X146963567Y-65033343D01*
X147058538Y-65081733D01*
X147174003Y-65140566D01*
X147174005Y-65140566D01*
X147174008Y-65140568D01*
X147250944Y-65165566D01*
X147398631Y-65213553D01*
X147631903Y-65250500D01*
X147631908Y-65250500D01*
X147868097Y-65250500D01*
X147974126Y-65233705D01*
X148101368Y-65213553D01*
X148200880Y-65181218D01*
X148270719Y-65179224D01*
X148326878Y-65211469D01*
X150673181Y-67557771D01*
X150706666Y-67619094D01*
X150709500Y-67645452D01*
X150709500Y-68058885D01*
X150689815Y-68125924D01*
X150656428Y-68158606D01*
X150657331Y-68159849D01*
X150487786Y-68283028D01*
X150343028Y-68427786D01*
X150222715Y-68593386D01*
X150129781Y-68775776D01*
X150066522Y-68970465D01*
X150034500Y-69172648D01*
X150034500Y-69377351D01*
X150066522Y-69579534D01*
X150129781Y-69774223D01*
X150222715Y-69956613D01*
X150343028Y-70122213D01*
X150487786Y-70266971D01*
X150616512Y-70360494D01*
X150653390Y-70387287D01*
X150742049Y-70432461D01*
X150835776Y-70480218D01*
X150835778Y-70480218D01*
X150835781Y-70480220D01*
X150940137Y-70514127D01*
X151030465Y-70543477D01*
X151131557Y-70559488D01*
X151232648Y-70575500D01*
X151232649Y-70575500D01*
X151437350Y-70575500D01*
X151437352Y-70575500D01*
X151568439Y-70554737D01*
X151637731Y-70563691D01*
X151691183Y-70608687D01*
X151711823Y-70675439D01*
X151693099Y-70742752D01*
X151675517Y-70764891D01*
X151302229Y-71138181D01*
X151240906Y-71171666D01*
X151214548Y-71174500D01*
X145463389Y-71174500D01*
X145342555Y-71198535D01*
X145342545Y-71198538D01*
X145316985Y-71209125D01*
X145316967Y-71209133D01*
X145315217Y-71209858D01*
X145228715Y-71245688D01*
X145222274Y-71249992D01*
X145213737Y-71255696D01*
X145213733Y-71255698D01*
X145126268Y-71314140D01*
X145090909Y-71349500D01*
X145039142Y-71401267D01*
X145039139Y-71401270D01*
X140948283Y-75492125D01*
X140886960Y-75525610D01*
X140817268Y-75520626D01*
X140787717Y-75504763D01*
X140723391Y-75458028D01*
X140698547Y-75439978D01*
X140655882Y-75384649D01*
X140649903Y-75315036D01*
X140682508Y-75253240D01*
X140732426Y-75221955D01*
X140814334Y-75194814D01*
X140963656Y-75102712D01*
X141087712Y-74978656D01*
X141179814Y-74829334D01*
X141234999Y-74662797D01*
X141245500Y-74560009D01*
X141245499Y-73359992D01*
X141234999Y-73257203D01*
X141179814Y-73090666D01*
X141087712Y-72941344D01*
X141087710Y-72941342D01*
X141083920Y-72935197D01*
X141085065Y-72934490D01*
X141061810Y-72876861D01*
X141074845Y-72808218D01*
X141097532Y-72777057D01*
X143297373Y-70577215D01*
X143358694Y-70543732D01*
X143405410Y-70544249D01*
X143405654Y-70542715D01*
X143509101Y-70559099D01*
X143612648Y-70575500D01*
X143612649Y-70575500D01*
X143817351Y-70575500D01*
X143817352Y-70575500D01*
X144019534Y-70543477D01*
X144214219Y-70480220D01*
X144396610Y-70387287D01*
X144500774Y-70311608D01*
X144562213Y-70266971D01*
X144562215Y-70266968D01*
X144562219Y-70266966D01*
X144706966Y-70122219D01*
X144706968Y-70122215D01*
X144706971Y-70122213D01*
X144778515Y-70023739D01*
X144827287Y-69956610D01*
X144920220Y-69774219D01*
X144983477Y-69579534D01*
X145015500Y-69377352D01*
X145015500Y-69172648D01*
X144983477Y-68970466D01*
X144920220Y-68775781D01*
X144920218Y-68775778D01*
X144920218Y-68775776D01*
X144886503Y-68709607D01*
X144827287Y-68593390D01*
X144819556Y-68582749D01*
X144706971Y-68427786D01*
X144562213Y-68283028D01*
X144396613Y-68162715D01*
X144396612Y-68162714D01*
X144396610Y-68162713D01*
X144298635Y-68112792D01*
X144214223Y-68069781D01*
X144019534Y-68006522D01*
X143836539Y-67977539D01*
X143817352Y-67974500D01*
X143612648Y-67974500D01*
X143593461Y-67977539D01*
X143410465Y-68006522D01*
X143215776Y-68069781D01*
X143033386Y-68162715D01*
X142867786Y-68283028D01*
X142723028Y-68427786D01*
X142602715Y-68593386D01*
X142509781Y-68775776D01*
X142446522Y-68970465D01*
X142414500Y-69172648D01*
X142414500Y-69377351D01*
X142447285Y-69584346D01*
X142445252Y-69584667D01*
X142442165Y-69645834D01*
X142412781Y-69692627D01*
X140967228Y-71138181D01*
X139546270Y-72559139D01*
X139546267Y-72559142D01*
X139522677Y-72582732D01*
X139482225Y-72623183D01*
X139420901Y-72656667D01*
X139394547Y-72659500D01*
X139344999Y-72659500D01*
X139344980Y-72659501D01*
X139242203Y-72670000D01*
X139242200Y-72670001D01*
X139075668Y-72725185D01*
X139075663Y-72725187D01*
X138926342Y-72817289D01*
X138802289Y-72941342D01*
X138710187Y-73090663D01*
X138710185Y-73090668D01*
X138694566Y-73137802D01*
X138657551Y-73249506D01*
X138617781Y-73306949D01*
X138553265Y-73333772D01*
X138539847Y-73334500D01*
X131893393Y-73334500D01*
X131859275Y-73341286D01*
X131859274Y-73341285D01*
X131772555Y-73358535D01*
X131772547Y-73358537D01*
X131730304Y-73376035D01*
X131730299Y-73376037D01*
X131727859Y-73377048D01*
X131658715Y-73405688D01*
X131658714Y-73405689D01*
X131640699Y-73417725D01*
X131640695Y-73417728D01*
X131556268Y-73474140D01*
X131512705Y-73517703D01*
X131469142Y-73561267D01*
X131469139Y-73561270D01*
X129917227Y-75113181D01*
X129855904Y-75146666D01*
X129829546Y-75149500D01*
X128864998Y-75149500D01*
X128864980Y-75149501D01*
X128762203Y-75160000D01*
X128762200Y-75160001D01*
X128595668Y-75215185D01*
X128595663Y-75215187D01*
X128446342Y-75307289D01*
X128322289Y-75431342D01*
X128230187Y-75580663D01*
X128230186Y-75580666D01*
X128175001Y-75747203D01*
X128175001Y-75747204D01*
X128175000Y-75747204D01*
X128164500Y-75849983D01*
X128164500Y-76705548D01*
X128144815Y-76772587D01*
X128092011Y-76818342D01*
X128022853Y-76828286D01*
X127959297Y-76799261D01*
X127952819Y-76793229D01*
X127563681Y-76404091D01*
X127530196Y-76342768D01*
X127535180Y-76273076D01*
X127551039Y-76243533D01*
X127683343Y-76061433D01*
X127790568Y-75850992D01*
X127863553Y-75626368D01*
X127870791Y-75580668D01*
X127900500Y-75393097D01*
X127900500Y-75156902D01*
X127863553Y-74923631D01*
X127790566Y-74699003D01*
X127719748Y-74560016D01*
X127683343Y-74488567D01*
X127544517Y-74297490D01*
X127377510Y-74130483D01*
X127186433Y-73991657D01*
X126975996Y-73884433D01*
X126751368Y-73811446D01*
X126518097Y-73774500D01*
X126518092Y-73774500D01*
X126281908Y-73774500D01*
X126281903Y-73774500D01*
X126048631Y-73811446D01*
X125824003Y-73884433D01*
X125613566Y-73991657D01*
X125516265Y-74062351D01*
X125422490Y-74130483D01*
X125422488Y-74130485D01*
X125422487Y-74130485D01*
X125255485Y-74297487D01*
X125255485Y-74297488D01*
X125255483Y-74297490D01*
X125195862Y-74379550D01*
X125116657Y-74488566D01*
X125009433Y-74699003D01*
X124936446Y-74923631D01*
X124899500Y-75156902D01*
X124899500Y-75393097D01*
X124936446Y-75626368D01*
X125009433Y-75850996D01*
X125094737Y-76018412D01*
X125116657Y-76061433D01*
X125255483Y-76252510D01*
X125422490Y-76419517D01*
X125613567Y-76558343D01*
X125699871Y-76602317D01*
X125824003Y-76665566D01*
X125824005Y-76665566D01*
X125824008Y-76665568D01*
X126048626Y-76738551D01*
X126048627Y-76738551D01*
X126048632Y-76738553D01*
X126104287Y-76747367D01*
X126167420Y-76777295D01*
X126172569Y-76782159D01*
X126954396Y-77563986D01*
X126987881Y-77625309D01*
X126982897Y-77695001D01*
X126941025Y-77750934D01*
X126875561Y-77775351D01*
X126828396Y-77769598D01*
X126726368Y-77736446D01*
X126493097Y-77699500D01*
X126493092Y-77699500D01*
X126256908Y-77699500D01*
X126256903Y-77699500D01*
X126023631Y-77736446D01*
X125799003Y-77809433D01*
X125588566Y-77916657D01*
X125525910Y-77962180D01*
X125397490Y-78055483D01*
X125397488Y-78055485D01*
X125397487Y-78055485D01*
X125230485Y-78222487D01*
X125230485Y-78222488D01*
X125230483Y-78222490D01*
X125178974Y-78293386D01*
X125091657Y-78413566D01*
X124984433Y-78624003D01*
X124911446Y-78848631D01*
X124874500Y-79081902D01*
X124874500Y-79318097D01*
X124911446Y-79551368D01*
X124984433Y-79775996D01*
X125067561Y-79939142D01*
X125091657Y-79986433D01*
X125230483Y-80177510D01*
X125397490Y-80344517D01*
X125588567Y-80483343D01*
X125687991Y-80534002D01*
X125799003Y-80590566D01*
X125799005Y-80590566D01*
X125799008Y-80590568D01*
X125851852Y-80607738D01*
X126023631Y-80663553D01*
X126256903Y-80700500D01*
X126256908Y-80700500D01*
X126493097Y-80700500D01*
X126726368Y-80663553D01*
X126732782Y-80661469D01*
X126825881Y-80631218D01*
X126895720Y-80629223D01*
X126951879Y-80661469D01*
X127498181Y-81207771D01*
X127531666Y-81269094D01*
X127534500Y-81295452D01*
X127534500Y-81907019D01*
X127514815Y-81974058D01*
X127466797Y-82017503D01*
X127452180Y-82024950D01*
X127280213Y-82149890D01*
X127129890Y-82300213D01*
X127004949Y-82472182D01*
X127000202Y-82481499D01*
X126952227Y-82532293D01*
X126884405Y-82549087D01*
X126818271Y-82526548D01*
X126779234Y-82481495D01*
X126774626Y-82472452D01*
X126735270Y-82418282D01*
X126735269Y-82418282D01*
X126143787Y-83009765D01*
X126132518Y-82967708D01*
X126060110Y-82842292D01*
X125957708Y-82739890D01*
X125832292Y-82667482D01*
X125790232Y-82656211D01*
X126381716Y-82064728D01*
X126327550Y-82025375D01*
X126138217Y-81928904D01*
X125936129Y-81863242D01*
X125726246Y-81830000D01*
X125513754Y-81830000D01*
X125303872Y-81863242D01*
X125303869Y-81863242D01*
X125101782Y-81928904D01*
X124912442Y-82025379D01*
X124822385Y-82090809D01*
X124756579Y-82114289D01*
X124688525Y-82098463D01*
X124639830Y-82048357D01*
X124625500Y-81990491D01*
X124625500Y-71381947D01*
X124875000Y-71381947D01*
X124875000Y-71618052D01*
X124911934Y-71851247D01*
X124984897Y-72075802D01*
X125092087Y-72286174D01*
X125152338Y-72369104D01*
X125152340Y-72369105D01*
X125892037Y-71629408D01*
X125909075Y-71692993D01*
X125974901Y-71807007D01*
X126067993Y-71900099D01*
X126182007Y-71965925D01*
X126245590Y-71982962D01*
X125505893Y-72722658D01*
X125588828Y-72782914D01*
X125799197Y-72890102D01*
X126023752Y-72963065D01*
X126023751Y-72963065D01*
X126256948Y-73000000D01*
X126493052Y-73000000D01*
X126726247Y-72963065D01*
X126950802Y-72890102D01*
X127161163Y-72782918D01*
X127161169Y-72782914D01*
X127244104Y-72722658D01*
X127244105Y-72722658D01*
X126504408Y-71982962D01*
X126567993Y-71965925D01*
X126682007Y-71900099D01*
X126775099Y-71807007D01*
X126840925Y-71692993D01*
X126857962Y-71629408D01*
X127597658Y-72369105D01*
X127597658Y-72369104D01*
X127657914Y-72286169D01*
X127657918Y-72286163D01*
X127765102Y-72075802D01*
X127838065Y-71851247D01*
X127875000Y-71618052D01*
X127875000Y-71381947D01*
X127838065Y-71148752D01*
X127765102Y-70924197D01*
X127657914Y-70713828D01*
X127597658Y-70630894D01*
X127597658Y-70630893D01*
X126857962Y-71370590D01*
X126840925Y-71307007D01*
X126775099Y-71192993D01*
X126682007Y-71099901D01*
X126567993Y-71034075D01*
X126504409Y-71017037D01*
X127244105Y-70277340D01*
X127244104Y-70277338D01*
X127161174Y-70217087D01*
X126950802Y-70109897D01*
X126726247Y-70036934D01*
X126726248Y-70036934D01*
X126493052Y-70000000D01*
X126256948Y-70000000D01*
X126023752Y-70036934D01*
X125799197Y-70109897D01*
X125588830Y-70217084D01*
X125505894Y-70277340D01*
X126245591Y-71017037D01*
X126182007Y-71034075D01*
X126067993Y-71099901D01*
X125974901Y-71192993D01*
X125909075Y-71307007D01*
X125892037Y-71370591D01*
X125152340Y-70630894D01*
X125092084Y-70713830D01*
X124984897Y-70924197D01*
X124911934Y-71148752D01*
X124875000Y-71381947D01*
X124625500Y-71381947D01*
X124625500Y-67681947D01*
X124875000Y-67681947D01*
X124875000Y-67918052D01*
X124911934Y-68151247D01*
X124984897Y-68375802D01*
X125092087Y-68586174D01*
X125152338Y-68669104D01*
X125152340Y-68669105D01*
X125892037Y-67929408D01*
X125909075Y-67992993D01*
X125974901Y-68107007D01*
X126067993Y-68200099D01*
X126182007Y-68265925D01*
X126245590Y-68282962D01*
X125505893Y-69022658D01*
X125588828Y-69082914D01*
X125799197Y-69190102D01*
X126023752Y-69263065D01*
X126023751Y-69263065D01*
X126256948Y-69300000D01*
X126493052Y-69300000D01*
X126726247Y-69263065D01*
X126950802Y-69190102D01*
X127161163Y-69082918D01*
X127161169Y-69082914D01*
X127244104Y-69022658D01*
X127244105Y-69022658D01*
X126504408Y-68282962D01*
X126567993Y-68265925D01*
X126682007Y-68200099D01*
X126775099Y-68107007D01*
X126840925Y-67992993D01*
X126857962Y-67929408D01*
X127597658Y-68669105D01*
X127597658Y-68669104D01*
X127657914Y-68586169D01*
X127657918Y-68586163D01*
X127765102Y-68375802D01*
X127838065Y-68151247D01*
X127838066Y-68151246D01*
X127861864Y-68000987D01*
X133374500Y-68000987D01*
X133374500Y-68296014D01*
X133391849Y-68427786D01*
X133413007Y-68588494D01*
X133463189Y-68775776D01*
X133489361Y-68873452D01*
X133489364Y-68873462D01*
X133602254Y-69146001D01*
X133602258Y-69146011D01*
X133749761Y-69401494D01*
X133929352Y-69635541D01*
X133929358Y-69635548D01*
X134137952Y-69844142D01*
X134137959Y-69844148D01*
X134372006Y-70023739D01*
X134627489Y-70171242D01*
X134627490Y-70171242D01*
X134627493Y-70171244D01*
X134738161Y-70217084D01*
X134883626Y-70277338D01*
X134900048Y-70284140D01*
X135185007Y-70360494D01*
X135477494Y-70399001D01*
X135477501Y-70399001D01*
X135772499Y-70399001D01*
X135772506Y-70399001D01*
X136064993Y-70360494D01*
X136349952Y-70284140D01*
X136622507Y-70171244D01*
X136877994Y-70023739D01*
X137112042Y-69844147D01*
X137320646Y-69635543D01*
X137500238Y-69401495D01*
X137647743Y-69146008D01*
X137760639Y-68873453D01*
X137836993Y-68588494D01*
X137875500Y-68296007D01*
X137875500Y-68000995D01*
X137836993Y-67708508D01*
X137760639Y-67423549D01*
X137647743Y-67150994D01*
X137634093Y-67127352D01*
X137500238Y-66895507D01*
X137320647Y-66661460D01*
X137320641Y-66661453D01*
X137112047Y-66452859D01*
X137112040Y-66452853D01*
X136877993Y-66273262D01*
X136622510Y-66125759D01*
X136622500Y-66125755D01*
X136349961Y-66012865D01*
X136349954Y-66012863D01*
X136349952Y-66012862D01*
X136064993Y-65936508D01*
X136016113Y-65930072D01*
X135772513Y-65898001D01*
X135772506Y-65898001D01*
X135477494Y-65898001D01*
X135477486Y-65898001D01*
X135199085Y-65934654D01*
X135185007Y-65936508D01*
X134968289Y-65994577D01*
X134900048Y-66012862D01*
X134900038Y-66012865D01*
X134627499Y-66125755D01*
X134627489Y-66125759D01*
X134372006Y-66273262D01*
X134137959Y-66452853D01*
X134137952Y-66452859D01*
X133929358Y-66661453D01*
X133929352Y-66661460D01*
X133749761Y-66895507D01*
X133602258Y-67150990D01*
X133602254Y-67151000D01*
X133489364Y-67423539D01*
X133489361Y-67423549D01*
X133421793Y-67675720D01*
X133413008Y-67708505D01*
X133413006Y-67708516D01*
X133374500Y-68000987D01*
X127861864Y-68000987D01*
X127865578Y-67977539D01*
X127865578Y-67977537D01*
X127875000Y-67918050D01*
X127875000Y-67681947D01*
X127838065Y-67448752D01*
X127765102Y-67224197D01*
X127657914Y-67013828D01*
X127597658Y-66930894D01*
X127597658Y-66930893D01*
X126857962Y-67670590D01*
X126840925Y-67607007D01*
X126775099Y-67492993D01*
X126682007Y-67399901D01*
X126567993Y-67334075D01*
X126504409Y-67317037D01*
X127244105Y-66577340D01*
X127244104Y-66577338D01*
X127161174Y-66517087D01*
X126950802Y-66409897D01*
X126726247Y-66336934D01*
X126726248Y-66336934D01*
X126493052Y-66300000D01*
X126256948Y-66300000D01*
X126023752Y-66336934D01*
X125799197Y-66409897D01*
X125588830Y-66517084D01*
X125505894Y-66577340D01*
X126245591Y-67317037D01*
X126182007Y-67334075D01*
X126067993Y-67399901D01*
X125974901Y-67492993D01*
X125909075Y-67607007D01*
X125892037Y-67670591D01*
X125152340Y-66930894D01*
X125092084Y-67013830D01*
X124984897Y-67224197D01*
X124911934Y-67448752D01*
X124875000Y-67681947D01*
X124625500Y-67681947D01*
X124625500Y-66637229D01*
X124645185Y-66570190D01*
X124661814Y-66549553D01*
X125935088Y-65276278D01*
X125996409Y-65242795D01*
X126042163Y-65241488D01*
X126099063Y-65250500D01*
X126256903Y-65275500D01*
X126256908Y-65275500D01*
X126493097Y-65275500D01*
X126726368Y-65238553D01*
X126764725Y-65226090D01*
X126950992Y-65165568D01*
X127161433Y-65058343D01*
X127352510Y-64919517D01*
X127519517Y-64752510D01*
X127658343Y-64561433D01*
X127765568Y-64350992D01*
X127838553Y-64126368D01*
X127842514Y-64101362D01*
X127875500Y-63893097D01*
X127875500Y-63656902D01*
X127838553Y-63423631D01*
X127765566Y-63199003D01*
X127658342Y-62988566D01*
X127640179Y-62963567D01*
X127519517Y-62797490D01*
X127352510Y-62630483D01*
X127161433Y-62491657D01*
X127112368Y-62466657D01*
X126950996Y-62384433D01*
X126726368Y-62311446D01*
X126493097Y-62274500D01*
X126493092Y-62274500D01*
X126256908Y-62274500D01*
X126256903Y-62274500D01*
X126023631Y-62311446D01*
X125799003Y-62384433D01*
X125588566Y-62491657D01*
X125479550Y-62570862D01*
X125397490Y-62630483D01*
X125397488Y-62630485D01*
X125397487Y-62630485D01*
X125230485Y-62797487D01*
X125230485Y-62797488D01*
X125230483Y-62797490D01*
X125209574Y-62826269D01*
X125091657Y-62988566D01*
X124984433Y-63199003D01*
X124911446Y-63423631D01*
X124874500Y-63656902D01*
X124874500Y-63893097D01*
X124908511Y-64107832D01*
X124899557Y-64177125D01*
X124873719Y-64214911D01*
X123540781Y-65547850D01*
X123479458Y-65581335D01*
X123409766Y-65576351D01*
X123353833Y-65534479D01*
X123329416Y-65469015D01*
X123329100Y-65460169D01*
X123329100Y-61515780D01*
X123348785Y-61448741D01*
X123401589Y-61402986D01*
X123453127Y-61391780D01*
X177446931Y-61404018D01*
G37*
%TD.AperFunction*%
%TD*%
M02*
