%TF.GenerationSoftware,KiCad,Pcbnew,9.0.3*%
%TF.CreationDate,2026-08-11T13:17:36-05:00*%
%TF.ProjectId,daisylab_v1,64616973-796c-4616-925f-76312e6b6963,rev?*%
%TF.SameCoordinates,Original*%
%TF.FileFunction,Legend,Top*%
%TF.FilePolarity,Positive*%
%FSLAX46Y46*%
G04 Gerber Fmt 4.6, Leading zero omitted, Abs format (unit mm)*
G04 Created by KiCad (PCBNEW 9.0.3) date 2026-08-11 13:17:36*
%MOMM*%
%LPD*%
G01*
G04 APERTURE LIST*
%ADD10C,0.150000*%
%ADD11C,0.120000*%
%ADD12C,0.100000*%
G04 APERTURE END LIST*
D10*
X127736779Y-104934875D02*
X127736779Y-103934875D01*
X127736779Y-103934875D02*
X127974874Y-103934875D01*
X127974874Y-103934875D02*
X128117731Y-103982494D01*
X128117731Y-103982494D02*
X128212969Y-104077732D01*
X128212969Y-104077732D02*
X128260588Y-104172970D01*
X128260588Y-104172970D02*
X128308207Y-104363446D01*
X128308207Y-104363446D02*
X128308207Y-104506303D01*
X128308207Y-104506303D02*
X128260588Y-104696779D01*
X128260588Y-104696779D02*
X128212969Y-104792017D01*
X128212969Y-104792017D02*
X128117731Y-104887256D01*
X128117731Y-104887256D02*
X127974874Y-104934875D01*
X127974874Y-104934875D02*
X127736779Y-104934875D01*
X129165350Y-104934875D02*
X129165350Y-104411065D01*
X129165350Y-104411065D02*
X129117731Y-104315827D01*
X129117731Y-104315827D02*
X129022493Y-104268208D01*
X129022493Y-104268208D02*
X128832017Y-104268208D01*
X128832017Y-104268208D02*
X128736779Y-104315827D01*
X129165350Y-104887256D02*
X129070112Y-104934875D01*
X129070112Y-104934875D02*
X128832017Y-104934875D01*
X128832017Y-104934875D02*
X128736779Y-104887256D01*
X128736779Y-104887256D02*
X128689160Y-104792017D01*
X128689160Y-104792017D02*
X128689160Y-104696779D01*
X128689160Y-104696779D02*
X128736779Y-104601541D01*
X128736779Y-104601541D02*
X128832017Y-104553922D01*
X128832017Y-104553922D02*
X129070112Y-104553922D01*
X129070112Y-104553922D02*
X129165350Y-104506303D01*
X129641541Y-104934875D02*
X129641541Y-104268208D01*
X129641541Y-103934875D02*
X129593922Y-103982494D01*
X129593922Y-103982494D02*
X129641541Y-104030113D01*
X129641541Y-104030113D02*
X129689160Y-103982494D01*
X129689160Y-103982494D02*
X129641541Y-103934875D01*
X129641541Y-103934875D02*
X129641541Y-104030113D01*
X130070112Y-104887256D02*
X130165350Y-104934875D01*
X130165350Y-104934875D02*
X130355826Y-104934875D01*
X130355826Y-104934875D02*
X130451064Y-104887256D01*
X130451064Y-104887256D02*
X130498683Y-104792017D01*
X130498683Y-104792017D02*
X130498683Y-104744398D01*
X130498683Y-104744398D02*
X130451064Y-104649160D01*
X130451064Y-104649160D02*
X130355826Y-104601541D01*
X130355826Y-104601541D02*
X130212969Y-104601541D01*
X130212969Y-104601541D02*
X130117731Y-104553922D01*
X130117731Y-104553922D02*
X130070112Y-104458684D01*
X130070112Y-104458684D02*
X130070112Y-104411065D01*
X130070112Y-104411065D02*
X130117731Y-104315827D01*
X130117731Y-104315827D02*
X130212969Y-104268208D01*
X130212969Y-104268208D02*
X130355826Y-104268208D01*
X130355826Y-104268208D02*
X130451064Y-104315827D01*
X130832017Y-104268208D02*
X131070112Y-104934875D01*
X131308207Y-104268208D02*
X131070112Y-104934875D01*
X131070112Y-104934875D02*
X130974874Y-105172970D01*
X130974874Y-105172970D02*
X130927255Y-105220589D01*
X130927255Y-105220589D02*
X130832017Y-105268208D01*
X132165350Y-104934875D02*
X131689160Y-104934875D01*
X131689160Y-104934875D02*
X131689160Y-103934875D01*
X132927255Y-104934875D02*
X132927255Y-104411065D01*
X132927255Y-104411065D02*
X132879636Y-104315827D01*
X132879636Y-104315827D02*
X132784398Y-104268208D01*
X132784398Y-104268208D02*
X132593922Y-104268208D01*
X132593922Y-104268208D02*
X132498684Y-104315827D01*
X132927255Y-104887256D02*
X132832017Y-104934875D01*
X132832017Y-104934875D02*
X132593922Y-104934875D01*
X132593922Y-104934875D02*
X132498684Y-104887256D01*
X132498684Y-104887256D02*
X132451065Y-104792017D01*
X132451065Y-104792017D02*
X132451065Y-104696779D01*
X132451065Y-104696779D02*
X132498684Y-104601541D01*
X132498684Y-104601541D02*
X132593922Y-104553922D01*
X132593922Y-104553922D02*
X132832017Y-104553922D01*
X132832017Y-104553922D02*
X132927255Y-104506303D01*
X133403446Y-104934875D02*
X133403446Y-103934875D01*
X133403446Y-104315827D02*
X133498684Y-104268208D01*
X133498684Y-104268208D02*
X133689160Y-104268208D01*
X133689160Y-104268208D02*
X133784398Y-104315827D01*
X133784398Y-104315827D02*
X133832017Y-104363446D01*
X133832017Y-104363446D02*
X133879636Y-104458684D01*
X133879636Y-104458684D02*
X133879636Y-104744398D01*
X133879636Y-104744398D02*
X133832017Y-104839636D01*
X133832017Y-104839636D02*
X133784398Y-104887256D01*
X133784398Y-104887256D02*
X133689160Y-104934875D01*
X133689160Y-104934875D02*
X133498684Y-104934875D01*
X133498684Y-104934875D02*
X133403446Y-104887256D01*
X134974875Y-104268208D02*
X135212970Y-104934875D01*
X135212970Y-104934875D02*
X135451065Y-104268208D01*
X136355827Y-104934875D02*
X135784399Y-104934875D01*
X136070113Y-104934875D02*
X136070113Y-103934875D01*
X136070113Y-103934875D02*
X135974875Y-104077732D01*
X135974875Y-104077732D02*
X135879637Y-104172970D01*
X135879637Y-104172970D02*
X135784399Y-104220589D01*
X127879636Y-105973390D02*
X127784398Y-105925771D01*
X127784398Y-105925771D02*
X127736779Y-105878152D01*
X127736779Y-105878152D02*
X127689160Y-105782914D01*
X127689160Y-105782914D02*
X127689160Y-105735295D01*
X127689160Y-105735295D02*
X127736779Y-105640057D01*
X127736779Y-105640057D02*
X127784398Y-105592438D01*
X127784398Y-105592438D02*
X127879636Y-105544819D01*
X127879636Y-105544819D02*
X128070112Y-105544819D01*
X128070112Y-105544819D02*
X128165350Y-105592438D01*
X128165350Y-105592438D02*
X128212969Y-105640057D01*
X128212969Y-105640057D02*
X128260588Y-105735295D01*
X128260588Y-105735295D02*
X128260588Y-105782914D01*
X128260588Y-105782914D02*
X128212969Y-105878152D01*
X128212969Y-105878152D02*
X128165350Y-105925771D01*
X128165350Y-105925771D02*
X128070112Y-105973390D01*
X128070112Y-105973390D02*
X127879636Y-105973390D01*
X127879636Y-105973390D02*
X127784398Y-106021009D01*
X127784398Y-106021009D02*
X127736779Y-106068628D01*
X127736779Y-106068628D02*
X127689160Y-106163866D01*
X127689160Y-106163866D02*
X127689160Y-106354342D01*
X127689160Y-106354342D02*
X127736779Y-106449580D01*
X127736779Y-106449580D02*
X127784398Y-106497200D01*
X127784398Y-106497200D02*
X127879636Y-106544819D01*
X127879636Y-106544819D02*
X128070112Y-106544819D01*
X128070112Y-106544819D02*
X128165350Y-106497200D01*
X128165350Y-106497200D02*
X128212969Y-106449580D01*
X128212969Y-106449580D02*
X128260588Y-106354342D01*
X128260588Y-106354342D02*
X128260588Y-106163866D01*
X128260588Y-106163866D02*
X128212969Y-106068628D01*
X128212969Y-106068628D02*
X128165350Y-106021009D01*
X128165350Y-106021009D02*
X128070112Y-105973390D01*
X129403445Y-105497200D02*
X128546303Y-106782914D01*
X130260588Y-106544819D02*
X129689160Y-106544819D01*
X129974874Y-106544819D02*
X129974874Y-105544819D01*
X129974874Y-105544819D02*
X129879636Y-105687676D01*
X129879636Y-105687676D02*
X129784398Y-105782914D01*
X129784398Y-105782914D02*
X129689160Y-105830533D01*
X130879636Y-105544819D02*
X130974874Y-105544819D01*
X130974874Y-105544819D02*
X131070112Y-105592438D01*
X131070112Y-105592438D02*
X131117731Y-105640057D01*
X131117731Y-105640057D02*
X131165350Y-105735295D01*
X131165350Y-105735295D02*
X131212969Y-105925771D01*
X131212969Y-105925771D02*
X131212969Y-106163866D01*
X131212969Y-106163866D02*
X131165350Y-106354342D01*
X131165350Y-106354342D02*
X131117731Y-106449580D01*
X131117731Y-106449580D02*
X131070112Y-106497200D01*
X131070112Y-106497200D02*
X130974874Y-106544819D01*
X130974874Y-106544819D02*
X130879636Y-106544819D01*
X130879636Y-106544819D02*
X130784398Y-106497200D01*
X130784398Y-106497200D02*
X130736779Y-106449580D01*
X130736779Y-106449580D02*
X130689160Y-106354342D01*
X130689160Y-106354342D02*
X130641541Y-106163866D01*
X130641541Y-106163866D02*
X130641541Y-105925771D01*
X130641541Y-105925771D02*
X130689160Y-105735295D01*
X130689160Y-105735295D02*
X130736779Y-105640057D01*
X130736779Y-105640057D02*
X130784398Y-105592438D01*
X130784398Y-105592438D02*
X130879636Y-105544819D01*
X132355826Y-105497200D02*
X131498684Y-106782914D01*
X132641541Y-105640057D02*
X132689160Y-105592438D01*
X132689160Y-105592438D02*
X132784398Y-105544819D01*
X132784398Y-105544819D02*
X133022493Y-105544819D01*
X133022493Y-105544819D02*
X133117731Y-105592438D01*
X133117731Y-105592438D02*
X133165350Y-105640057D01*
X133165350Y-105640057D02*
X133212969Y-105735295D01*
X133212969Y-105735295D02*
X133212969Y-105830533D01*
X133212969Y-105830533D02*
X133165350Y-105973390D01*
X133165350Y-105973390D02*
X132593922Y-106544819D01*
X132593922Y-106544819D02*
X133212969Y-106544819D01*
X133832017Y-105544819D02*
X133927255Y-105544819D01*
X133927255Y-105544819D02*
X134022493Y-105592438D01*
X134022493Y-105592438D02*
X134070112Y-105640057D01*
X134070112Y-105640057D02*
X134117731Y-105735295D01*
X134117731Y-105735295D02*
X134165350Y-105925771D01*
X134165350Y-105925771D02*
X134165350Y-106163866D01*
X134165350Y-106163866D02*
X134117731Y-106354342D01*
X134117731Y-106354342D02*
X134070112Y-106449580D01*
X134070112Y-106449580D02*
X134022493Y-106497200D01*
X134022493Y-106497200D02*
X133927255Y-106544819D01*
X133927255Y-106544819D02*
X133832017Y-106544819D01*
X133832017Y-106544819D02*
X133736779Y-106497200D01*
X133736779Y-106497200D02*
X133689160Y-106449580D01*
X133689160Y-106449580D02*
X133641541Y-106354342D01*
X133641541Y-106354342D02*
X133593922Y-106163866D01*
X133593922Y-106163866D02*
X133593922Y-105925771D01*
X133593922Y-105925771D02*
X133641541Y-105735295D01*
X133641541Y-105735295D02*
X133689160Y-105640057D01*
X133689160Y-105640057D02*
X133736779Y-105592438D01*
X133736779Y-105592438D02*
X133832017Y-105544819D01*
X134546303Y-105640057D02*
X134593922Y-105592438D01*
X134593922Y-105592438D02*
X134689160Y-105544819D01*
X134689160Y-105544819D02*
X134927255Y-105544819D01*
X134927255Y-105544819D02*
X135022493Y-105592438D01*
X135022493Y-105592438D02*
X135070112Y-105640057D01*
X135070112Y-105640057D02*
X135117731Y-105735295D01*
X135117731Y-105735295D02*
X135117731Y-105830533D01*
X135117731Y-105830533D02*
X135070112Y-105973390D01*
X135070112Y-105973390D02*
X134498684Y-106544819D01*
X134498684Y-106544819D02*
X135117731Y-106544819D01*
X135974874Y-105544819D02*
X135784398Y-105544819D01*
X135784398Y-105544819D02*
X135689160Y-105592438D01*
X135689160Y-105592438D02*
X135641541Y-105640057D01*
X135641541Y-105640057D02*
X135546303Y-105782914D01*
X135546303Y-105782914D02*
X135498684Y-105973390D01*
X135498684Y-105973390D02*
X135498684Y-106354342D01*
X135498684Y-106354342D02*
X135546303Y-106449580D01*
X135546303Y-106449580D02*
X135593922Y-106497200D01*
X135593922Y-106497200D02*
X135689160Y-106544819D01*
X135689160Y-106544819D02*
X135879636Y-106544819D01*
X135879636Y-106544819D02*
X135974874Y-106497200D01*
X135974874Y-106497200D02*
X136022493Y-106449580D01*
X136022493Y-106449580D02*
X136070112Y-106354342D01*
X136070112Y-106354342D02*
X136070112Y-106116247D01*
X136070112Y-106116247D02*
X136022493Y-106021009D01*
X136022493Y-106021009D02*
X135974874Y-105973390D01*
X135974874Y-105973390D02*
X135879636Y-105925771D01*
X135879636Y-105925771D02*
X135689160Y-105925771D01*
X135689160Y-105925771D02*
X135593922Y-105973390D01*
X135593922Y-105973390D02*
X135546303Y-106021009D01*
X135546303Y-106021009D02*
X135498684Y-106116247D01*
X139271429Y-62679819D02*
X139271429Y-61679819D01*
X139271429Y-61679819D02*
X139604762Y-62394104D01*
X139604762Y-62394104D02*
X139938095Y-61679819D01*
X139938095Y-61679819D02*
X139938095Y-62679819D01*
X140414286Y-62679819D02*
X140414286Y-61679819D01*
X140890476Y-62679819D02*
X140890476Y-61679819D01*
X140890476Y-61679819D02*
X141128571Y-61679819D01*
X141128571Y-61679819D02*
X141271428Y-61727438D01*
X141271428Y-61727438D02*
X141366666Y-61822676D01*
X141366666Y-61822676D02*
X141414285Y-61917914D01*
X141414285Y-61917914D02*
X141461904Y-62108390D01*
X141461904Y-62108390D02*
X141461904Y-62251247D01*
X141461904Y-62251247D02*
X141414285Y-62441723D01*
X141414285Y-62441723D02*
X141366666Y-62536961D01*
X141366666Y-62536961D02*
X141271428Y-62632200D01*
X141271428Y-62632200D02*
X141128571Y-62679819D01*
X141128571Y-62679819D02*
X140890476Y-62679819D01*
X141890476Y-62679819D02*
X141890476Y-61679819D01*
X142128571Y-62775057D02*
X142890475Y-62775057D01*
X143128571Y-62679819D02*
X143128571Y-61679819D01*
X143128571Y-61679819D02*
X143509523Y-61679819D01*
X143509523Y-61679819D02*
X143604761Y-61727438D01*
X143604761Y-61727438D02*
X143652380Y-61775057D01*
X143652380Y-61775057D02*
X143699999Y-61870295D01*
X143699999Y-61870295D02*
X143699999Y-62013152D01*
X143699999Y-62013152D02*
X143652380Y-62108390D01*
X143652380Y-62108390D02*
X143604761Y-62156009D01*
X143604761Y-62156009D02*
X143509523Y-62203628D01*
X143509523Y-62203628D02*
X143128571Y-62203628D01*
X144128571Y-62679819D02*
X144128571Y-61679819D01*
X144604761Y-62679819D02*
X144604761Y-61679819D01*
X144604761Y-61679819D02*
X145176189Y-62679819D01*
X145176189Y-62679819D02*
X145176189Y-61679819D01*
X146080951Y-62013152D02*
X146080951Y-62679819D01*
X145842856Y-61632200D02*
X145604761Y-62346485D01*
X145604761Y-62346485D02*
X146223808Y-62346485D01*
X132636905Y-74879819D02*
X132636905Y-73879819D01*
X132636905Y-73879819D02*
X132875000Y-73879819D01*
X132875000Y-73879819D02*
X133017857Y-73927438D01*
X133017857Y-73927438D02*
X133113095Y-74022676D01*
X133113095Y-74022676D02*
X133160714Y-74117914D01*
X133160714Y-74117914D02*
X133208333Y-74308390D01*
X133208333Y-74308390D02*
X133208333Y-74451247D01*
X133208333Y-74451247D02*
X133160714Y-74641723D01*
X133160714Y-74641723D02*
X133113095Y-74736961D01*
X133113095Y-74736961D02*
X133017857Y-74832200D01*
X133017857Y-74832200D02*
X132875000Y-74879819D01*
X132875000Y-74879819D02*
X132636905Y-74879819D01*
X134160714Y-74879819D02*
X133589286Y-74879819D01*
X133875000Y-74879819D02*
X133875000Y-73879819D01*
X133875000Y-73879819D02*
X133779762Y-74022676D01*
X133779762Y-74022676D02*
X133684524Y-74117914D01*
X133684524Y-74117914D02*
X133589286Y-74165533D01*
X130288095Y-78654819D02*
X130288095Y-77654819D01*
X130859523Y-78654819D02*
X130430952Y-78083390D01*
X130859523Y-77654819D02*
X130288095Y-78226247D01*
X159183333Y-77104819D02*
X158850000Y-76628628D01*
X158611905Y-77104819D02*
X158611905Y-76104819D01*
X158611905Y-76104819D02*
X158992857Y-76104819D01*
X158992857Y-76104819D02*
X159088095Y-76152438D01*
X159088095Y-76152438D02*
X159135714Y-76200057D01*
X159135714Y-76200057D02*
X159183333Y-76295295D01*
X159183333Y-76295295D02*
X159183333Y-76438152D01*
X159183333Y-76438152D02*
X159135714Y-76533390D01*
X159135714Y-76533390D02*
X159088095Y-76581009D01*
X159088095Y-76581009D02*
X158992857Y-76628628D01*
X158992857Y-76628628D02*
X158611905Y-76628628D01*
X160040476Y-76438152D02*
X160040476Y-77104819D01*
X159802381Y-76057200D02*
X159564286Y-76771485D01*
X159564286Y-76771485D02*
X160183333Y-76771485D01*
X128888095Y-66377438D02*
X128792857Y-66329819D01*
X128792857Y-66329819D02*
X128650000Y-66329819D01*
X128650000Y-66329819D02*
X128507143Y-66377438D01*
X128507143Y-66377438D02*
X128411905Y-66472676D01*
X128411905Y-66472676D02*
X128364286Y-66567914D01*
X128364286Y-66567914D02*
X128316667Y-66758390D01*
X128316667Y-66758390D02*
X128316667Y-66901247D01*
X128316667Y-66901247D02*
X128364286Y-67091723D01*
X128364286Y-67091723D02*
X128411905Y-67186961D01*
X128411905Y-67186961D02*
X128507143Y-67282200D01*
X128507143Y-67282200D02*
X128650000Y-67329819D01*
X128650000Y-67329819D02*
X128745238Y-67329819D01*
X128745238Y-67329819D02*
X128888095Y-67282200D01*
X128888095Y-67282200D02*
X128935714Y-67234580D01*
X128935714Y-67234580D02*
X128935714Y-66901247D01*
X128935714Y-66901247D02*
X128745238Y-66901247D01*
X129364286Y-67329819D02*
X129364286Y-66329819D01*
X129364286Y-66329819D02*
X129935714Y-67329819D01*
X129935714Y-67329819D02*
X129935714Y-66329819D01*
X130411905Y-67329819D02*
X130411905Y-66329819D01*
X130411905Y-66329819D02*
X130650000Y-66329819D01*
X130650000Y-66329819D02*
X130792857Y-66377438D01*
X130792857Y-66377438D02*
X130888095Y-66472676D01*
X130888095Y-66472676D02*
X130935714Y-66567914D01*
X130935714Y-66567914D02*
X130983333Y-66758390D01*
X130983333Y-66758390D02*
X130983333Y-66901247D01*
X130983333Y-66901247D02*
X130935714Y-67091723D01*
X130935714Y-67091723D02*
X130888095Y-67186961D01*
X130888095Y-67186961D02*
X130792857Y-67282200D01*
X130792857Y-67282200D02*
X130650000Y-67329819D01*
X130650000Y-67329819D02*
X130411905Y-67329819D01*
X128817856Y-62354819D02*
X128341666Y-62354819D01*
X128341666Y-62354819D02*
X128294047Y-62831009D01*
X128294047Y-62831009D02*
X128341666Y-62783390D01*
X128341666Y-62783390D02*
X128436904Y-62735771D01*
X128436904Y-62735771D02*
X128674999Y-62735771D01*
X128674999Y-62735771D02*
X128770237Y-62783390D01*
X128770237Y-62783390D02*
X128817856Y-62831009D01*
X128817856Y-62831009D02*
X128865475Y-62926247D01*
X128865475Y-62926247D02*
X128865475Y-63164342D01*
X128865475Y-63164342D02*
X128817856Y-63259580D01*
X128817856Y-63259580D02*
X128770237Y-63307200D01*
X128770237Y-63307200D02*
X128674999Y-63354819D01*
X128674999Y-63354819D02*
X128436904Y-63354819D01*
X128436904Y-63354819D02*
X128341666Y-63307200D01*
X128341666Y-63307200D02*
X128294047Y-63259580D01*
X129198809Y-62688152D02*
X129436904Y-63354819D01*
X129436904Y-63354819D02*
X129674999Y-62688152D01*
X129817857Y-63450057D02*
X130579761Y-63450057D01*
X130817857Y-63354819D02*
X130817857Y-62354819D01*
X130817857Y-62354819D02*
X131198809Y-62354819D01*
X131198809Y-62354819D02*
X131294047Y-62402438D01*
X131294047Y-62402438D02*
X131341666Y-62450057D01*
X131341666Y-62450057D02*
X131389285Y-62545295D01*
X131389285Y-62545295D02*
X131389285Y-62688152D01*
X131389285Y-62688152D02*
X131341666Y-62783390D01*
X131341666Y-62783390D02*
X131294047Y-62831009D01*
X131294047Y-62831009D02*
X131198809Y-62878628D01*
X131198809Y-62878628D02*
X130817857Y-62878628D01*
X131722619Y-62688152D02*
X131913095Y-63354819D01*
X131913095Y-63354819D02*
X132103571Y-62878628D01*
X132103571Y-62878628D02*
X132294047Y-63354819D01*
X132294047Y-63354819D02*
X132484523Y-62688152D01*
X132865476Y-63354819D02*
X132865476Y-62688152D01*
X132865476Y-62878628D02*
X132913095Y-62783390D01*
X132913095Y-62783390D02*
X132960714Y-62735771D01*
X132960714Y-62735771D02*
X133055952Y-62688152D01*
X133055952Y-62688152D02*
X133151190Y-62688152D01*
X128434523Y-74204819D02*
X127958333Y-74204819D01*
X127958333Y-74204819D02*
X127958333Y-73204819D01*
X129148809Y-74157200D02*
X129053571Y-74204819D01*
X129053571Y-74204819D02*
X128863095Y-74204819D01*
X128863095Y-74204819D02*
X128767857Y-74157200D01*
X128767857Y-74157200D02*
X128720238Y-74061961D01*
X128720238Y-74061961D02*
X128720238Y-73681009D01*
X128720238Y-73681009D02*
X128767857Y-73585771D01*
X128767857Y-73585771D02*
X128863095Y-73538152D01*
X128863095Y-73538152D02*
X129053571Y-73538152D01*
X129053571Y-73538152D02*
X129148809Y-73585771D01*
X129148809Y-73585771D02*
X129196428Y-73681009D01*
X129196428Y-73681009D02*
X129196428Y-73776247D01*
X129196428Y-73776247D02*
X128720238Y-73871485D01*
X129482143Y-73538152D02*
X129863095Y-73538152D01*
X129625000Y-74204819D02*
X129625000Y-73347676D01*
X129625000Y-73347676D02*
X129672619Y-73252438D01*
X129672619Y-73252438D02*
X129767857Y-73204819D01*
X129767857Y-73204819D02*
X129863095Y-73204819D01*
X130053572Y-73538152D02*
X130434524Y-73538152D01*
X130196429Y-73204819D02*
X130196429Y-74061961D01*
X130196429Y-74061961D02*
X130244048Y-74157200D01*
X130244048Y-74157200D02*
X130339286Y-74204819D01*
X130339286Y-74204819D02*
X130434524Y-74204819D01*
X174379304Y-86383485D02*
X174379304Y-85907295D01*
X174665019Y-86478723D02*
X173665019Y-86145390D01*
X173665019Y-86145390D02*
X174665019Y-85812057D01*
X173760257Y-85526342D02*
X173712638Y-85478723D01*
X173712638Y-85478723D02*
X173665019Y-85383485D01*
X173665019Y-85383485D02*
X173665019Y-85145390D01*
X173665019Y-85145390D02*
X173712638Y-85050152D01*
X173712638Y-85050152D02*
X173760257Y-85002533D01*
X173760257Y-85002533D02*
X173855495Y-84954914D01*
X173855495Y-84954914D02*
X173950733Y-84954914D01*
X173950733Y-84954914D02*
X174093590Y-85002533D01*
X174093590Y-85002533D02*
X174665019Y-85573961D01*
X174665019Y-85573961D02*
X174665019Y-84954914D01*
X147508333Y-67554819D02*
X147175000Y-67078628D01*
X146936905Y-67554819D02*
X146936905Y-66554819D01*
X146936905Y-66554819D02*
X147317857Y-66554819D01*
X147317857Y-66554819D02*
X147413095Y-66602438D01*
X147413095Y-66602438D02*
X147460714Y-66650057D01*
X147460714Y-66650057D02*
X147508333Y-66745295D01*
X147508333Y-66745295D02*
X147508333Y-66888152D01*
X147508333Y-66888152D02*
X147460714Y-66983390D01*
X147460714Y-66983390D02*
X147413095Y-67031009D01*
X147413095Y-67031009D02*
X147317857Y-67078628D01*
X147317857Y-67078628D02*
X146936905Y-67078628D01*
X148460714Y-67554819D02*
X147889286Y-67554819D01*
X148175000Y-67554819D02*
X148175000Y-66554819D01*
X148175000Y-66554819D02*
X148079762Y-66697676D01*
X148079762Y-66697676D02*
X147984524Y-66792914D01*
X147984524Y-66792914D02*
X147889286Y-66840533D01*
X128813095Y-70327438D02*
X128717857Y-70279819D01*
X128717857Y-70279819D02*
X128575000Y-70279819D01*
X128575000Y-70279819D02*
X128432143Y-70327438D01*
X128432143Y-70327438D02*
X128336905Y-70422676D01*
X128336905Y-70422676D02*
X128289286Y-70517914D01*
X128289286Y-70517914D02*
X128241667Y-70708390D01*
X128241667Y-70708390D02*
X128241667Y-70851247D01*
X128241667Y-70851247D02*
X128289286Y-71041723D01*
X128289286Y-71041723D02*
X128336905Y-71136961D01*
X128336905Y-71136961D02*
X128432143Y-71232200D01*
X128432143Y-71232200D02*
X128575000Y-71279819D01*
X128575000Y-71279819D02*
X128670238Y-71279819D01*
X128670238Y-71279819D02*
X128813095Y-71232200D01*
X128813095Y-71232200D02*
X128860714Y-71184580D01*
X128860714Y-71184580D02*
X128860714Y-70851247D01*
X128860714Y-70851247D02*
X128670238Y-70851247D01*
X129289286Y-71279819D02*
X129289286Y-70279819D01*
X129289286Y-70279819D02*
X129860714Y-71279819D01*
X129860714Y-71279819D02*
X129860714Y-70279819D01*
X130336905Y-71279819D02*
X130336905Y-70279819D01*
X130336905Y-70279819D02*
X130575000Y-70279819D01*
X130575000Y-70279819D02*
X130717857Y-70327438D01*
X130717857Y-70327438D02*
X130813095Y-70422676D01*
X130813095Y-70422676D02*
X130860714Y-70517914D01*
X130860714Y-70517914D02*
X130908333Y-70708390D01*
X130908333Y-70708390D02*
X130908333Y-70851247D01*
X130908333Y-70851247D02*
X130860714Y-71041723D01*
X130860714Y-71041723D02*
X130813095Y-71136961D01*
X130813095Y-71136961D02*
X130717857Y-71232200D01*
X130717857Y-71232200D02*
X130575000Y-71279819D01*
X130575000Y-71279819D02*
X130336905Y-71279819D01*
X152971429Y-62654819D02*
X152971429Y-61654819D01*
X152971429Y-61654819D02*
X153304762Y-62369104D01*
X153304762Y-62369104D02*
X153638095Y-61654819D01*
X153638095Y-61654819D02*
X153638095Y-62654819D01*
X154114286Y-62654819D02*
X154114286Y-61654819D01*
X154590476Y-62654819D02*
X154590476Y-61654819D01*
X154590476Y-61654819D02*
X154828571Y-61654819D01*
X154828571Y-61654819D02*
X154971428Y-61702438D01*
X154971428Y-61702438D02*
X155066666Y-61797676D01*
X155066666Y-61797676D02*
X155114285Y-61892914D01*
X155114285Y-61892914D02*
X155161904Y-62083390D01*
X155161904Y-62083390D02*
X155161904Y-62226247D01*
X155161904Y-62226247D02*
X155114285Y-62416723D01*
X155114285Y-62416723D02*
X155066666Y-62511961D01*
X155066666Y-62511961D02*
X154971428Y-62607200D01*
X154971428Y-62607200D02*
X154828571Y-62654819D01*
X154828571Y-62654819D02*
X154590476Y-62654819D01*
X155590476Y-62654819D02*
X155590476Y-61654819D01*
X155828571Y-62750057D02*
X156590475Y-62750057D01*
X156828571Y-62654819D02*
X156828571Y-61654819D01*
X156828571Y-61654819D02*
X157209523Y-61654819D01*
X157209523Y-61654819D02*
X157304761Y-61702438D01*
X157304761Y-61702438D02*
X157352380Y-61750057D01*
X157352380Y-61750057D02*
X157399999Y-61845295D01*
X157399999Y-61845295D02*
X157399999Y-61988152D01*
X157399999Y-61988152D02*
X157352380Y-62083390D01*
X157352380Y-62083390D02*
X157304761Y-62131009D01*
X157304761Y-62131009D02*
X157209523Y-62178628D01*
X157209523Y-62178628D02*
X156828571Y-62178628D01*
X157828571Y-62654819D02*
X157828571Y-61654819D01*
X158304761Y-62654819D02*
X158304761Y-61654819D01*
X158304761Y-61654819D02*
X158876189Y-62654819D01*
X158876189Y-62654819D02*
X158876189Y-61654819D01*
X159828570Y-61654819D02*
X159352380Y-61654819D01*
X159352380Y-61654819D02*
X159304761Y-62131009D01*
X159304761Y-62131009D02*
X159352380Y-62083390D01*
X159352380Y-62083390D02*
X159447618Y-62035771D01*
X159447618Y-62035771D02*
X159685713Y-62035771D01*
X159685713Y-62035771D02*
X159780951Y-62083390D01*
X159780951Y-62083390D02*
X159828570Y-62131009D01*
X159828570Y-62131009D02*
X159876189Y-62226247D01*
X159876189Y-62226247D02*
X159876189Y-62464342D01*
X159876189Y-62464342D02*
X159828570Y-62559580D01*
X159828570Y-62559580D02*
X159780951Y-62607200D01*
X159780951Y-62607200D02*
X159685713Y-62654819D01*
X159685713Y-62654819D02*
X159447618Y-62654819D01*
X159447618Y-62654819D02*
X159352380Y-62607200D01*
X159352380Y-62607200D02*
X159304761Y-62559580D01*
X154609580Y-77091666D02*
X154657200Y-77139285D01*
X154657200Y-77139285D02*
X154704819Y-77282142D01*
X154704819Y-77282142D02*
X154704819Y-77377380D01*
X154704819Y-77377380D02*
X154657200Y-77520237D01*
X154657200Y-77520237D02*
X154561961Y-77615475D01*
X154561961Y-77615475D02*
X154466723Y-77663094D01*
X154466723Y-77663094D02*
X154276247Y-77710713D01*
X154276247Y-77710713D02*
X154133390Y-77710713D01*
X154133390Y-77710713D02*
X153942914Y-77663094D01*
X153942914Y-77663094D02*
X153847676Y-77615475D01*
X153847676Y-77615475D02*
X153752438Y-77520237D01*
X153752438Y-77520237D02*
X153704819Y-77377380D01*
X153704819Y-77377380D02*
X153704819Y-77282142D01*
X153704819Y-77282142D02*
X153752438Y-77139285D01*
X153752438Y-77139285D02*
X153800057Y-77091666D01*
X153704819Y-76758332D02*
X153704819Y-76139285D01*
X153704819Y-76139285D02*
X154085771Y-76472618D01*
X154085771Y-76472618D02*
X154085771Y-76329761D01*
X154085771Y-76329761D02*
X154133390Y-76234523D01*
X154133390Y-76234523D02*
X154181009Y-76186904D01*
X154181009Y-76186904D02*
X154276247Y-76139285D01*
X154276247Y-76139285D02*
X154514342Y-76139285D01*
X154514342Y-76139285D02*
X154609580Y-76186904D01*
X154609580Y-76186904D02*
X154657200Y-76234523D01*
X154657200Y-76234523D02*
X154704819Y-76329761D01*
X154704819Y-76329761D02*
X154704819Y-76615475D01*
X154704819Y-76615475D02*
X154657200Y-76710713D01*
X154657200Y-76710713D02*
X154609580Y-76758332D01*
X146558333Y-93929819D02*
X146225000Y-93453628D01*
X145986905Y-93929819D02*
X145986905Y-92929819D01*
X145986905Y-92929819D02*
X146367857Y-92929819D01*
X146367857Y-92929819D02*
X146463095Y-92977438D01*
X146463095Y-92977438D02*
X146510714Y-93025057D01*
X146510714Y-93025057D02*
X146558333Y-93120295D01*
X146558333Y-93120295D02*
X146558333Y-93263152D01*
X146558333Y-93263152D02*
X146510714Y-93358390D01*
X146510714Y-93358390D02*
X146463095Y-93406009D01*
X146463095Y-93406009D02*
X146367857Y-93453628D01*
X146367857Y-93453628D02*
X145986905Y-93453628D01*
X146939286Y-93025057D02*
X146986905Y-92977438D01*
X146986905Y-92977438D02*
X147082143Y-92929819D01*
X147082143Y-92929819D02*
X147320238Y-92929819D01*
X147320238Y-92929819D02*
X147415476Y-92977438D01*
X147415476Y-92977438D02*
X147463095Y-93025057D01*
X147463095Y-93025057D02*
X147510714Y-93120295D01*
X147510714Y-93120295D02*
X147510714Y-93215533D01*
X147510714Y-93215533D02*
X147463095Y-93358390D01*
X147463095Y-93358390D02*
X146891667Y-93929819D01*
X146891667Y-93929819D02*
X147510714Y-93929819D01*
X142993095Y-71084819D02*
X142993095Y-71894342D01*
X142993095Y-71894342D02*
X143040714Y-71989580D01*
X143040714Y-71989580D02*
X143088333Y-72037200D01*
X143088333Y-72037200D02*
X143183571Y-72084819D01*
X143183571Y-72084819D02*
X143374047Y-72084819D01*
X143374047Y-72084819D02*
X143469285Y-72037200D01*
X143469285Y-72037200D02*
X143516904Y-71989580D01*
X143516904Y-71989580D02*
X143564523Y-71894342D01*
X143564523Y-71894342D02*
X143564523Y-71084819D01*
X144564523Y-72084819D02*
X143993095Y-72084819D01*
X144278809Y-72084819D02*
X144278809Y-71084819D01*
X144278809Y-71084819D02*
X144183571Y-71227676D01*
X144183571Y-71227676D02*
X144088333Y-71322914D01*
X144088333Y-71322914D02*
X143993095Y-71370533D01*
X175658333Y-63209580D02*
X175610714Y-63257200D01*
X175610714Y-63257200D02*
X175467857Y-63304819D01*
X175467857Y-63304819D02*
X175372619Y-63304819D01*
X175372619Y-63304819D02*
X175229762Y-63257200D01*
X175229762Y-63257200D02*
X175134524Y-63161961D01*
X175134524Y-63161961D02*
X175086905Y-63066723D01*
X175086905Y-63066723D02*
X175039286Y-62876247D01*
X175039286Y-62876247D02*
X175039286Y-62733390D01*
X175039286Y-62733390D02*
X175086905Y-62542914D01*
X175086905Y-62542914D02*
X175134524Y-62447676D01*
X175134524Y-62447676D02*
X175229762Y-62352438D01*
X175229762Y-62352438D02*
X175372619Y-62304819D01*
X175372619Y-62304819D02*
X175467857Y-62304819D01*
X175467857Y-62304819D02*
X175610714Y-62352438D01*
X175610714Y-62352438D02*
X175658333Y-62400057D01*
X176039286Y-62400057D02*
X176086905Y-62352438D01*
X176086905Y-62352438D02*
X176182143Y-62304819D01*
X176182143Y-62304819D02*
X176420238Y-62304819D01*
X176420238Y-62304819D02*
X176515476Y-62352438D01*
X176515476Y-62352438D02*
X176563095Y-62400057D01*
X176563095Y-62400057D02*
X176610714Y-62495295D01*
X176610714Y-62495295D02*
X176610714Y-62590533D01*
X176610714Y-62590533D02*
X176563095Y-62733390D01*
X176563095Y-62733390D02*
X175991667Y-63304819D01*
X175991667Y-63304819D02*
X176610714Y-63304819D01*
X168533333Y-74884580D02*
X168485714Y-74932200D01*
X168485714Y-74932200D02*
X168342857Y-74979819D01*
X168342857Y-74979819D02*
X168247619Y-74979819D01*
X168247619Y-74979819D02*
X168104762Y-74932200D01*
X168104762Y-74932200D02*
X168009524Y-74836961D01*
X168009524Y-74836961D02*
X167961905Y-74741723D01*
X167961905Y-74741723D02*
X167914286Y-74551247D01*
X167914286Y-74551247D02*
X167914286Y-74408390D01*
X167914286Y-74408390D02*
X167961905Y-74217914D01*
X167961905Y-74217914D02*
X168009524Y-74122676D01*
X168009524Y-74122676D02*
X168104762Y-74027438D01*
X168104762Y-74027438D02*
X168247619Y-73979819D01*
X168247619Y-73979819D02*
X168342857Y-73979819D01*
X168342857Y-73979819D02*
X168485714Y-74027438D01*
X168485714Y-74027438D02*
X168533333Y-74075057D01*
X169485714Y-74979819D02*
X168914286Y-74979819D01*
X169200000Y-74979819D02*
X169200000Y-73979819D01*
X169200000Y-73979819D02*
X169104762Y-74122676D01*
X169104762Y-74122676D02*
X169009524Y-74217914D01*
X169009524Y-74217914D02*
X168914286Y-74265533D01*
X163208333Y-63104819D02*
X162875000Y-62628628D01*
X162636905Y-63104819D02*
X162636905Y-62104819D01*
X162636905Y-62104819D02*
X163017857Y-62104819D01*
X163017857Y-62104819D02*
X163113095Y-62152438D01*
X163113095Y-62152438D02*
X163160714Y-62200057D01*
X163160714Y-62200057D02*
X163208333Y-62295295D01*
X163208333Y-62295295D02*
X163208333Y-62438152D01*
X163208333Y-62438152D02*
X163160714Y-62533390D01*
X163160714Y-62533390D02*
X163113095Y-62581009D01*
X163113095Y-62581009D02*
X163017857Y-62628628D01*
X163017857Y-62628628D02*
X162636905Y-62628628D01*
X163541667Y-62104819D02*
X164160714Y-62104819D01*
X164160714Y-62104819D02*
X163827381Y-62485771D01*
X163827381Y-62485771D02*
X163970238Y-62485771D01*
X163970238Y-62485771D02*
X164065476Y-62533390D01*
X164065476Y-62533390D02*
X164113095Y-62581009D01*
X164113095Y-62581009D02*
X164160714Y-62676247D01*
X164160714Y-62676247D02*
X164160714Y-62914342D01*
X164160714Y-62914342D02*
X164113095Y-63009580D01*
X164113095Y-63009580D02*
X164065476Y-63057200D01*
X164065476Y-63057200D02*
X163970238Y-63104819D01*
X163970238Y-63104819D02*
X163684524Y-63104819D01*
X163684524Y-63104819D02*
X163589286Y-63057200D01*
X163589286Y-63057200D02*
X163541667Y-63009580D01*
X128830952Y-80504819D02*
X128497619Y-80028628D01*
X128259524Y-80504819D02*
X128259524Y-79504819D01*
X128259524Y-79504819D02*
X128640476Y-79504819D01*
X128640476Y-79504819D02*
X128735714Y-79552438D01*
X128735714Y-79552438D02*
X128783333Y-79600057D01*
X128783333Y-79600057D02*
X128830952Y-79695295D01*
X128830952Y-79695295D02*
X128830952Y-79838152D01*
X128830952Y-79838152D02*
X128783333Y-79933390D01*
X128783333Y-79933390D02*
X128735714Y-79981009D01*
X128735714Y-79981009D02*
X128640476Y-80028628D01*
X128640476Y-80028628D02*
X128259524Y-80028628D01*
X129259524Y-80504819D02*
X129259524Y-79838152D01*
X129259524Y-79504819D02*
X129211905Y-79552438D01*
X129211905Y-79552438D02*
X129259524Y-79600057D01*
X129259524Y-79600057D02*
X129307143Y-79552438D01*
X129307143Y-79552438D02*
X129259524Y-79504819D01*
X129259524Y-79504819D02*
X129259524Y-79600057D01*
X130164285Y-79838152D02*
X130164285Y-80647676D01*
X130164285Y-80647676D02*
X130116666Y-80742914D01*
X130116666Y-80742914D02*
X130069047Y-80790533D01*
X130069047Y-80790533D02*
X129973809Y-80838152D01*
X129973809Y-80838152D02*
X129830952Y-80838152D01*
X129830952Y-80838152D02*
X129735714Y-80790533D01*
X130164285Y-80457200D02*
X130069047Y-80504819D01*
X130069047Y-80504819D02*
X129878571Y-80504819D01*
X129878571Y-80504819D02*
X129783333Y-80457200D01*
X129783333Y-80457200D02*
X129735714Y-80409580D01*
X129735714Y-80409580D02*
X129688095Y-80314342D01*
X129688095Y-80314342D02*
X129688095Y-80028628D01*
X129688095Y-80028628D02*
X129735714Y-79933390D01*
X129735714Y-79933390D02*
X129783333Y-79885771D01*
X129783333Y-79885771D02*
X129878571Y-79838152D01*
X129878571Y-79838152D02*
X130069047Y-79838152D01*
X130069047Y-79838152D02*
X130164285Y-79885771D01*
X130640476Y-80504819D02*
X130640476Y-79504819D01*
X131069047Y-80504819D02*
X131069047Y-79981009D01*
X131069047Y-79981009D02*
X131021428Y-79885771D01*
X131021428Y-79885771D02*
X130926190Y-79838152D01*
X130926190Y-79838152D02*
X130783333Y-79838152D01*
X130783333Y-79838152D02*
X130688095Y-79885771D01*
X130688095Y-79885771D02*
X130640476Y-79933390D01*
X131402381Y-79838152D02*
X131783333Y-79838152D01*
X131545238Y-79504819D02*
X131545238Y-80361961D01*
X131545238Y-80361961D02*
X131592857Y-80457200D01*
X131592857Y-80457200D02*
X131688095Y-80504819D01*
X131688095Y-80504819D02*
X131783333Y-80504819D01*
D11*
%TO.C,MIDI_PIN4*%
X148950000Y-63750000D02*
G75*
G02*
X146550000Y-63750000I-1200000J0D01*
G01*
X146550000Y-63750000D02*
G75*
G02*
X148950000Y-63750000I1200000J0D01*
G01*
%TO.C,D1*%
X130505000Y-76450000D02*
X131155000Y-76450000D01*
X131755000Y-75330000D02*
X131755000Y-77570000D01*
X131875000Y-75330000D02*
X131875000Y-77570000D01*
X131995000Y-75330000D02*
X131995000Y-77570000D01*
X136045000Y-76450000D02*
X135395000Y-76450000D01*
X131155000Y-75330000D02*
X135395000Y-75330000D01*
X135395000Y-77570000D01*
X131155000Y-77570000D01*
X131155000Y-75330000D01*
%TO.C,R4*%
X156230000Y-77605000D02*
X156230000Y-77935000D01*
X156230000Y-80345000D02*
X156230000Y-80015000D01*
X162770000Y-77605000D02*
X156230000Y-77605000D01*
X162770000Y-77935000D02*
X162770000Y-77605000D01*
X162770000Y-80015000D02*
X162770000Y-80345000D01*
X162770000Y-80345000D02*
X156230000Y-80345000D01*
%TO.C,GND*%
X127575000Y-67800000D02*
G75*
G02*
X125175000Y-67800000I-1200000J0D01*
G01*
X125175000Y-67800000D02*
G75*
G02*
X127575000Y-67800000I1200000J0D01*
G01*
%TO.C,5v_Pwr*%
X127575000Y-63775000D02*
G75*
G02*
X125175000Y-63775000I-1200000J0D01*
G01*
X125175000Y-63775000D02*
G75*
G02*
X127575000Y-63775000I1200000J0D01*
G01*
D12*
%TO.C,REF\u002A\u002A*%
X139560734Y-68148501D02*
G75*
G02*
X131689266Y-68148501I-3935734J0D01*
G01*
X131689266Y-68148501D02*
G75*
G02*
X139560734Y-68148501I3935734J0D01*
G01*
D11*
%TO.C,Left*%
X127600000Y-75275000D02*
G75*
G02*
X125200000Y-75275000I-1200000J0D01*
G01*
X125200000Y-75275000D02*
G75*
G02*
X127600000Y-75275000I1200000J0D01*
G01*
%TO.C,A2*%
X124280000Y-81900000D02*
X175280000Y-81900000D01*
X124280000Y-99700000D02*
X124280000Y-81900000D01*
X175280000Y-81900000D02*
X175280000Y-99700000D01*
X175280000Y-84380000D02*
X124280000Y-84380000D01*
X175280000Y-86800000D02*
X176480000Y-86800000D01*
X175280000Y-97180000D02*
X124280000Y-97180000D01*
X175280000Y-99700000D02*
X124280000Y-99700000D01*
X175580000Y-81600000D02*
X173180000Y-81600000D01*
X175580000Y-83900000D02*
X175580000Y-81600000D01*
X176480000Y-86800000D02*
X176480000Y-94800000D01*
X176480000Y-94800000D02*
X175280000Y-94800000D01*
%TO.C,R1*%
X144255000Y-67905000D02*
X144255000Y-68235000D01*
X144255000Y-70645000D02*
X144255000Y-70315000D01*
X150795000Y-67905000D02*
X144255000Y-67905000D01*
X150795000Y-68235000D02*
X150795000Y-67905000D01*
X150795000Y-70315000D02*
X150795000Y-70645000D01*
X150795000Y-70645000D02*
X144255000Y-70645000D01*
%TO.C,GND*%
X127575000Y-71500000D02*
G75*
G02*
X125175000Y-71500000I-1200000J0D01*
G01*
X125175000Y-71500000D02*
G75*
G02*
X127575000Y-71500000I1200000J0D01*
G01*
%TO.C,MIDI_PIN5*%
X152850000Y-63700000D02*
G75*
G02*
X150450000Y-63700000I-1200000J0D01*
G01*
X150450000Y-63700000D02*
G75*
G02*
X152850000Y-63700000I1200000J0D01*
G01*
%TO.C,C3*%
X150380000Y-73805000D02*
X150915000Y-73805000D01*
X150380000Y-80045000D02*
X150380000Y-73805000D01*
X150915000Y-80045000D02*
X150380000Y-80045000D01*
X152585000Y-73805000D02*
X153120000Y-73805000D01*
X153120000Y-73805000D02*
X153120000Y-80045000D01*
X153120000Y-80045000D02*
X152585000Y-80045000D01*
%TO.C,R2*%
X143480000Y-89630000D02*
X143480000Y-89960000D01*
X143480000Y-92370000D02*
X143480000Y-92040000D01*
X150020000Y-89630000D02*
X143480000Y-89630000D01*
X150020000Y-89960000D02*
X150020000Y-89630000D01*
X150020000Y-92040000D02*
X150020000Y-92370000D01*
X150020000Y-92370000D02*
X143480000Y-92370000D01*
%TO.C,U1*%
X141105000Y-72630000D02*
X141105000Y-80370000D01*
X141105000Y-80370000D02*
X146405000Y-80370000D01*
X142755000Y-72630000D02*
X141105000Y-72630000D01*
X146405000Y-72630000D02*
X144755000Y-72630000D01*
X146405000Y-80370000D02*
X146405000Y-72630000D01*
X144755000Y-72630000D02*
G75*
G02*
X142755000Y-72630000I-1000000J0D01*
G01*
%TO.C,C2*%
X168290302Y-64710000D02*
X169090302Y-64710000D01*
X168690302Y-64310000D02*
X168690302Y-65110000D01*
X172700000Y-62945000D02*
X172700000Y-71105000D01*
X172740000Y-62945000D02*
X172740000Y-71105000D01*
X172780000Y-62946000D02*
X172780000Y-71104000D01*
X172820000Y-62947000D02*
X172820000Y-71103000D01*
X172860000Y-62948000D02*
X172860000Y-71102000D01*
X172900000Y-62950000D02*
X172900000Y-71100000D01*
X172940000Y-62952000D02*
X172940000Y-71098000D01*
X172980000Y-62955000D02*
X172980000Y-71095000D01*
X173020000Y-62957000D02*
X173020000Y-71093000D01*
X173060000Y-62961000D02*
X173060000Y-71089000D01*
X173100000Y-62964000D02*
X173100000Y-71086000D01*
X173140000Y-62969000D02*
X173140000Y-71081000D01*
X173180000Y-62973000D02*
X173180000Y-71077000D01*
X173220000Y-62978000D02*
X173220000Y-71072000D01*
X173260000Y-62983000D02*
X173260000Y-71067000D01*
X173300000Y-62989000D02*
X173300000Y-71061000D01*
X173340000Y-62995000D02*
X173340000Y-71055000D01*
X173380000Y-63002000D02*
X173380000Y-71048000D01*
X173420000Y-63008000D02*
X173420000Y-65985000D01*
X173420000Y-68065000D02*
X173420000Y-71042000D01*
X173460000Y-63016000D02*
X173460000Y-65985000D01*
X173460000Y-68065000D02*
X173460000Y-71034000D01*
X173500000Y-63023000D02*
X173500000Y-65985000D01*
X173500000Y-68065000D02*
X173500000Y-71027000D01*
X173540000Y-63032000D02*
X173540000Y-65985000D01*
X173540000Y-68065000D02*
X173540000Y-71018000D01*
X173580000Y-63040000D02*
X173580000Y-65985000D01*
X173580000Y-68065000D02*
X173580000Y-71010000D01*
X173620000Y-63049000D02*
X173620000Y-65985000D01*
X173620000Y-68065000D02*
X173620000Y-71001000D01*
X173660000Y-63058000D02*
X173660000Y-65985000D01*
X173660000Y-68065000D02*
X173660000Y-70992000D01*
X173700000Y-63068000D02*
X173700000Y-65985000D01*
X173700000Y-68065000D02*
X173700000Y-70982000D01*
X173740000Y-63078000D02*
X173740000Y-65985000D01*
X173740000Y-68065000D02*
X173740000Y-70972000D01*
X173780000Y-63089000D02*
X173780000Y-65985000D01*
X173780000Y-68065000D02*
X173780000Y-70961000D01*
X173820000Y-63100000D02*
X173820000Y-65985000D01*
X173820000Y-68065000D02*
X173820000Y-70950000D01*
X173860000Y-63112000D02*
X173860000Y-65985000D01*
X173860000Y-68065000D02*
X173860000Y-70938000D01*
X173900000Y-63124000D02*
X173900000Y-65985000D01*
X173900000Y-68065000D02*
X173900000Y-70926000D01*
X173940000Y-63136000D02*
X173940000Y-65985000D01*
X173940000Y-68065000D02*
X173940000Y-70914000D01*
X173980000Y-63149000D02*
X173980000Y-65985000D01*
X173980000Y-68065000D02*
X173980000Y-70901000D01*
X174020000Y-63162000D02*
X174020000Y-65985000D01*
X174020000Y-68065000D02*
X174020000Y-70888000D01*
X174060000Y-63176000D02*
X174060000Y-65985000D01*
X174060000Y-68065000D02*
X174060000Y-70874000D01*
X174100000Y-63190000D02*
X174100000Y-65985000D01*
X174100000Y-68065000D02*
X174100000Y-70860000D01*
X174140000Y-63205000D02*
X174140000Y-65985000D01*
X174140000Y-68065000D02*
X174140000Y-70845000D01*
X174180000Y-63220000D02*
X174180000Y-65985000D01*
X174180000Y-68065000D02*
X174180000Y-70830000D01*
X174220000Y-63236000D02*
X174220000Y-65985000D01*
X174220000Y-68065000D02*
X174220000Y-70814000D01*
X174260000Y-63252000D02*
X174260000Y-65985000D01*
X174260000Y-68065000D02*
X174260000Y-70798000D01*
X174300000Y-63268000D02*
X174300000Y-65985000D01*
X174300000Y-68065000D02*
X174300000Y-70782000D01*
X174340000Y-63285000D02*
X174340000Y-65985000D01*
X174340000Y-68065000D02*
X174340000Y-70765000D01*
X174380000Y-63303000D02*
X174380000Y-65985000D01*
X174380000Y-68065000D02*
X174380000Y-70747000D01*
X174420000Y-63321000D02*
X174420000Y-65985000D01*
X174420000Y-68065000D02*
X174420000Y-70729000D01*
X174460000Y-63340000D02*
X174460000Y-65985000D01*
X174460000Y-68065000D02*
X174460000Y-70710000D01*
X174500000Y-63359000D02*
X174500000Y-65985000D01*
X174500000Y-68065000D02*
X174500000Y-70691000D01*
X174540000Y-63379000D02*
X174540000Y-65985000D01*
X174540000Y-68065000D02*
X174540000Y-70671000D01*
X174580000Y-63399000D02*
X174580000Y-65985000D01*
X174580000Y-68065000D02*
X174580000Y-70651000D01*
X174620000Y-63420000D02*
X174620000Y-65985000D01*
X174620000Y-68065000D02*
X174620000Y-70630000D01*
X174660000Y-63441000D02*
X174660000Y-65985000D01*
X174660000Y-68065000D02*
X174660000Y-70609000D01*
X174700000Y-63463000D02*
X174700000Y-65985000D01*
X174700000Y-68065000D02*
X174700000Y-70587000D01*
X174740000Y-63486000D02*
X174740000Y-65985000D01*
X174740000Y-68065000D02*
X174740000Y-70564000D01*
X174780000Y-63509000D02*
X174780000Y-65985000D01*
X174780000Y-68065000D02*
X174780000Y-70541000D01*
X174820000Y-63532000D02*
X174820000Y-65985000D01*
X174820000Y-68065000D02*
X174820000Y-70518000D01*
X174860000Y-63557000D02*
X174860000Y-65985000D01*
X174860000Y-68065000D02*
X174860000Y-70493000D01*
X174900000Y-63582000D02*
X174900000Y-65985000D01*
X174900000Y-68065000D02*
X174900000Y-70468000D01*
X174940000Y-63607000D02*
X174940000Y-65985000D01*
X174940000Y-68065000D02*
X174940000Y-70443000D01*
X174980000Y-63633000D02*
X174980000Y-65985000D01*
X174980000Y-68065000D02*
X174980000Y-70417000D01*
X175020000Y-63660000D02*
X175020000Y-65985000D01*
X175020000Y-68065000D02*
X175020000Y-70390000D01*
X175060000Y-63688000D02*
X175060000Y-65985000D01*
X175060000Y-68065000D02*
X175060000Y-70362000D01*
X175100000Y-63716000D02*
X175100000Y-65985000D01*
X175100000Y-68065000D02*
X175100000Y-70334000D01*
X175140000Y-63745000D02*
X175140000Y-65985000D01*
X175140000Y-68065000D02*
X175140000Y-70305000D01*
X175180000Y-63775000D02*
X175180000Y-65985000D01*
X175180000Y-68065000D02*
X175180000Y-70275000D01*
X175220000Y-63806000D02*
X175220000Y-65985000D01*
X175220000Y-68065000D02*
X175220000Y-70244000D01*
X175260000Y-63837000D02*
X175260000Y-65985000D01*
X175260000Y-68065000D02*
X175260000Y-70213000D01*
X175300000Y-63869000D02*
X175300000Y-65985000D01*
X175300000Y-68065000D02*
X175300000Y-70181000D01*
X175340000Y-63902000D02*
X175340000Y-65985000D01*
X175340000Y-68065000D02*
X175340000Y-70148000D01*
X175380000Y-63936000D02*
X175380000Y-65985000D01*
X175380000Y-68065000D02*
X175380000Y-70114000D01*
X175420000Y-63970000D02*
X175420000Y-65985000D01*
X175420000Y-68065000D02*
X175420000Y-70080000D01*
X175460000Y-64006000D02*
X175460000Y-65985000D01*
X175460000Y-68065000D02*
X175460000Y-70044000D01*
X175500000Y-64043000D02*
X175500000Y-70007000D01*
X175540000Y-64080000D02*
X175540000Y-69970000D01*
X175580000Y-64119000D02*
X175580000Y-69931000D01*
X175620000Y-64158000D02*
X175620000Y-69892000D01*
X175660000Y-64199000D02*
X175660000Y-69851000D01*
X175700000Y-64241000D02*
X175700000Y-69809000D01*
X175740000Y-64284000D02*
X175740000Y-69766000D01*
X175780000Y-64329000D02*
X175780000Y-69721000D01*
X175820000Y-64374000D02*
X175820000Y-69676000D01*
X175860000Y-64421000D02*
X175860000Y-69629000D01*
X175900000Y-64470000D02*
X175900000Y-69580000D01*
X175940000Y-64520000D02*
X175940000Y-69530000D01*
X175980000Y-64572000D02*
X175980000Y-69478000D01*
X176020000Y-64625000D02*
X176020000Y-69425000D01*
X176060000Y-64681000D02*
X176060000Y-69369000D01*
X176100000Y-64738000D02*
X176100000Y-69312000D01*
X176140000Y-64798000D02*
X176140000Y-69252000D01*
X176180000Y-64860000D02*
X176180000Y-69190000D01*
X176220000Y-64924000D02*
X176220000Y-69126000D01*
X176260000Y-64991000D02*
X176260000Y-69059000D01*
X176300000Y-65061000D02*
X176300000Y-68989000D01*
X176340000Y-65135000D02*
X176340000Y-68915000D01*
X176380000Y-65212000D02*
X176380000Y-68838000D01*
X176420000Y-65294000D02*
X176420000Y-68756000D01*
X176460000Y-65381000D02*
X176460000Y-68669000D01*
X176500000Y-65473000D02*
X176500000Y-68577000D01*
X176540000Y-65572000D02*
X176540000Y-68478000D01*
X176580000Y-65679000D02*
X176580000Y-68371000D01*
X176620000Y-65797000D02*
X176620000Y-68253000D01*
X176660000Y-65928000D02*
X176660000Y-68122000D01*
X176700000Y-66078000D02*
X176700000Y-67972000D01*
X176740000Y-66257000D02*
X176740000Y-67793000D01*
X176780000Y-66492000D02*
X176780000Y-67558000D01*
X176820000Y-67025000D02*
G75*
G02*
X168580000Y-67025000I-4120000J0D01*
G01*
X168580000Y-67025000D02*
G75*
G02*
X176820000Y-67025000I4120000J0D01*
G01*
%TO.C,C1*%
X159515302Y-69535000D02*
X160315302Y-69535000D01*
X159915302Y-69135000D02*
X159915302Y-69935000D01*
X163925000Y-67770000D02*
X163925000Y-75930000D01*
X163965000Y-67770000D02*
X163965000Y-75930000D01*
X164005000Y-67771000D02*
X164005000Y-75929000D01*
X164045000Y-67772000D02*
X164045000Y-75928000D01*
X164085000Y-67773000D02*
X164085000Y-75927000D01*
X164125000Y-67775000D02*
X164125000Y-75925000D01*
X164165000Y-67777000D02*
X164165000Y-75923000D01*
X164205000Y-67780000D02*
X164205000Y-75920000D01*
X164245000Y-67782000D02*
X164245000Y-75918000D01*
X164285000Y-67786000D02*
X164285000Y-75914000D01*
X164325000Y-67789000D02*
X164325000Y-75911000D01*
X164365000Y-67794000D02*
X164365000Y-75906000D01*
X164405000Y-67798000D02*
X164405000Y-75902000D01*
X164445000Y-67803000D02*
X164445000Y-75897000D01*
X164485000Y-67808000D02*
X164485000Y-75892000D01*
X164525000Y-67814000D02*
X164525000Y-75886000D01*
X164565000Y-67820000D02*
X164565000Y-75880000D01*
X164605000Y-67827000D02*
X164605000Y-75873000D01*
X164645000Y-67833000D02*
X164645000Y-70810000D01*
X164645000Y-72890000D02*
X164645000Y-75867000D01*
X164685000Y-67841000D02*
X164685000Y-70810000D01*
X164685000Y-72890000D02*
X164685000Y-75859000D01*
X164725000Y-67848000D02*
X164725000Y-70810000D01*
X164725000Y-72890000D02*
X164725000Y-75852000D01*
X164765000Y-67857000D02*
X164765000Y-70810000D01*
X164765000Y-72890000D02*
X164765000Y-75843000D01*
X164805000Y-67865000D02*
X164805000Y-70810000D01*
X164805000Y-72890000D02*
X164805000Y-75835000D01*
X164845000Y-67874000D02*
X164845000Y-70810000D01*
X164845000Y-72890000D02*
X164845000Y-75826000D01*
X164885000Y-67883000D02*
X164885000Y-70810000D01*
X164885000Y-72890000D02*
X164885000Y-75817000D01*
X164925000Y-67893000D02*
X164925000Y-70810000D01*
X164925000Y-72890000D02*
X164925000Y-75807000D01*
X164965000Y-67903000D02*
X164965000Y-70810000D01*
X164965000Y-72890000D02*
X164965000Y-75797000D01*
X165005000Y-67914000D02*
X165005000Y-70810000D01*
X165005000Y-72890000D02*
X165005000Y-75786000D01*
X165045000Y-67925000D02*
X165045000Y-70810000D01*
X165045000Y-72890000D02*
X165045000Y-75775000D01*
X165085000Y-67937000D02*
X165085000Y-70810000D01*
X165085000Y-72890000D02*
X165085000Y-75763000D01*
X165125000Y-67949000D02*
X165125000Y-70810000D01*
X165125000Y-72890000D02*
X165125000Y-75751000D01*
X165165000Y-67961000D02*
X165165000Y-70810000D01*
X165165000Y-72890000D02*
X165165000Y-75739000D01*
X165205000Y-67974000D02*
X165205000Y-70810000D01*
X165205000Y-72890000D02*
X165205000Y-75726000D01*
X165245000Y-67987000D02*
X165245000Y-70810000D01*
X165245000Y-72890000D02*
X165245000Y-75713000D01*
X165285000Y-68001000D02*
X165285000Y-70810000D01*
X165285000Y-72890000D02*
X165285000Y-75699000D01*
X165325000Y-68015000D02*
X165325000Y-70810000D01*
X165325000Y-72890000D02*
X165325000Y-75685000D01*
X165365000Y-68030000D02*
X165365000Y-70810000D01*
X165365000Y-72890000D02*
X165365000Y-75670000D01*
X165405000Y-68045000D02*
X165405000Y-70810000D01*
X165405000Y-72890000D02*
X165405000Y-75655000D01*
X165445000Y-68061000D02*
X165445000Y-70810000D01*
X165445000Y-72890000D02*
X165445000Y-75639000D01*
X165485000Y-68077000D02*
X165485000Y-70810000D01*
X165485000Y-72890000D02*
X165485000Y-75623000D01*
X165525000Y-68093000D02*
X165525000Y-70810000D01*
X165525000Y-72890000D02*
X165525000Y-75607000D01*
X165565000Y-68110000D02*
X165565000Y-70810000D01*
X165565000Y-72890000D02*
X165565000Y-75590000D01*
X165605000Y-68128000D02*
X165605000Y-70810000D01*
X165605000Y-72890000D02*
X165605000Y-75572000D01*
X165645000Y-68146000D02*
X165645000Y-70810000D01*
X165645000Y-72890000D02*
X165645000Y-75554000D01*
X165685000Y-68165000D02*
X165685000Y-70810000D01*
X165685000Y-72890000D02*
X165685000Y-75535000D01*
X165725000Y-68184000D02*
X165725000Y-70810000D01*
X165725000Y-72890000D02*
X165725000Y-75516000D01*
X165765000Y-68204000D02*
X165765000Y-70810000D01*
X165765000Y-72890000D02*
X165765000Y-75496000D01*
X165805000Y-68224000D02*
X165805000Y-70810000D01*
X165805000Y-72890000D02*
X165805000Y-75476000D01*
X165845000Y-68245000D02*
X165845000Y-70810000D01*
X165845000Y-72890000D02*
X165845000Y-75455000D01*
X165885000Y-68266000D02*
X165885000Y-70810000D01*
X165885000Y-72890000D02*
X165885000Y-75434000D01*
X165925000Y-68288000D02*
X165925000Y-70810000D01*
X165925000Y-72890000D02*
X165925000Y-75412000D01*
X165965000Y-68311000D02*
X165965000Y-70810000D01*
X165965000Y-72890000D02*
X165965000Y-75389000D01*
X166005000Y-68334000D02*
X166005000Y-70810000D01*
X166005000Y-72890000D02*
X166005000Y-75366000D01*
X166045000Y-68357000D02*
X166045000Y-70810000D01*
X166045000Y-72890000D02*
X166045000Y-75343000D01*
X166085000Y-68382000D02*
X166085000Y-70810000D01*
X166085000Y-72890000D02*
X166085000Y-75318000D01*
X166125000Y-68407000D02*
X166125000Y-70810000D01*
X166125000Y-72890000D02*
X166125000Y-75293000D01*
X166165000Y-68432000D02*
X166165000Y-70810000D01*
X166165000Y-72890000D02*
X166165000Y-75268000D01*
X166205000Y-68458000D02*
X166205000Y-70810000D01*
X166205000Y-72890000D02*
X166205000Y-75242000D01*
X166245000Y-68485000D02*
X166245000Y-70810000D01*
X166245000Y-72890000D02*
X166245000Y-75215000D01*
X166285000Y-68513000D02*
X166285000Y-70810000D01*
X166285000Y-72890000D02*
X166285000Y-75187000D01*
X166325000Y-68541000D02*
X166325000Y-70810000D01*
X166325000Y-72890000D02*
X166325000Y-75159000D01*
X166365000Y-68570000D02*
X166365000Y-70810000D01*
X166365000Y-72890000D02*
X166365000Y-75130000D01*
X166405000Y-68600000D02*
X166405000Y-70810000D01*
X166405000Y-72890000D02*
X166405000Y-75100000D01*
X166445000Y-68631000D02*
X166445000Y-70810000D01*
X166445000Y-72890000D02*
X166445000Y-75069000D01*
X166485000Y-68662000D02*
X166485000Y-70810000D01*
X166485000Y-72890000D02*
X166485000Y-75038000D01*
X166525000Y-68694000D02*
X166525000Y-70810000D01*
X166525000Y-72890000D02*
X166525000Y-75006000D01*
X166565000Y-68727000D02*
X166565000Y-70810000D01*
X166565000Y-72890000D02*
X166565000Y-74973000D01*
X166605000Y-68761000D02*
X166605000Y-70810000D01*
X166605000Y-72890000D02*
X166605000Y-74939000D01*
X166645000Y-68795000D02*
X166645000Y-70810000D01*
X166645000Y-72890000D02*
X166645000Y-74905000D01*
X166685000Y-68831000D02*
X166685000Y-70810000D01*
X166685000Y-72890000D02*
X166685000Y-74869000D01*
X166725000Y-68868000D02*
X166725000Y-74832000D01*
X166765000Y-68905000D02*
X166765000Y-74795000D01*
X166805000Y-68944000D02*
X166805000Y-74756000D01*
X166845000Y-68983000D02*
X166845000Y-74717000D01*
X166885000Y-69024000D02*
X166885000Y-74676000D01*
X166925000Y-69066000D02*
X166925000Y-74634000D01*
X166965000Y-69109000D02*
X166965000Y-74591000D01*
X167005000Y-69154000D02*
X167005000Y-74546000D01*
X167045000Y-69199000D02*
X167045000Y-74501000D01*
X167085000Y-69246000D02*
X167085000Y-74454000D01*
X167125000Y-69295000D02*
X167125000Y-74405000D01*
X167165000Y-69345000D02*
X167165000Y-74355000D01*
X167205000Y-69397000D02*
X167205000Y-74303000D01*
X167245000Y-69450000D02*
X167245000Y-74250000D01*
X167285000Y-69506000D02*
X167285000Y-74194000D01*
X167325000Y-69563000D02*
X167325000Y-74137000D01*
X167365000Y-69623000D02*
X167365000Y-74077000D01*
X167405000Y-69685000D02*
X167405000Y-74015000D01*
X167445000Y-69749000D02*
X167445000Y-73951000D01*
X167485000Y-69816000D02*
X167485000Y-73884000D01*
X167525000Y-69886000D02*
X167525000Y-73814000D01*
X167565000Y-69960000D02*
X167565000Y-73740000D01*
X167605000Y-70037000D02*
X167605000Y-73663000D01*
X167645000Y-70119000D02*
X167645000Y-73581000D01*
X167685000Y-70206000D02*
X167685000Y-73494000D01*
X167725000Y-70298000D02*
X167725000Y-73402000D01*
X167765000Y-70397000D02*
X167765000Y-73303000D01*
X167805000Y-70504000D02*
X167805000Y-73196000D01*
X167845000Y-70622000D02*
X167845000Y-73078000D01*
X167885000Y-70753000D02*
X167885000Y-72947000D01*
X167925000Y-70903000D02*
X167925000Y-72797000D01*
X167965000Y-71082000D02*
X167965000Y-72618000D01*
X168005000Y-71317000D02*
X168005000Y-72383000D01*
X168045000Y-71850000D02*
G75*
G02*
X159805000Y-71850000I-4120000J0D01*
G01*
X159805000Y-71850000D02*
G75*
G02*
X168045000Y-71850000I4120000J0D01*
G01*
%TO.C,R3*%
X160105000Y-63780000D02*
X160105000Y-64110000D01*
X160105000Y-66520000D02*
X160105000Y-66190000D01*
X166645000Y-63780000D02*
X160105000Y-63780000D01*
X166645000Y-64110000D02*
X166645000Y-63780000D01*
X166645000Y-66190000D02*
X166645000Y-66520000D01*
X166645000Y-66520000D02*
X160105000Y-66520000D01*
D12*
%TO.C,REF\u002A\u002A*%
X139617493Y-114150000D02*
G75*
G02*
X131632507Y-114150000I-3992493J0D01*
G01*
X131632507Y-114150000D02*
G75*
G02*
X139617493Y-114150000I3992493J0D01*
G01*
D11*
%TO.C,Right*%
X127575000Y-79200000D02*
G75*
G02*
X125175000Y-79200000I-1200000J0D01*
G01*
X125175000Y-79200000D02*
G75*
G02*
X127575000Y-79200000I1200000J0D01*
G01*
%TD*%
M02*
